<svg width="158" height="45" viewBox="0 0 158 45" fill="none" xmlns="http://www.w3.org/2000/svg">
<path d="M63.408 20.4624C65.4705 20.9248 67.0829 21.5748 68.2454 22.3998C69.4329 23.1998 70.0204 24.4748 70.0204 26.1998C70.0204 27.9248 69.3704 29.3873 68.0829 30.3372C66.8079 31.2997 65.008 31.7747 62.658 31.7747C59.808 31.7747 57.708 31.2122 56.3456 30.0747C54.9831 28.9373 54.2581 27.4373 54.1706 25.5748H59.108C59.258 27.2623 60.383 28.1123 62.458 28.1123C63.208 28.1123 63.7705 27.9873 64.1705 27.7498C64.5705 27.4998 64.758 27.1373 64.758 26.6498C64.758 26.0498 64.4955 25.6123 63.9705 25.3498C63.4455 25.0873 62.5205 24.8123 61.208 24.5498L60.5205 24.3873C58.6955 23.9873 57.2455 23.4123 56.1456 22.6498C55.0456 21.8873 54.4956 20.7123 54.4956 19.1124C54.4956 18.0624 54.7831 17.1374 55.3456 16.3124C55.9331 15.4874 56.7831 14.8499 57.883 14.3749C58.9955 13.8874 60.333 13.6374 61.858 13.6374C64.383 13.6374 66.2579 14.1874 67.5079 15.2749C68.7579 16.3624 69.4204 17.7499 69.5079 19.4124H64.5705C64.483 18.6999 64.233 18.1749 63.8205 17.8499C63.4205 17.4999 62.808 17.3124 61.983 17.3124C61.258 17.3124 60.6955 17.4374 60.308 17.6749C59.933 17.9249 59.7455 18.2499 59.7455 18.6749C59.7455 19.1374 59.9205 19.4749 60.2705 19.6749C60.6455 19.8499 61.3705 20.0499 62.4455 20.2749L63.3955 20.4749L63.408 20.4624Z" fill="#60584C"/>
<path d="M71.8829 14.1499V37.0247H77.1453V29.5372H77.2078C77.6078 30.0872 78.2328 30.5997 79.1203 31.0747C79.9953 31.5372 80.9828 31.7747 82.0828 31.7747C83.5702 31.7747 84.8702 31.4122 85.9577 30.6747C87.0577 29.9372 87.8952 28.8998 88.4952 27.5373C89.1077 26.1623 89.4202 24.5498 89.4202 22.6998C89.4202 20.8498 89.1077 19.2499 88.4952 17.8999C87.9077 16.5249 87.0577 15.4624 85.9577 14.7249C84.8577 13.9874 83.5702 13.6249 82.0828 13.6249C80.9828 13.6249 79.9953 13.8624 79.1203 14.3249C78.2453 14.7874 77.6078 15.2999 77.2078 15.8624H77.1453V14.1624H71.8829V14.1499ZM80.6953 27.7623C79.5953 27.7623 78.7453 27.3248 78.1328 26.4623C77.5453 25.5998 77.2453 24.3373 77.2453 22.6873C77.2453 21.0373 77.5453 19.7874 78.1328 18.9124C78.7453 18.0499 79.5953 17.6124 80.6953 17.6124C81.7953 17.6124 82.6328 18.0499 83.2327 18.9124C83.8452 19.7749 84.1577 21.0373 84.1577 22.6873C84.1577 24.3373 83.8452 25.5873 83.2327 26.4623C82.6453 27.3248 81.7953 27.7623 80.6953 27.7623Z" fill="#60584C"/>
<path d="M100.783 13.8499C101.358 13.8499 101.833 13.8999 102.233 13.9874V18.6624H102.17C101.845 18.5999 101.508 18.5624 101.145 18.5624C99.8951 18.5624 98.8201 18.9749 97.9201 19.7999C97.0451 20.6249 96.6076 21.7873 96.6076 23.2998V31.2372H91.3452V14.1499H96.6076V16.9499H96.6701C97.0826 15.9749 97.6451 15.2124 98.3451 14.6749C99.0701 14.1249 99.8826 13.8374 100.783 13.8374V13.8499Z" fill="#60584C"/>
<path d="M120.107 14.1499V31.2372H114.845V28.7623H114.782C113.645 30.7622 111.807 31.7622 109.257 31.7622C107.595 31.7622 106.27 31.2247 105.282 30.1622C104.295 29.0998 103.808 27.5998 103.808 25.6873V14.1499H109.07V23.9998C109.07 25.2498 109.282 26.1373 109.695 26.6748C110.132 27.1873 110.807 27.4373 111.695 27.4373C113.795 27.4373 114.857 26.2998 114.857 24.0373V14.1624H120.12L120.107 14.1499Z" fill="#60584C"/>
<path d="M133.557 20.5249C133.47 19.6999 133.182 19.0124 132.707 18.4499C132.245 17.8999 131.532 17.6124 130.57 17.6124C129.495 17.6124 128.657 18.0624 128.07 18.9499C127.482 19.8374 127.182 21.0873 127.182 22.6873C127.182 24.2873 127.47 25.5748 128.032 26.4623C128.62 27.3248 129.47 27.7623 130.57 27.7623C132.345 27.7623 133.345 26.7748 133.557 24.7873H138.72C138.632 26.1498 138.245 27.3623 137.57 28.4248C136.895 29.4748 135.945 30.2997 134.745 30.8997C133.557 31.4747 132.182 31.7622 130.607 31.7622C128.857 31.7622 127.32 31.3872 126.007 30.6247C124.72 29.8497 123.707 28.7748 122.982 27.4248C122.282 26.0498 121.932 24.4623 121.932 22.6873C121.932 20.9123 122.282 19.3624 122.982 17.9874C123.682 16.6124 124.682 15.5374 125.97 14.7874C127.257 14.0124 128.77 13.6249 130.47 13.6249C132.857 13.6249 134.782 14.2749 136.22 15.5624C137.67 16.8249 138.495 18.4874 138.72 20.5374H133.557V20.5249Z" fill="#60584C"/>
<path d="M148.557 27.7748C149.394 27.7748 150.044 27.6248 150.532 27.3123C151.019 26.9748 151.357 26.5623 151.557 26.0748H156.782C156.294 27.8498 155.382 29.2623 154.019 30.2747C152.657 31.2747 150.869 31.7747 148.657 31.7747C146.82 31.7747 145.22 31.3997 143.857 30.6372C142.52 29.8622 141.495 28.7873 140.77 27.4373C140.045 26.0623 139.682 24.4748 139.682 22.6998C139.682 20.9248 140.032 19.4124 140.732 18.0249C141.432 16.6499 142.445 15.5624 143.757 14.7874C145.07 14.0124 146.607 13.6249 148.357 13.6249C151.169 13.6249 153.307 14.5749 154.807 16.4624C156.294 18.3499 157.044 20.8998 157.044 24.0998H144.945C144.945 25.2373 145.295 26.1373 145.995 26.7998C146.695 27.4498 147.557 27.7623 148.557 27.7623V27.7748ZM148.357 17.2999C147.332 17.2999 146.495 17.6124 145.857 18.2374C145.245 18.8374 144.932 19.7124 144.932 20.8748H151.769C151.769 19.7124 151.457 18.8374 150.819 18.2374C150.207 17.6124 149.382 17.2999 148.357 17.2999Z" fill="#60584C"/>
<path fill-rule="evenodd" clip-rule="evenodd" d="M34.5384 27.7492C34.3508 32.8344 30.5969 37.5 25.3709 37.5H0.783691V27.3626C0.783691 22.5665 3.97023 18.0534 8.62512 17.3269C8.76604 12.0756 12.6167 7.5 17.6835 7.5H42.9207V17.6624C42.9207 22.8736 39.4545 27.4738 34.5384 27.7492ZM8.63364 17.3243C8.63364 17.4243 8.63364 17.5243 8.63364 17.6243C8.65864 22.9992 12.5211 27.7492 17.696 27.7492H34.0833C34.2458 27.7492 34.3958 27.7492 34.5458 27.7367C34.5458 27.5992 34.5458 27.4742 34.5458 27.3367C34.5208 22.1117 30.7459 17.2118 25.3584 17.2118H9.94612C9.49613 17.2118 9.05863 17.2493 8.63364 17.3118V17.3243Z" fill="#60584C"/>
</svg>
