<svg width="175" height="45" viewBox="0 0 175 45" fill="none" xmlns="http://www.w3.org/2000/svg">
<path d="M0.632324 28.8246C0.70133 28.4587 0.748186 28.0869 0.842749 27.7274C1.55283 25.028 4.20358 23.1577 6.97829 23.458C8.02487 23.5713 9.05783 23.8256 10.0904 24.0449C12.5004 24.5569 14.9271 24.9531 17.3832 25.1601C20.0962 25.3888 22.813 25.3859 25.5302 25.2645C27.139 25.1925 28.7483 25.1145 30.3533 24.9859C32.1632 24.8411 33.9731 24.6783 35.7737 24.4475C38.3763 24.1139 40.9712 23.7174 43.5679 23.3366C44.2413 23.2377 44.9088 23.0963 45.5789 22.9745C45.6666 22.9587 45.7543 22.9442 45.8843 22.9225C45.8272 23.0218 45.7957 23.0827 45.759 23.1398C44.3947 25.2461 43.0316 27.3529 41.6609 29.4546C41.6 29.5483 41.4781 29.6404 41.3708 29.6604C39.6248 29.9862 37.8809 30.3304 36.1268 30.6077C34.4621 30.871 32.7898 31.1022 31.1137 31.2739C29.2309 31.4664 27.3418 31.6198 25.4518 31.7105C23.6883 31.7949 21.9189 31.82 20.1537 31.7889C17.6963 31.7459 15.2658 31.42 12.8646 30.8905C11.531 30.5962 10.2041 30.2703 8.86615 29.999C7.64662 29.7515 6.42752 29.7302 5.25996 30.2652C4.17461 30.7623 3.24943 31.4618 2.58961 32.4696C2.38643 32.7801 2.23692 33.126 2.0512 33.4778C1.99455 33.402 1.93065 33.3147 1.8642 33.2291C1.18607 32.3524 0.7435 31.3804 0.665123 30.2614C0.663419 30.2358 0.643825 30.2116 0.63275 30.1864C0.63275 29.7324 0.63275 29.2787 0.63275 28.8246H0.632324ZM16.6122 1.50053C14.4607 1.85877 12.4046 2.45468 10.4746 3.46677C8.10708 4.70844 6.06119 6.34626 4.39697 8.44795C4.25427 8.62813 4.22275 8.80491 4.26747 9.01874C4.39867 9.64575 4.69812 10.1884 5.10576 10.671C6.07908 11.8228 7.31394 12.5883 8.72941 13.0769C9.15197 13.223 9.14941 13.214 9.41649 12.8596C10.6599 11.212 12.2534 10.004 14.1481 9.21085C17.442 7.83244 20.8173 7.77749 24.222 8.73036C26.6457 9.40849 28.7244 10.6889 30.4773 12.4942C30.5795 12.5994 30.6749 12.6449 30.8283 12.6275C31.2155 12.5832 31.6056 12.5632 31.995 12.5338C34.1171 12.374 36.2392 12.2147 38.3614 12.0537C38.4138 12.0499 38.4657 12.0324 38.5335 12.0179C38.4619 11.8859 38.4031 11.7734 38.3401 11.6627C36.3138 8.10931 33.4151 5.48838 29.7676 3.67634C27.4913 2.54541 25.0961 1.73055 22.5638 1.50011C21.593 1.41151 18.7075 1.15082 16.6118 1.50011L16.6122 1.50053ZM20.5626 43.6753C20.9839 43.6344 21.4056 43.5931 21.8269 43.5531C23.5469 43.3899 25.2277 43.0355 26.8617 42.4788C31.7091 40.8278 35.5462 37.8818 38.2851 33.5387C38.3277 33.4714 38.3669 33.402 38.4274 33.3006C38.3103 33.3207 38.2417 33.3322 38.1731 33.3437C37.0818 33.5226 35.996 33.7505 34.8987 33.8706C32.7131 34.1091 30.5211 34.2872 28.3326 34.4959C28.2116 34.5074 28.0817 34.55 27.9794 34.6151C25.7555 36.031 23.3254 36.7846 20.6938 36.9034C18.7736 36.9899 16.939 36.5873 15.1589 35.9113C13.3519 35.2251 11.6362 34.3724 10.1934 33.048C9.64991 32.5492 9.08594 32.073 8.54114 31.5755C8.39929 31.446 8.24552 31.3689 8.06577 31.3842C7.62319 31.4221 7.16102 31.4111 6.74486 31.5418C5.18968 32.03 4.18611 33.1575 3.41896 34.5355C3.2916 34.7642 3.30864 34.9512 3.46198 35.1753C4.78757 37.1096 6.41304 38.7482 8.3158 40.1122C11.1186 42.121 14.2358 43.2975 17.678 43.5982C17.9161 43.6191 18.1534 43.6498 18.3906 43.6762H20.5626V43.6753ZM2.37876 10.9356C1.15753 12.3996 0.832952 14.0872 1.23804 15.9044C1.58094 17.4421 2.52529 18.5994 3.82788 19.4556C5.18755 20.3489 6.70312 20.8937 8.25873 21.3311C11.3154 22.1916 14.4488 22.549 17.6073 22.7389C21.2918 22.9604 24.97 22.8284 28.6461 22.5541C34.9034 22.0868 41.1297 21.3371 47.3432 20.4741C47.5123 20.4507 47.6171 20.3774 47.7099 20.2322C49.0619 18.1173 50.4203 16.0066 51.7766 13.8943C51.817 13.8312 51.8516 13.7648 51.9035 13.6736C51.7642 13.6805 51.6594 13.6834 51.5547 13.6915C50.8902 13.7422 50.2257 13.7955 49.5607 13.8449C48.5141 13.9224 47.4671 13.9957 46.4205 14.0732C45.3599 14.1516 44.2993 14.2346 43.2386 14.3122C42.1707 14.3901 41.1024 14.4625 40.0345 14.54C38.7613 14.6325 37.489 14.73 36.2158 14.8208C35.1126 14.8996 34.0085 14.9703 32.9048 15.0478C31.5822 15.1406 30.2596 15.2407 28.9366 15.3306C27.5496 15.4248 26.1627 15.5121 24.7754 15.5986C23.218 15.6952 21.6612 15.8098 20.1026 15.8767C17.5553 15.9858 15.0111 15.9487 12.4757 15.6382C11.0113 15.4588 9.566 15.1896 8.16075 14.7351C6.83005 14.3045 5.5658 13.738 4.49323 12.8162C3.71884 12.1508 3.11738 11.3688 2.90142 10.2809C2.71101 10.5203 2.54957 10.7315 2.37962 10.9356H2.37876ZM81.0184 15.5824C79.7251 14.2943 78.2816 13.2715 76.5764 12.6599C74.0207 11.7428 71.3933 11.5741 68.7371 12.0737C65.9172 12.6041 63.5233 13.9399 61.6776 16.1489C59.0051 19.3479 58.1741 23.058 58.9677 27.0961C60.1062 32.887 64.8902 36.8476 70.7966 36.9997C72.2363 37.0367 73.6778 37.0197 75.118 37.0359C75.2739 37.0376 75.3441 36.9652 75.4178 36.8514C76.3997 35.3329 77.3849 33.8165 78.3685 32.2992C78.4055 32.2425 78.437 32.1821 78.4882 32.0943C78.3876 32.0943 78.319 32.0943 78.2509 32.0943C75.9729 32.0862 73.6948 32.0892 71.4168 32.0679C68.6497 32.0419 66.594 30.7815 65.2804 28.3714C64.1963 26.3822 64.0234 24.2532 64.6129 22.0808C65.6701 18.1846 69.3138 16.0479 73.2365 16.9906C74.6179 17.3224 75.8033 18.0282 76.8946 18.9121C77.1306 19.1034 77.3602 19.3027 77.6056 19.5093C78.7467 18.1965 79.8798 16.8922 81.0179 15.5828L81.0184 15.5824ZM116.921 18.2118C116.921 24.2537 116.922 30.2955 116.917 36.3373C116.917 36.5384 116.979 36.5835 117.17 36.5827C118.752 36.5758 120.335 36.5788 121.917 36.5788C122.111 36.5788 122.208 36.4848 122.208 36.2968C122.208 32.985 122.203 29.6736 122.214 26.3617C122.216 25.8761 122.248 25.3803 122.351 24.9075C122.632 23.6254 123.381 22.7513 124.714 22.5093C125.167 22.4271 125.651 22.425 126.109 22.4808C127.249 22.6201 128.009 23.2714 128.403 24.3474C128.62 24.9412 128.689 25.5597 128.69 26.1875C128.691 29.5628 128.692 32.9386 128.685 36.3139C128.684 36.5332 128.744 36.5844 128.957 36.5831C130.547 36.5741 132.137 36.5784 133.726 36.578C133.802 36.578 133.877 36.5716 133.969 36.5673C133.969 36.486 133.969 36.4234 133.969 36.3607C133.969 32.3754 133.97 28.3902 133.968 24.4049C133.967 23.6156 133.875 22.8356 133.667 22.0732C133.213 20.4106 132.311 19.0914 130.737 18.297C129.96 17.9047 129.128 17.7173 128.264 17.653C127.097 17.5665 125.972 17.7177 124.912 18.2395C123.89 18.7426 123.093 19.5102 122.384 20.3829C122.339 20.4392 122.291 20.4937 122.245 20.5495C122.229 20.5427 122.213 20.5354 122.197 20.5286V17.9827H116.931C116.926 18.073 116.92 18.142 116.92 18.2114L116.921 18.2118ZM98.8435 28.5422C98.956 26.8541 98.7703 25.2006 98.2267 23.5964C97.5648 21.6438 96.4526 20.017 94.6725 18.9172C92.748 17.7284 90.628 17.4106 88.4284 17.739C85.295 18.2067 83.037 19.9357 81.639 22.7594C80.6231 24.8117 80.3973 26.9917 80.7696 29.2391C81.0763 31.0899 81.8443 32.7239 83.1443 34.0844C84.8465 35.8653 86.9712 36.7778 89.4034 36.9413C90.6966 37.0286 91.9988 36.9831 93.2971 36.9856C93.3759 36.9856 93.4803 36.8945 93.5301 36.8178C94.4485 35.4113 95.3605 34.0005 96.2729 32.5906C96.3095 32.5335 96.3419 32.4738 96.3994 32.3759H96.1131C94.1899 32.3759 92.2667 32.3857 90.3439 32.3691C89.8507 32.3648 89.3497 32.3175 88.8671 32.2183C87.2348 31.8835 86.2781 30.848 85.8922 29.2532C85.8833 29.2157 85.8909 29.1744 85.8909 29.1198H98.8073C98.8205 28.9077 98.8312 28.725 98.8431 28.5418L98.8435 28.5422ZM85.787 25.8003C85.8505 25.5388 85.9003 25.2917 85.9706 25.0502C86.201 24.2562 86.5733 23.5449 87.1492 22.937C88.5451 21.4632 91.5916 21.3678 92.9559 23.5627C93.3423 24.1842 93.7009 25.2189 93.7069 25.8007H85.7874L85.787 25.8003ZM155.59 28.9814C155.734 27.2903 155.615 25.6223 155.127 23.9913C154.574 22.1456 153.639 20.5371 152.081 19.3589C149.941 17.7403 147.493 17.3348 144.917 17.7897C141.716 18.3549 139.509 20.2479 138.215 23.2007C137.421 25.0106 137.235 26.9146 137.491 28.8655C137.739 30.7555 138.449 32.447 139.728 33.8731C141.45 35.7946 143.649 36.768 146.192 36.9426C147.478 37.0312 148.774 36.9831 150.065 36.9865C150.142 36.9865 150.246 36.9128 150.292 36.8429C151.226 35.4121 152.154 33.9771 153.082 32.5424C153.11 32.4994 153.128 32.45 153.163 32.3754C153.048 32.3754 152.964 32.3754 152.88 32.3754C150.957 32.3754 149.034 32.3784 147.11 32.3742C146.222 32.372 145.355 32.2558 144.553 31.84C143.455 31.2697 142.905 30.3108 142.634 29.1211H155.559C155.571 29.0627 155.585 29.0223 155.589 28.981L155.59 28.9814ZM142.558 25.7986C142.637 25.4894 142.7 25.1937 142.789 24.9067C143.044 24.0875 143.455 23.3651 144.094 22.7756C145.502 21.4747 148.512 21.3763 149.842 23.7408C150.176 24.3346 150.372 24.9731 150.483 25.6406C150.491 25.6874 150.484 25.7368 150.484 25.7986H142.558ZM159.074 36.5597H164.354C164.354 36.4498 164.354 36.359 164.354 36.2679C164.354 34.1261 164.354 31.9848 164.354 29.8431C164.354 28.8549 164.429 27.8752 164.712 26.9214C165.233 25.1614 166.297 23.9206 168.104 23.3975C168.736 23.2147 169.384 23.1432 170.041 23.1568C170.218 23.1606 170.288 23.1244 170.287 22.9264C170.279 21.2315 170.283 19.5366 170.282 17.8417C170.282 17.7748 170.272 17.7075 170.267 17.6372C169.249 17.5874 168.288 17.7211 167.386 18.1547C165.901 18.8682 165.047 20.1402 164.401 21.591C164.383 21.5863 164.365 21.5816 164.347 21.5769V17.9886H159.073V36.5601L159.074 36.5597ZM107.568 36.3075C107.568 34.1091 107.564 31.9107 107.569 29.7119C107.571 28.7454 107.665 27.7883 107.95 26.8593C108.432 25.287 109.362 24.1114 110.942 23.5236C111.69 23.2454 112.469 23.1419 113.263 23.1568C113.457 23.1602 113.514 23.1065 113.513 22.9089C113.506 21.2281 113.509 19.5472 113.508 17.8668C113.508 17.7918 113.5 17.7173 113.496 17.6351C112.059 17.5733 110.753 17.8676 109.629 18.7737C108.745 19.4854 108.16 20.4153 107.695 21.4312C107.665 21.4956 107.632 21.5582 107.601 21.6216L107.56 21.6063V17.9929H102.287C102.287 18.0742 102.287 18.1373 102.287 18.2003C102.287 24.2498 102.287 30.2989 102.282 36.3484C102.282 36.5418 102.342 36.5831 102.524 36.5822C104.128 36.5758 105.732 36.5784 107.336 36.578C107.405 36.578 107.475 36.572 107.568 36.5673V36.3071L107.568 36.3075ZM174.496 19.1234C174.499 20.0047 173.854 20.6811 173.008 20.6824C172.148 20.6837 171.48 20.0043 171.478 19.1259C171.475 18.2561 172.158 17.5554 173.003 17.5601C173.84 17.5648 174.493 18.2489 174.496 19.1234ZM174.285 19.1234C174.282 18.3716 173.721 17.7837 173.001 17.7795C172.274 17.7752 171.688 18.3775 171.69 19.1255C171.691 19.8803 172.266 20.4647 173.005 20.4635C173.732 20.4622 174.287 19.8807 174.285 19.1234ZM173.688 18.6054C173.612 18.3422 173.391 18.2974 173.17 18.2847C172.952 18.2719 172.733 18.2974 172.514 18.2996C172.395 18.3008 172.356 18.3532 172.358 18.4691C172.363 18.8295 172.359 19.1903 172.359 19.551C172.359 19.6818 172.359 19.8122 172.359 19.9378C172.615 19.9651 172.742 19.8687 172.743 19.6486C172.743 19.5387 172.743 19.4288 172.743 19.3253C173.115 19.272 173.184 19.3176 173.269 19.6443C173.357 19.9872 173.375 19.9983 173.795 19.928C173.689 19.6528 173.586 19.3862 173.476 19.1017C173.629 19.0203 173.763 18.8652 173.689 18.6058L173.688 18.6054ZM173.255 18.671C173.29 18.72 173.295 18.832 173.262 18.8836C173.149 19.0646 172.959 19.0241 172.766 19.0177V18.5692C172.944 18.5564 173.128 18.4981 173.254 18.671H173.255Z" fill="#60584C"/>
</svg>
