<svg width="112" height="45" viewBox="0 0 112 45" fill="none" xmlns="http://www.w3.org/2000/svg">
<path d="M74.688 15.0102L76.3395 16.6576C75.2691 17.4204 74.4739 17.6949 73.434 17.6949C72.9752 17.6949 72.5776 17.6339 72.2717 17.4814C72.9752 18.3356 73.3116 19.3119 73.3116 20.4102C73.3116 22.3322 72.3329 24.1322 70.7425 25.139C69.8861 25.6882 68.785 25.9017 67.5311 25.9017C65.2066 26.7254 64.4114 27.3051 64.4114 27.9153C64.4114 28.4339 64.9313 28.739 65.7877 28.739H68.5404C70.559 28.739 71.66 28.9831 72.6999 29.7153C74.0457 30.661 74.5962 31.8509 74.5962 33.3458C74.5962 37.0678 71.9353 38.7458 67.7452 38.7458C62.3622 38.7458 60.2824 36.8237 60.2824 34.3831C60.2824 33.7729 60.3742 33.2543 60.6189 32.5526L63.4633 32.3085C63.2186 32.6746 62.9739 33.3153 62.9739 33.8644C62.9739 34.7492 63.3409 35.4814 63.9832 35.878C64.809 36.3661 66.0936 36.6712 67.4699 36.6712C70.1308 36.6712 71.66 35.817 71.66 33.6814C71.66 32.7356 71.3542 32.0339 70.7119 31.6068C70.0696 31.1492 69.0297 30.9966 67.317 30.9966C66.6135 30.9966 65.2066 31.0271 64.6561 31.0271C62.6069 31.0271 61.4141 30.0814 61.4141 28.556C61.4141 27.1831 62.1787 26.3593 64.5337 25.6271C62.2093 24.8949 60.6494 22.9424 60.6494 20.6543C60.6494 17.2068 63.2492 14.8576 67.0111 14.8576C69.6414 14.8576 70.1614 15.8339 72.2717 15.8339C73.2199 15.7729 73.8927 15.5593 74.688 15.0102ZM66.9805 17.0848C64.8396 17.0848 63.7385 18.1831 63.7385 20.5627C63.7385 22.7593 64.8702 23.9187 67.0723 23.9187C69.2744 23.9187 70.192 22.7898 70.192 20.4712C70.192 18.1526 69.2744 17.0848 66.9805 17.0848Z" fill="#60584C"/>
<path d="M88.4818 28.861L89.5217 30.6C87.9924 31.9729 85.9126 32.7356 83.7105 32.7356C78.9393 32.7356 76.0643 29.2882 76.0643 23.6136C76.0643 20.7153 76.676 18.8543 78.1441 17.1458C79.5204 15.5288 81.2331 14.7661 83.2823 14.7661C85.148 14.7661 86.769 15.4373 87.9618 16.6271C89.4605 18.1526 89.8581 19.7695 89.9193 23.8576V24.2237H79.184V24.6509C79.184 26.2678 79.398 27.5187 79.9792 28.4034C80.9579 29.8983 82.5483 30.5085 84.2611 30.5085C85.9738 30.5085 87.289 29.9593 88.4818 28.861ZM79.184 22.1492H87.0749C87.0443 20.2882 86.7996 19.1593 86.2797 18.3356C85.6985 17.4204 84.4752 16.8102 83.16 16.8102C80.7132 16.8102 79.3369 18.6102 79.184 22.1492Z" fill="#60584C"/>
<path d="M90.9592 15.3458L93.6506 14.7661C93.6506 14.7661 94.2623 16.0475 94.2623 17.4509C96.0668 15.6509 97.8714 14.7966 99.6759 14.7966C101.48 14.7966 103.193 15.8034 103.897 17.2983C104.172 17.9085 104.325 18.6102 104.325 19.3119V32.339H101.603V20.7153C101.603 18.8848 101.45 18.4271 100.991 17.8475C100.624 17.3898 99.89 17.1153 99.0948 17.1153C97.7184 17.1153 95.5775 18.2136 94.3235 19.5254V32.339H91.6932V19.0983C91.6626 16.6271 90.9592 15.3458 90.9592 15.3458Z" fill="#60584C"/>
<path d="M80.1015 41.4V39.0509C80.1015 38.8373 80.0709 38.6848 79.9792 38.6237C79.918 38.5627 79.7956 38.5017 79.6427 38.5017C79.5204 38.5017 79.3675 38.5322 79.2145 38.6237C79.0616 38.6848 78.9393 38.8068 78.7863 38.9288V41.4305H78.0829V37.3119C78.0829 37.1593 78.0829 37.0068 78.0523 36.8848C78.0217 36.7627 78.0217 36.6407 77.9911 36.5492L78.7558 36.3966C78.7863 36.4882 78.7863 36.6102 78.8169 36.7627C78.8475 36.9153 78.8475 37.0373 78.8475 37.2204V37.9526C78.8475 38.0441 78.8475 38.1356 78.8475 38.1966C78.8475 38.2576 78.8475 38.3187 78.8475 38.3187C79.1839 38.0136 79.5204 37.861 79.918 37.861C80.1321 37.861 80.285 37.8915 80.4379 37.9831C80.5909 38.0746 80.6826 38.1661 80.7438 38.2882C80.7744 38.3797 80.8049 38.4712 80.8355 38.5627C80.8661 38.6543 80.8661 38.8068 80.8661 38.9593V41.4H80.1015Z" fill="#60584C"/>
<path d="M82.7012 39.8746V39.9356C82.7012 40.0576 82.7012 40.1797 82.7318 40.3017C82.7624 40.4238 82.793 40.5153 82.8847 40.6068C82.9765 40.6983 83.0377 40.7899 83.16 40.8204C83.2823 40.8814 83.4047 40.9119 83.5882 40.9119C83.894 40.9119 84.1999 40.7899 84.4446 40.5763L84.7504 41.0339C84.3834 41.339 83.9858 41.4915 83.4964 41.4915C83.2518 41.4915 83.0377 41.461 82.8236 41.3695C82.64 41.278 82.4565 41.156 82.3342 41.0034C82.2119 40.8509 82.0895 40.6678 82.0283 40.4238C81.9672 40.2102 81.906 39.9356 81.906 39.661C81.906 39.356 81.9366 39.0814 81.9978 38.8678C82.0589 38.6543 82.1813 38.4712 82.3342 38.2882C82.4871 38.1356 82.64 38.0136 82.793 37.9221C82.9765 37.861 83.16 37.8 83.3741 37.8C83.5576 37.8 83.7105 37.8305 83.8634 37.8915C84.0164 37.9526 84.1693 38.0441 84.3222 38.1661C84.4751 38.2882 84.5975 38.5017 84.6587 38.7153C84.7198 38.9288 84.781 39.2644 84.781 39.661V39.8136L82.7012 39.8746ZM83.9858 39.2949C83.9858 39.0204 83.9246 38.7763 83.8329 38.6237C83.7411 38.4712 83.5576 38.3797 83.3741 38.3797C83.16 38.3797 83.0071 38.4712 82.8847 38.6237C82.7624 38.7763 82.7318 38.9899 82.7318 39.2949H83.9858Z" fill="#60584C"/>
<path d="M88.3289 41.5221C88.2371 41.4916 88.1453 41.4305 88.0536 41.339C87.9618 41.2475 87.9007 41.156 87.8701 41.0644C87.7172 41.217 87.5642 41.339 87.4113 41.4C87.2584 41.461 87.0749 41.4915 86.8914 41.4915C86.4938 41.4915 86.1879 41.4 86.0044 41.1865C85.8209 40.9729 85.7291 40.7288 85.7291 40.4543C85.7291 40.0577 85.8821 39.7526 86.1573 39.539C86.4326 39.3254 86.8914 39.2339 87.4419 39.2339H87.6866V39.0509C87.6866 38.8373 87.656 38.6848 87.5948 38.5932C87.5337 38.5017 87.4113 38.4407 87.1972 38.4407C87.0749 38.4407 86.9831 38.4712 86.8608 38.5017C86.7384 38.5322 86.6467 38.5627 86.5549 38.6237C86.4632 38.6848 86.3714 38.7153 86.3102 38.7458L86.1573 38.8373L85.8209 38.2882C86.0961 38.1356 86.3408 38.0136 86.5549 37.9221C86.7996 37.861 87.0443 37.8 87.289 37.8C87.8395 37.8 88.2065 37.9831 88.3594 38.3797C88.3594 38.4102 88.39 38.4407 88.39 38.5017C88.39 38.5627 88.39 38.5932 88.4206 38.6543C88.4206 38.7153 88.4206 38.8068 88.4206 38.8983V40.2407C88.4206 40.3627 88.4206 40.4543 88.4206 40.5458C88.4206 40.6373 88.4512 40.6983 88.4512 40.7593C88.4818 40.8204 88.5124 40.8814 88.543 40.9119C88.5735 40.9424 88.6347 41.0034 88.6959 41.0339L88.3289 41.5221ZM87.6866 39.7526C87.6866 39.7526 87.656 39.7526 87.6254 39.7526C87.5948 39.7526 87.5642 39.7526 87.5336 39.7526C87.3501 39.7526 87.1972 39.7831 87.0749 39.7831C86.9525 39.7831 86.8608 39.8441 86.769 39.9051C86.6773 39.9661 86.6467 40.0271 86.6161 40.1187C86.5855 40.2102 86.5549 40.3017 86.5549 40.3932C86.5549 40.5458 86.5855 40.6983 86.6773 40.7898C86.769 40.8814 86.8914 40.9424 87.0443 40.9424C87.1666 40.9424 87.289 40.9119 87.3807 40.8509C87.4725 40.7899 87.5948 40.6983 87.656 40.5763L87.6866 39.7526Z" fill="#60584C"/>
<path d="M90.9898 41.3695C90.8368 41.4305 90.7145 41.461 90.531 41.461C90.3475 41.461 90.1945 41.4305 90.0722 41.339C89.9804 41.278 89.8887 41.1865 89.8581 41.0644C89.7969 40.9729 89.7969 40.8509 89.7663 40.7288C89.7358 40.6068 89.7663 40.5153 89.7663 40.4543V37.5254C89.7663 37.4034 89.7663 37.3119 89.7663 37.2204C89.7663 37.1288 89.7663 37.0373 89.7663 36.9763C89.7663 36.9153 89.7663 36.8237 89.7358 36.7627C89.7358 36.7017 89.7052 36.6102 89.7052 36.5492L90.4698 36.3661C90.5004 36.4576 90.5004 36.6102 90.531 36.7627C90.5616 36.9153 90.531 37.0983 90.531 37.3424V40.2712C90.531 40.3932 90.531 40.4848 90.531 40.5458C90.531 40.6068 90.531 40.6678 90.531 40.7288C90.531 40.7593 90.531 40.7899 90.5616 40.8204C90.5616 40.8509 90.5921 40.8509 90.5921 40.8814C90.6227 40.9119 90.6533 40.9424 90.7145 40.9424C90.7756 40.9424 90.8062 40.9424 90.8674 40.9424L90.9898 41.3695Z" fill="#60584C"/>
<path d="M93.8342 41.339C93.6201 41.4305 93.3754 41.4915 93.1613 41.4915C93.0084 41.4915 92.8554 41.461 92.7331 41.4305C92.6107 41.4 92.519 41.3085 92.4578 41.2475C92.3967 41.1865 92.3355 41.0644 92.3049 40.9729C92.2743 40.8509 92.2437 40.7593 92.2437 40.6373V38.5017H91.8461V37.9831H92.2437C92.2437 37.8305 92.2437 37.678 92.2437 37.556C92.2437 37.4034 92.2437 37.2509 92.2743 37.1288L93.0389 36.9458C93.0084 37.0983 93.0084 37.2509 93.0084 37.4339C93.0084 37.617 92.9778 37.8 92.9778 37.9831H93.8036L93.6201 38.5017H92.9778V40.4543C92.9778 40.6678 93.0084 40.8204 93.0695 40.8814C93.1307 40.9424 93.253 41.0034 93.406 41.0034C93.4977 41.0034 93.5895 40.9729 93.7424 40.9424L93.8342 41.339Z" fill="#60584C"/>
<path d="M96.9844 41.4V39.0509C96.9844 38.8373 96.9538 38.6848 96.8621 38.6237C96.8009 38.5627 96.6786 38.5017 96.5256 38.5017C96.4033 38.5017 96.2504 38.5322 96.0974 38.6237C95.9445 38.6848 95.8222 38.8068 95.6693 38.9288V41.4305H94.9046V37.3119C94.9046 37.1593 94.9046 37.0068 94.874 36.8848C94.8435 36.7627 94.8435 36.6407 94.8129 36.5492L95.5775 36.3966C95.6081 36.4882 95.6081 36.6102 95.6387 36.7627C95.6693 36.9153 95.6693 37.0373 95.6693 37.2204V37.9526C95.6693 38.0441 95.6693 38.1356 95.6693 38.1966C95.6693 38.2576 95.6693 38.3187 95.6693 38.3187C96.0057 38.0136 96.3421 37.861 96.7397 37.861C96.9538 37.861 97.1068 37.8915 97.2597 37.9831C97.4126 38.0746 97.5044 38.1661 97.5655 38.2882C97.5961 38.3797 97.6267 38.4712 97.6573 38.5627C97.6879 38.6543 97.6879 38.8068 97.6879 38.9593V41.4H96.9844Z" fill="#60584C"/>
<path d="M101.327 41.0339C101.175 41.1865 100.991 41.3085 100.838 41.3695C100.685 41.4305 100.471 41.4915 100.226 41.4915C99.7371 41.4915 99.37 41.339 99.1254 41.0339C98.8807 40.7288 98.7583 40.2712 98.7583 39.7221C98.7583 39.417 98.7889 39.1424 98.8807 38.8983C98.9724 38.6543 99.0948 38.4712 99.2171 38.3187C99.3395 38.1661 99.523 38.0441 99.7065 37.9831C99.89 37.9221 100.073 37.861 100.288 37.861C100.502 37.861 100.655 37.8915 100.808 37.9526C100.96 38.0136 101.113 38.1051 101.266 38.2576L100.899 38.7458C100.716 38.5627 100.502 38.4712 100.318 38.4712C100.073 38.4712 99.89 38.5932 99.7676 38.8373C99.7065 38.9288 99.6759 39.0814 99.6453 39.2339C99.6147 39.3865 99.6147 39.5695 99.6147 39.8136C99.6147 40.2712 99.6759 40.5763 99.8594 40.7593C99.9817 40.8814 100.135 40.9424 100.318 40.9424C100.563 40.9424 100.777 40.8204 101.022 40.6068L101.327 41.0339Z" fill="#60584C"/>
<path d="M104.753 41.5221C104.661 41.4916 104.569 41.4305 104.478 41.339C104.386 41.2475 104.325 41.156 104.294 41.0644C104.141 41.217 103.988 41.339 103.835 41.4C103.683 41.461 103.499 41.4915 103.315 41.4915C102.918 41.4915 102.612 41.4 102.429 41.1865C102.245 40.9729 102.153 40.7288 102.153 40.4543C102.153 40.0577 102.306 39.7526 102.581 39.539C102.857 39.3254 103.315 39.2339 103.866 39.2339H104.111V39.0509C104.111 38.8373 104.08 38.6848 104.019 38.5932C103.958 38.5017 103.835 38.4407 103.621 38.4407C103.499 38.4407 103.407 38.4712 103.285 38.5017C103.163 38.5322 103.071 38.5627 102.979 38.6237C102.887 38.6848 102.796 38.7153 102.734 38.7458L102.581 38.8373L102.245 38.2882C102.52 38.1356 102.765 38.0136 102.979 37.9221C103.224 37.861 103.468 37.8 103.713 37.8C104.264 37.8 104.631 37.9831 104.784 38.3797C104.784 38.4102 104.814 38.4407 104.814 38.5017C104.814 38.5627 104.814 38.5932 104.845 38.6543C104.845 38.7153 104.845 38.8068 104.845 38.8983V40.2407C104.845 40.3627 104.845 40.4543 104.845 40.5458C104.845 40.6373 104.875 40.6983 104.875 40.7593C104.906 40.8204 104.937 40.8814 104.967 40.9119C104.998 40.9424 105.059 41.0034 105.12 41.0339L104.753 41.5221ZM104.111 39.7526C104.111 39.7526 104.08 39.7526 104.05 39.7526C104.019 39.7526 103.988 39.7526 103.958 39.7526C103.774 39.7526 103.621 39.7831 103.499 39.7831C103.377 39.7831 103.285 39.8441 103.193 39.9051C103.101 39.9661 103.071 40.0271 103.04 40.1187C103.01 40.2102 102.979 40.3017 102.979 40.3932C102.979 40.5458 103.01 40.6983 103.101 40.7898C103.193 40.8814 103.316 40.9424 103.468 40.9424C103.591 40.9424 103.713 40.9119 103.805 40.8509C103.897 40.7899 104.019 40.6983 104.08 40.5763L104.111 39.7526Z" fill="#60584C"/>
<path d="M107.842 38.5932C107.811 38.5932 107.781 38.5627 107.75 38.5627C107.72 38.5627 107.689 38.5627 107.628 38.5627C107.475 38.5627 107.322 38.6237 107.2 38.7153C107.077 38.8068 107.016 38.9288 106.955 39.0814V41.4305H106.221V38.9899C106.221 38.7763 106.221 38.5932 106.19 38.4407C106.16 38.2882 106.129 38.1356 106.099 38.0441L106.802 37.8915C106.894 38.0441 106.925 38.2271 106.925 38.4407C107.077 38.2576 107.2 38.1051 107.353 38.0136C107.506 37.9221 107.659 37.8915 107.812 37.8915C107.903 37.8915 107.995 37.9221 108.087 37.9526L107.842 38.5932Z" fill="#60584C"/>
<path d="M109.494 39.8746V39.9356C109.494 40.0576 109.494 40.1797 109.524 40.3017C109.555 40.4238 109.585 40.5153 109.677 40.6068C109.769 40.6983 109.83 40.7899 109.952 40.8204C110.075 40.8814 110.197 40.9119 110.381 40.9119C110.686 40.9119 110.992 40.7899 111.237 40.5763L111.543 41.0339C111.176 41.339 110.778 41.4915 110.289 41.4915C110.044 41.4915 109.83 41.461 109.616 41.3695C109.432 41.278 109.249 41.156 109.127 41.0034C109.004 40.8509 108.882 40.6678 108.821 40.4238C108.76 40.2102 108.698 39.9356 108.698 39.661C108.698 39.356 108.729 39.0814 108.79 38.8678C108.851 38.6543 108.974 38.4712 109.127 38.2882C109.28 38.1356 109.432 38.0136 109.585 37.9221C109.769 37.861 109.952 37.8 110.167 37.8C110.35 37.8 110.503 37.8305 110.656 37.8915C110.809 37.9526 110.962 38.0441 111.115 38.1661C111.268 38.2882 111.39 38.5017 111.451 38.7153C111.512 38.9288 111.573 39.2644 111.573 39.661V39.8136L109.494 39.8746ZM110.778 39.2949C110.778 39.0204 110.717 38.7763 110.625 38.6237C110.534 38.4712 110.35 38.3797 110.167 38.3797C109.952 38.3797 109.8 38.4712 109.677 38.6237C109.555 38.7763 109.524 38.9899 109.524 39.2949H110.778Z" fill="#60584C"/>
<path d="M15.9953 0L0.396973 15.7424V45H42.9713L54.3489 33.4983C54.3183 33.4983 54.2571 33.4983 54.2265 33.4983C53.3396 33.4983 52.6361 33.3153 51.9633 33.0102C50.7399 32.4305 50.3117 31.3322 50.3117 29.5932V17.7864H47.1308L48.446 15.7424H50.3117C50.3117 14.0949 50.5869 11.4102 50.5869 11.4102L53.4313 10.8C53.4313 10.8 53.0949 13.4847 53.0949 15.7729H57.4074V17.8169H53.0031V28.8915C53.0031 30.7831 53.5231 31.4542 55.2053 31.4542C55.817 31.4542 56.2452 31.3932 56.6122 31.2407L58.5696 29.2576V0H15.9953ZM16.9434 32.9186H14.2214V21.2949C14.2214 19.4644 14.0685 19.0068 13.6097 18.4271C13.2427 17.9695 12.5086 17.6949 11.7134 17.6949C10.3371 17.6949 8.19614 18.7932 6.94216 20.1051V32.8881H4.31185V19.678C4.31185 17.2373 3.57781 15.9254 3.57781 15.9254L6.26929 15.3458C6.26929 15.3458 6.88099 16.6271 6.88099 18.0305C8.6855 16.2305 10.49 15.3763 12.2945 15.3763C14.099 15.3763 15.8118 16.3831 16.5153 17.878C16.7905 18.4881 16.9434 19.1898 16.9434 19.8915V32.9186ZM32.3889 24.7729H21.6535V25.2C21.6535 26.8169 21.8676 28.0678 22.4487 28.9525C23.4275 30.4475 25.0179 31.0576 26.7306 31.0576C28.4434 31.0576 29.728 30.539 30.9514 29.4407L31.9913 31.1797C30.462 32.5525 28.3822 33.3153 26.1801 33.3153C21.4089 33.3153 18.5339 29.8678 18.5339 24.1932C18.5339 21.2949 19.1456 19.4339 20.6136 17.7254C21.99 16.1085 23.7027 15.3458 25.7519 15.3458C27.6176 15.3458 29.2386 16.017 30.4314 17.2068C31.9301 18.7322 32.3277 20.3492 32.3889 24.4373V24.7729ZM48.2931 32.9186H45.0205L40.341 25.5966L35.6615 32.9186H32.4806L38.9035 23.4L33.5817 15.7424H36.8849L40.3104 21.478L43.6441 15.7424H46.7944L41.6867 23.4L48.2931 32.9186Z" fill="#60584C"/>
<path d="M25.6297 17.39C23.1829 17.39 21.776 19.19 21.6537 22.729H29.5446C29.514 20.868 29.2693 19.7392 28.7494 18.9154C28.1377 18.0002 26.9449 17.39 25.6297 17.39Z" fill="#60584C"/>
</svg>
