<svg width="99" height="45" viewBox="0 0 99 45" fill="none" xmlns="http://www.w3.org/2000/svg">
<path d="M71.9447 3.9707H63.4829L62.3906 9.07383H70.8686L71.9447 3.9707Z" fill="#60584C"/>
<path d="M84.3193 16.2639C87.5475 16.2639 89.0638 17.3562 89.2594 19.2964H98.0472C98.3407 12.9542 93.1887 10.6716 85.3954 10.6716C77.325 10.6716 71.2273 13.5737 68.6676 19.4431L70.3469 11.552H61.8688L60.3037 18.8888C59.9287 13.802 56.0646 10.9977 49.8202 10.9977C46.3801 10.9977 43.1193 12.2368 40.8531 14.4378H40.7715L41.3748 11.5683H33.1413L29.8805 27.0571H11.0495L11.9462 22.1985H28.7393L29.9947 16.2802H13.2016L14.1146 11.5194H33.1739L34.4782 5.37284H5.91376L0.23999 33.2036H28.5599L26.8969 41.0295H35.375L37.4619 31.2472H37.5434C38.6357 32.845 41.2607 34.0841 45.0106 34.0841C51.4343 34.0841 56.3907 30.7744 58.7711 26.193L57.2874 33.2036H65.7655L67.4122 25.4104C67.4611 31.3124 72.1566 34.0841 80.439 34.0841C89.7812 34.0841 94.7049 30.6928 97.3299 24.7093H88.379C87.1888 27.2364 84.8411 28.4918 81.7922 28.4918C77.7163 28.4918 75.8739 26.2908 76.7054 22.3778C77.5043 18.4649 80.3738 16.2639 84.3193 16.2639ZM51.3528 22.4267C50.5865 26.0299 48.0594 27.9375 44.1954 27.9375C40.2335 27.9375 38.6194 25.7854 39.3368 22.4267C40.0542 19.0681 42.5813 16.916 46.5431 16.916C50.4072 16.916 52.1191 18.8236 51.3528 22.4267Z" fill="#60584C"/>
</svg>
