<svg width="156" height="44" viewBox="0 0 156 44" fill="none" xmlns="http://www.w3.org/2000/svg">
<g clip-path="url(#clip0_2731_21830)">
<path d="M-0.17749 43.5834V33.4709H2.05062V37.4065H6.02032V33.4709H8.24704V43.5834H6.02032V39.2678H2.05062V43.5834H-0.17749Z" fill="#2A2114"/>
<path d="M13.0545 43.5834V33.4709H19.9384V35.3318H15.2826V37.5068H18.6515V39.2678H15.2826V41.7825H20.1852V43.5832L13.0545 43.5834Z" fill="#2A2114"/>
<path d="M23.6244 43.5833L27.2001 33.4307H29.322L32.8977 43.5833H30.6421L29.8955 41.3152H26.4532L25.6733 43.5833H23.6244ZM27.0003 39.7142H29.3744L28.2142 36.2722H28.188L27.0003 39.7142Z" fill="#2A2114"/>
<path d="M36.9033 43.5834V33.4709H39.1314V41.7821H43.5803V43.5828L36.9033 43.5834Z" fill="#2A2114"/>
<path d="M46.9069 35.3318V33.4709H55.1509V35.3318H52.1361V43.5834H49.908V35.3318H46.9069Z" fill="#2A2114"/>
<path d="M59.224 43.5834V33.4709H61.452V37.4065H65.4218V33.4709H67.6485V43.5834H65.4218V39.2678H61.452V43.5834H59.224Z" fill="#2A2114"/>
<path d="M9.37116 29.6829C5.91502 29.6603 2.56132 28.5068 -0.17749 26.3986L2.5211 22.3449C3.63748 23.1565 4.85976 23.8113 6.15387 24.2912C7.23601 24.7007 8.38083 24.92 9.53771 24.9393C10.238 24.9914 10.9381 24.8365 11.551 24.4939C11.7502 24.3696 11.914 24.1961 12.0267 23.9902C12.1394 23.7842 12.1973 23.5527 12.1947 23.318V23.2365C12.1948 23.0765 12.1616 22.9183 12.0972 22.7718C12.0329 22.6253 11.9388 22.4938 11.8209 22.3856C11.5253 22.1131 11.1802 21.8999 10.8043 21.7574C10.3219 21.5634 9.83001 21.3941 9.33042 21.2503C8.77635 21.0883 8.19487 20.9127 7.58598 20.7235C6.79114 20.5003 6.00827 20.2365 5.24046 19.9331C4.4721 19.6341 3.75172 19.2242 3.1023 18.7162C2.46323 18.2141 1.93362 17.5866 1.54601 16.8722C1.1217 16.0457 0.914516 15.1249 0.94394 14.1963V14.1148C0.923383 13.0982 1.14365 12.0911 1.58675 11.1759C2.00631 10.3366 2.60116 9.59708 3.3311 9.0074C4.09339 8.39761 4.96774 7.94304 5.90478 7.66939C6.93564 7.36538 8.00572 7.21516 9.08043 7.2236C10.5382 7.2307 11.9867 7.45619 13.3777 7.89257C14.7916 8.32061 16.1398 8.94127 17.3844 9.73706L14.9763 13.9939C13.9424 13.4065 12.8589 12.9113 11.7382 12.5138C10.8472 12.18 9.90736 11.9953 8.95634 11.967C8.34497 11.9237 7.73535 12.0724 7.21264 12.3925C7.03414 12.5092 6.88753 12.6686 6.78606 12.8562C6.68459 13.0438 6.63144 13.2537 6.63143 13.467V13.5475C6.63307 13.6985 6.66724 13.8473 6.73162 13.9839C6.79599 14.1204 6.88905 14.2415 7.00445 14.3388C7.30395 14.6014 7.6396 14.8197 8.00113 14.9869C8.46672 15.2106 8.94489 15.4071 9.43325 15.5754C9.97277 15.7646 10.547 15.9538 11.1559 16.143C11.9308 16.3855 12.7199 16.6758 13.5232 17.0138C14.292 17.3331 15.0172 17.7486 15.6813 18.2504C16.3178 18.7375 16.8537 19.3436 17.2592 20.0349C17.6939 20.8141 17.9091 21.6967 17.882 22.5886V22.6692C17.9102 23.7519 17.69 24.8268 17.2383 25.8112C16.8242 26.672 16.2038 27.4171 15.4323 27.9803C14.6119 28.5693 13.6901 29.0023 12.7129 29.2576C11.6229 29.5478 10.4991 29.6908 9.37116 29.6829Z" fill="#2A2114"/>
<path d="M21.7017 -0.316406H28.3444V5.1563H21.7017V-0.316406ZM21.8682 7.54802H28.1779V29.2773H21.8682V7.54802Z" fill="#2A2114"/>
<path d="M33.2844 7.54841H39.5941V10.6548C39.9587 10.1868 40.354 9.74347 40.7773 9.32772C41.212 8.90182 41.6926 8.52547 42.2103 8.20555C42.7604 7.86786 43.354 7.6067 43.9746 7.42928C44.6836 7.23066 45.4173 7.13433 46.1536 7.1432C47.4766 7.10856 48.7859 7.41799 49.9534 8.04121C51.0132 8.63511 51.8727 9.53039 52.4229 10.6135C53.3117 9.53465 54.4146 8.65184 55.6619 8.02083C56.932 7.41789 58.3245 7.11748 59.7302 7.1432C60.7403 7.08525 61.7516 7.23525 62.7015 7.5839C63.6513 7.93254 64.5195 8.47243 65.2523 9.17013C66.5803 10.5216 67.2444 12.5081 67.2447 15.1294V29.2777H60.9342V17.1859C61.0197 16.0084 60.681 14.8392 59.9791 13.8899C59.6348 13.5111 59.2098 13.2146 58.7355 13.0222C58.2612 12.8297 57.7497 12.7464 57.2389 12.7782C56.7194 12.7506 56.2 12.8356 55.7164 13.0275C55.2328 13.2194 54.7964 13.5136 54.4372 13.8899C53.6951 14.8212 53.3317 15.9983 53.4196 17.1859V29.2777H47.1086V17.1859C47.1942 16.0084 46.8554 14.8392 46.1536 13.8899C45.8094 13.5112 45.3846 13.2147 44.9104 13.0223C44.4363 12.8299 43.925 12.7465 43.4143 12.7782C42.8945 12.7505 42.375 12.8355 41.8912 13.0274C41.4074 13.2193 40.9708 13.5135 40.6113 13.8899C39.8692 14.8212 39.5058 15.9983 39.5938 17.1859V29.2777H33.2844V7.54841Z" fill="#2A2114"/>
<path d="M71.895 7.54828H78.2046V10.6701C78.968 9.65364 79.9196 8.79335 81.0076 8.13601C82.2672 7.43214 83.6963 7.08856 85.1382 7.14291C86.4328 7.14166 87.7156 7.38938 88.9167 7.87258C90.1362 8.36063 91.2394 9.0996 92.1549 10.0415C93.1322 11.058 93.9008 12.2562 94.4171 13.5685C95.0095 15.0996 95.2985 16.7313 95.2681 18.3727V18.4532C95.2986 20.0946 95.0096 21.7263 94.4171 23.2574C93.9033 24.566 93.1423 25.7634 92.1757 26.7843C91.2699 27.7287 90.1725 28.4682 88.9571 28.9533C87.7426 29.4391 86.446 29.6868 85.1379 29.683C83.6849 29.7402 82.2434 29.4039 80.9656 28.7098C79.9282 28.1077 78.9957 27.341 78.2045 26.4394V35.7634H71.895V7.54828ZM83.5194 24.4535C84.2351 24.4597 84.9443 24.3169 85.6018 24.0342C86.2593 23.7515 86.8508 23.3351 87.3387 22.8114C87.8495 22.2642 88.2511 21.6245 88.5219 20.9266C88.823 20.1374 88.9708 19.298 88.9572 18.4534V18.3729C88.9671 17.5351 88.8195 16.7029 88.5219 15.9197C88.2543 15.214 87.8525 14.5669 87.3387 14.0141C86.8528 13.4962 86.2667 13.0826 85.616 12.7983C84.9527 12.5175 84.2397 12.3729 83.5194 12.3729C82.7991 12.3729 82.0861 12.5175 81.4228 12.7983C80.776 13.0793 80.1957 13.4936 79.7198 14.0141C79.2172 14.5714 78.823 15.2177 78.5575 15.9197C78.2599 16.7029 78.1122 17.5351 78.1221 18.3729V18.4534C78.1121 19.291 78.2598 20.1231 78.5575 20.906C78.8225 21.6082 79.2168 22.2546 79.7198 22.8116C80.1957 23.3324 80.7759 23.747 81.4228 24.0283C82.0845 24.3141 82.7986 24.4589 83.5194 24.4535Z" fill="#2A2114"/>
<path d="M99.3777 -0.316406H105.687V29.2777H99.3777V-0.316406Z" fill="#2A2114"/>
<path d="M121.338 29.7635C119.759 29.7779 118.191 29.5034 116.71 28.9533C115.341 28.4509 114.091 27.6713 113.037 26.6633C111.983 25.6553 111.149 24.4407 110.586 23.0954C109.989 21.65 109.693 20.0983 109.714 18.5347V18.4532C109.706 16.956 109.981 15.4708 110.524 14.0754C111.038 12.7378 111.806 11.5124 112.787 10.467C113.767 9.43185 114.946 8.60463 116.253 8.03464C117.661 7.42703 119.182 7.12318 120.716 7.14291C122.374 7.10215 124.02 7.43459 125.531 8.11564C126.839 8.72653 127.994 9.61955 128.915 10.7305C129.823 11.8424 130.501 13.1242 130.908 14.5008C131.34 15.9408 131.557 17.4368 131.551 18.9403C131.551 19.1829 131.544 19.4399 131.531 19.7097C131.517 19.9795 131.495 20.2646 131.468 20.5616H115.983C116.198 21.8193 116.871 22.9529 117.872 23.7435C118.904 24.4843 120.152 24.8622 121.422 24.8181C122.389 24.8342 123.349 24.655 124.245 24.2913C125.189 23.8655 126.058 23.2905 126.819 22.5883L130.431 25.7096C129.391 26.9708 128.088 27.9881 126.612 28.6897C124.957 29.4389 123.154 29.8059 121.338 29.7635ZM125.408 16.7106C125.274 15.4661 124.751 14.2954 123.913 13.3657C123.501 12.9383 123.003 12.6035 122.452 12.3834C121.9 12.1632 121.309 12.0628 120.716 12.0888C120.122 12.0641 119.529 12.163 118.975 12.3794C118.421 12.5958 117.918 12.9248 117.498 13.3458C116.636 14.2788 116.078 15.4528 115.9 16.711L125.408 16.7106Z" fill="#2A2114"/>
<path d="M141.35 18.2506L133.835 7.54822H140.602L144.754 13.8728L148.947 7.54822H155.548L148.034 18.1293L155.88 29.2775H149.113L144.63 22.5072L140.146 29.2775H133.545L141.35 18.2506Z" fill="#2A2114"/>
</g>
<defs>
<clipPath id="clip0_2731_21830">
<rect width="155.63" height="44" fill="white"/>
</clipPath>
</defs>
</svg>
