<svg width="271" height="44" viewBox="0 0 271 44" fill="none" xmlns="http://www.w3.org/2000/svg">
<path d="M71.5405 11.1903V33.7694H67.4487L57.701 19.5582H57.5368V33.7694H52.7996V11.1903H56.9569L66.6282 25.3905H66.8251V11.1903H71.5405ZM75.3669 33.7694V16.8351H80.0275V33.7694H75.3669ZM77.7082 14.6522C77.0153 14.6522 76.4208 14.4206 75.9249 13.9576C75.4362 13.4872 75.1919 12.9249 75.1919 12.2708C75.1919 11.624 75.4362 11.069 75.9249 10.606C76.4208 10.1356 77.0153 9.90039 77.7082 9.90039C78.4011 9.90039 78.9919 10.1356 79.4804 10.606C79.9765 11.069 80.2245 11.624 80.2245 12.2708C80.2245 12.9249 79.9765 13.4872 79.4804 13.9576C78.9919 14.4206 78.4011 14.6522 77.7082 14.6522ZM83.7609 33.7694V16.8351H88.2027V19.8229H88.3996C88.7498 18.8307 89.3332 18.0478 90.1501 17.4745C90.9671 16.9013 91.9444 16.6146 93.0821 16.6146C94.2345 16.6146 95.2156 16.905 96.0251 17.4855C96.8347 18.0589 97.3745 18.8379 97.6442 19.8229H97.8194C98.1621 18.8526 98.7821 18.0773 99.6792 17.4966C100.584 16.9087 101.652 16.6146 102.885 16.6146C104.453 16.6146 105.726 17.1181 106.703 18.125C107.688 19.1246 108.18 20.5431 108.18 22.3806V33.7694H103.53V23.3068C103.53 22.3659 103.282 21.6603 102.786 21.19C102.29 20.7196 101.67 20.4844 100.926 20.4844C100.08 20.4844 99.4203 20.7564 98.9461 21.3002C98.4721 21.8368 98.235 22.546 98.235 23.428V33.7694H93.7166V23.2075C93.7166 22.3771 93.4797 21.7154 93.0055 21.2231C92.5387 20.7306 91.9225 20.4844 91.1566 20.4844C90.6388 20.4844 90.172 20.6166 89.7562 20.8813C89.3478 21.1385 89.0232 21.5023 88.7826 21.9727C88.5418 22.4357 88.4215 22.9797 88.4215 23.6044V33.7694H83.7609ZM111.949 33.7694V11.1903H116.609V19.6795H116.752C116.956 19.2239 117.251 18.7609 117.638 18.2904C118.032 17.8126 118.542 17.4157 119.17 17.0997C119.804 16.7763 120.592 16.6146 121.533 16.6146C122.758 16.6146 123.888 16.938 124.924 17.5848C125.96 18.2242 126.788 19.1908 127.408 20.4844C128.028 21.7706 128.338 23.384 128.338 25.3244C128.338 27.2133 128.035 28.8082 127.43 30.1092C126.831 31.4028 126.015 32.384 124.979 33.0528C123.951 33.7143 122.798 34.0451 121.522 34.0451C120.617 34.0451 119.848 33.8944 119.213 33.5931C118.586 33.2917 118.072 32.9132 117.671 32.4575C117.27 31.9945 116.963 31.5277 116.752 31.0573H116.544V33.7694H111.949ZM116.511 25.3023C116.511 26.3092 116.65 27.1875 116.927 27.9372C117.204 28.687 117.605 29.2712 118.13 29.6902C118.655 30.1018 119.294 30.3077 120.045 30.3077C120.803 30.3077 121.445 30.0981 121.97 29.6791C122.495 29.2529 122.893 28.6649 123.163 27.9152C123.44 27.1582 123.579 26.2871 123.579 25.3023C123.579 24.3247 123.444 23.4648 123.174 22.7224C122.904 21.9801 122.506 21.3995 121.981 20.9805C121.456 20.5615 120.811 20.352 120.045 20.352C119.286 20.352 118.644 20.5542 118.119 20.9584C117.601 21.3627 117.204 21.936 116.927 22.6784C116.65 23.4206 116.511 24.2953 116.511 25.3023ZM142.224 26.5591V16.8351H146.884V33.7694H142.41V30.6935H142.235C141.855 31.6857 141.224 32.4833 140.342 33.0859C139.467 33.6887 138.398 33.99 137.136 33.99C136.013 33.99 135.025 33.7327 134.172 33.2182C133.318 32.7036 132.651 31.9724 132.169 31.0243C131.695 30.076 131.455 28.9406 131.447 27.6175V16.8351H136.108V26.7797C136.115 27.7792 136.382 28.5693 136.907 29.15C137.432 29.7307 138.136 30.0209 139.018 30.0209C139.58 30.0209 140.105 29.8924 140.593 29.6351C141.082 29.3705 141.476 28.9809 141.776 28.4664C142.082 27.952 142.232 27.3162 142.224 26.5591ZM164.594 21.664L160.328 21.9286C160.254 21.5612 160.098 21.2303 159.857 20.9364C159.616 20.635 159.3 20.3962 158.905 20.2197C158.519 20.0361 158.055 19.9442 157.516 19.9442C156.793 19.9442 156.185 20.0985 155.689 20.4072C155.193 20.7085 154.945 21.1128 154.945 21.62C154.945 22.0242 155.105 22.3659 155.426 22.6453C155.746 22.9245 156.298 23.1488 157.077 23.3177L160.119 23.9352C161.753 24.2733 162.971 24.8172 163.774 25.5668C164.575 26.3165 164.977 27.3015 164.977 28.5216C164.977 29.6314 164.653 30.6053 164.003 31.4431C163.362 32.2811 162.479 32.9352 161.356 33.4056C160.239 33.8687 158.953 34.1002 157.494 34.1002C155.27 34.1002 153.498 33.6335 152.177 32.6999C150.863 31.7592 150.094 30.4803 149.868 28.8634L154.452 28.6207C154.59 29.3043 154.927 29.8261 155.46 30.1863C155.992 30.5392 156.673 30.7155 157.505 30.7155C158.322 30.7155 158.978 30.5576 159.475 30.2414C159.978 29.918 160.232 29.5027 160.239 28.9956C160.232 28.5693 160.054 28.2203 159.704 27.9483C159.354 27.6689 158.814 27.4558 158.085 27.3088L155.174 26.7245C153.533 26.3937 152.312 25.8204 151.509 25.0045C150.715 24.1888 150.316 23.1488 150.316 21.8845C150.316 20.7967 150.609 19.8595 151.191 19.0731C151.783 18.2867 152.611 17.6804 153.676 17.254C154.748 16.8277 156.002 16.6146 157.439 16.6146C159.561 16.6146 161.232 17.0667 162.45 17.9707C163.675 18.8747 164.39 20.1059 164.594 21.664ZM175.129 33.7694V11.1903H179.866V20.5065H189.484V11.1903H194.209V33.7694H189.484V24.4424H179.866V33.7694H175.129ZM205.687 34.1002C203.957 34.1002 202.47 33.7473 201.223 33.0417C199.983 32.3288 199.027 31.3219 198.357 30.0209C197.685 28.7126 197.349 27.1654 197.349 25.3795C197.349 23.6374 197.685 22.1086 198.357 20.7931C199.027 19.4775 199.972 18.4521 201.189 17.7172C202.414 16.982 203.851 16.6146 205.5 16.6146C206.609 16.6146 207.641 16.7947 208.596 17.1548C209.559 17.5076 210.398 18.0405 211.112 18.7534C211.835 19.4663 212.396 20.363 212.798 21.4435C213.198 22.5167 213.399 23.7735 213.399 25.2141V26.504H199.21V23.5934H209.012C209.012 22.9171 208.867 22.3182 208.574 21.7964C208.283 21.2745 207.878 20.8665 207.361 20.5726C206.85 20.2713 206.255 20.1205 205.577 20.1205C204.869 20.1205 204.243 20.2859 203.695 20.6166C203.156 20.94 202.732 21.3774 202.426 21.9286C202.12 22.4725 201.963 23.0788 201.956 23.7477V26.515C201.956 27.3529 202.109 28.0769 202.414 28.687C202.729 29.297 203.17 29.7674 203.738 30.0981C204.307 30.4289 204.982 30.5943 205.763 30.5943C206.281 30.5943 206.755 30.5208 207.186 30.3738C207.615 30.2267 207.984 30.0062 208.29 29.7123C208.596 29.4183 208.83 29.0581 208.99 28.6318L213.301 28.9185C213.082 29.9622 212.633 30.8735 211.955 31.6527C211.284 32.4244 210.417 33.027 209.352 33.4607C208.293 33.887 207.072 34.1002 205.687 34.1002ZM221.233 34.0891C220.16 34.0891 219.204 33.9018 218.366 33.527C217.528 33.1447 216.863 32.5824 216.375 31.84C215.894 31.0904 215.653 30.1569 215.653 29.0397C215.653 28.0989 215.825 27.3088 216.167 26.6694C216.51 26.0299 216.976 25.5154 217.567 25.1259C218.159 24.7363 218.829 24.4424 219.581 24.2439C220.338 24.0455 221.134 23.9057 221.965 23.8249C222.943 23.7221 223.73 23.6265 224.328 23.5383C224.927 23.4427 225.361 23.3031 225.63 23.1193C225.901 22.9355 226.036 22.6637 226.036 22.3035V22.2373C226.036 21.5391 225.817 20.9988 225.379 20.6166C224.949 20.2345 224.336 20.0433 223.542 20.0433C222.702 20.0433 222.034 20.2308 221.538 20.6056C221.043 20.9732 220.715 21.4362 220.555 21.9948L216.244 21.6419C216.463 20.613 216.892 19.7236 217.535 18.974C218.176 18.2169 219.004 17.6362 220.018 17.2321C221.04 16.8203 222.221 16.6146 223.562 16.6146C224.496 16.6146 225.39 16.7249 226.243 16.9454C227.104 17.1658 227.866 17.5076 228.53 17.9707C229.201 18.4338 229.729 19.0291 230.116 19.7567C230.503 20.477 230.695 21.3406 230.695 22.3476V33.7694H226.276V31.4212H226.145C225.874 31.9503 225.514 32.417 225.062 32.8213C224.609 33.2182 224.067 33.5305 223.431 33.7585C222.797 33.9789 222.064 34.0891 221.233 34.0891ZM222.567 30.8477C223.253 30.8477 223.858 30.7118 224.383 30.4399C224.908 30.1606 225.321 29.7858 225.62 29.3154C225.918 28.845 226.068 28.312 226.068 27.7168V25.9197C225.923 26.0152 225.721 26.1034 225.467 26.1843C225.218 26.2578 224.937 26.3276 224.624 26.3937C224.311 26.4526 223.996 26.5077 223.683 26.5591C223.37 26.6033 223.086 26.6436 222.83 26.6804C222.283 26.7613 221.805 26.8899 221.397 27.0663C220.988 27.2427 220.671 27.4816 220.444 27.7829C220.219 28.0769 220.106 28.4444 220.106 28.8854C220.106 29.5248 220.335 30.0136 220.794 30.3517C221.262 30.6825 221.852 30.8477 222.567 30.8477ZM238.973 11.1903V33.7694H234.312V11.1903H238.973ZM251.645 16.8351V20.363H241.524V16.8351H251.645ZM243.822 12.7779H248.482V28.5656C248.482 28.9993 248.549 29.3373 248.68 29.58C248.81 29.8152 248.993 29.9806 249.227 30.076C249.466 30.1716 249.744 30.2193 250.058 30.2193C250.277 30.2193 250.496 30.201 250.714 30.1642C250.933 30.1202 251.1 30.0871 251.218 30.065L251.95 33.56C251.717 33.6335 251.389 33.718 250.965 33.8136C250.543 33.9165 250.028 33.9789 249.424 34.0009C248.3 34.0451 247.315 33.8944 246.469 33.5489C245.631 33.2036 244.978 32.6669 244.511 31.9393C244.044 31.2116 243.814 30.2928 243.822 29.183V12.7779ZM259.701 23.9792V33.7694H255.04V11.1903H259.57V19.8229H259.767C260.147 18.8232 260.759 18.0405 261.606 17.4745C262.452 16.9013 263.512 16.6146 264.789 16.6146C265.956 16.6146 266.974 16.8719 267.842 17.3863C268.717 17.8935 269.395 18.6248 269.876 19.5803C270.366 20.5284 270.605 21.664 270.598 22.9871V33.7694H265.937V23.8249C265.945 22.7812 265.683 21.969 265.15 21.3883C264.625 20.8078 263.888 20.5174 262.94 20.5174C262.306 20.5174 261.744 20.6534 261.256 20.9253C260.773 21.1973 260.394 21.5942 260.118 22.1161C259.847 22.6305 259.709 23.2516 259.701 23.9792Z" fill="#2A2114"/>
<path d="M15.7674 35.9298H17.2324C17.5782 35.9298 18.2578 35.7441 18.209 35.0014C18.1923 34.7481 18.1666 34.4857 18.1404 34.219C18.0707 33.5082 17.9981 32.7676 18.0869 32.0926C18.1097 31.9195 18.1367 31.6667 18.1687 31.3669C18.3085 30.0587 18.5442 27.8536 18.9414 27.4508C19.4297 26.9556 19.6739 27.884 19.9181 28.8124C19.9904 29.0874 20.0734 29.4819 20.164 29.9122C20.3792 30.9345 20.6369 32.159 20.8947 32.4639C21.2609 32.8971 21.8102 33.3304 22.7869 33.3304C23.7635 33.3304 27.5479 32.4639 29.8063 26.6462C32.0608 20.8385 32.4905 12.9956 32.5527 11.8601L32.553 11.8543C32.5697 11.5505 32.6181 11.0764 32.6772 10.4972C32.835 8.9527 33.0691 6.66101 32.9803 4.86066C32.8582 2.38503 31.8206 0.961543 30.0504 0.280743C28.2803 -0.400054 26.9985 0.218854 25.4726 1.51856C25.1135 1.8244 24.6733 2.19536 24.2036 2.59112C22.6776 3.87714 20.8408 5.42497 20.4674 5.85091C20.3752 5.95603 20.2766 6.04571 20.1779 6.13536C19.7539 6.52076 19.3307 6.90546 19.4297 8.51221C19.5518 10.4927 19.3687 20.9522 19.3077 22.0663C19.3076 23.6386 18.0506 24.9131 16.4999 24.9131C14.9492 24.9131 13.6922 23.6386 13.6921 22.0663C13.6311 20.9522 13.448 10.4927 13.5701 8.51221C13.6691 6.90546 13.2459 6.52076 12.8219 6.13536C12.7232 6.04571 12.6245 5.95603 12.5324 5.85091C12.159 5.42497 10.3222 3.87714 8.79616 2.59112C8.32659 2.19541 7.88629 1.82437 7.52724 1.51856C6.00128 0.218854 4.71947 -0.400054 2.94935 0.280743C1.17924 0.961543 0.141587 2.38503 0.0195097 4.86066C-0.0692684 6.66101 0.164765 8.95234 0.32252 10.4969C0.38169 11.0762 0.43013 11.5504 0.446779 11.8543L0.447098 11.8601C0.509296 12.9954 0.93898 20.8385 3.19351 26.6462C5.45194 32.4639 9.23632 33.3304 10.2129 33.3304C11.1896 33.3304 11.7389 32.8971 12.1051 32.4639C12.3629 32.159 12.6206 30.9346 12.8358 29.9123C12.9264 29.4819 13.0094 29.0874 13.0817 28.8124C13.3259 27.884 13.5701 26.9556 14.0584 27.4508C14.4556 27.8536 14.6913 30.0587 14.8311 31.3669C14.8631 31.6667 14.8901 31.9195 14.9129 32.0926C15.0017 32.7676 14.9291 33.5082 14.8594 34.219C14.8332 34.4857 14.8075 34.7481 14.7908 35.0014C14.742 35.7441 15.4215 35.9298 15.7674 35.9298Z" fill="#2A2114"/>
<path d="M19.3076 35.5587V27.1415L19.1302 23.0647C19.245 22.7541 19.3077 22.4177 19.3077 22.0665C19.3077 20.4941 18.0506 19.2195 16.4999 19.2195C14.9492 19.2195 13.6922 20.4941 13.6922 22.0665C13.6922 22.4176 13.7549 22.754 13.8695 23.0645L13.6922 27.1415V35.5586C13.6922 36.5488 13.2038 38.0961 11.5558 39.1483C9.90777 40.2004 6.97792 42.8617 6.67273 43.1712C6.36754 43.4806 4.23119 44.7184 2.15588 43.4187C0.080575 42.119 -0.0415019 39.3339 0.0805751 36.8583C0.202652 34.3826 0.751997 27.2033 1.11823 25.6561C1.48446 24.1088 3.31561 16.8676 3.86496 16.3106C4.30444 15.865 10.3554 16.1249 13.3259 16.3106C13.3259 16.4756 13.4358 16.7933 13.8753 16.7438C14.4246 16.6819 15.096 13.0922 14.974 11.1736C14.9529 10.8419 14.9263 10.5323 14.9018 10.2472C14.7847 8.88353 14.7156 8.0791 15.5233 8.0791L17.4765 8.07916C18.2842 8.07916 18.2151 8.88353 18.098 10.2472C18.0735 10.5323 18.0469 10.8419 18.0258 11.1737C17.9037 13.0923 18.5752 16.682 19.1245 16.7439C19.564 16.7934 19.6739 16.4757 19.6739 16.3106C22.6444 16.1249 28.6953 15.865 29.1348 16.3106C29.6842 16.8676 31.5153 24.1088 31.8816 25.6561C32.2478 27.2034 32.7971 34.3827 32.9192 36.8583C33.0413 39.334 32.9192 42.1191 30.8439 43.4188C28.7686 44.7185 26.6322 43.4807 26.3271 43.1712C26.0219 42.8618 23.092 40.2005 21.444 39.1483C19.7959 38.0962 19.3076 36.5489 19.3076 35.5587Z" fill="#CEC6B4"/>
</svg>
