<svg width="149" height="36" viewBox="0 0 149 36" fill="none" xmlns="http://www.w3.org/2000/svg">
<path d="M73.3676 30.455L73.4299 30.8659H69.5851L69.6489 30.4536C69.6518 30.4364 69.9071 28.7803 69.9071 27.671V8.98547C69.9071 7.28926 69.6794 5.81063 69.6765 5.79488L69.6228 5.45421L73.1021 4.79004V27.6552C73.1021 28.7116 73.3618 30.4379 73.3647 30.455H73.3676ZM109.443 27.5922V11.4632L105.966 12.1761L106.013 12.5067C106.016 12.5239 106.246 14.2015 106.246 15.5713V27.6094C106.246 28.7531 105.978 30.435 105.975 30.4522L105.908 30.8659H109.785L109.717 30.4508C109.714 30.4336 109.443 28.7603 109.443 27.5922ZM129.233 16.7036C129.998 18.1464 130.387 19.7854 130.387 21.5746C130.387 23.3639 129.987 25.0515 129.196 26.5173C128.428 27.9644 127.341 29.1195 125.968 29.9526C124.593 30.7857 123.019 31.208 121.288 31.208C119.556 31.208 117.982 30.7857 116.608 29.9526C115.234 29.121 114.148 27.9644 113.378 26.5158C112.61 25.0486 112.222 23.3868 112.222 21.5746C112.222 19.7625 112.61 18.1092 113.378 16.6678C114.148 15.2192 115.234 14.0626 116.608 13.231C117.982 12.3979 119.556 11.9757 121.288 11.9757C123.019 11.9757 124.593 12.3979 125.968 13.231C127.363 14.0612 128.462 15.2307 129.233 16.7036ZM126.213 17.7371C125.73 16.6306 125.045 15.7689 124.178 15.1691C123.333 14.5493 122.375 14.2373 121.323 14.2373C120.27 14.2373 119.263 14.5493 118.403 15.1648C117.553 15.7674 116.867 16.632 116.362 17.7356C115.877 18.8478 115.629 20.1404 115.629 21.5732C115.629 23.006 115.877 24.3115 116.365 25.4523C116.867 26.5516 117.555 27.4291 118.406 28.0532C119.259 28.6429 120.243 28.9449 121.323 28.9449C122.402 28.9449 123.333 28.6329 124.169 28.0188C125.044 27.3933 125.729 26.5187 126.212 25.4165L126.214 25.4108C126.725 24.2943 126.983 23.0032 126.983 21.5732C126.983 20.1432 126.725 18.8507 126.214 17.7356L126.213 17.7371ZM144.854 30.4536L144.79 30.8659H148.645L148.58 30.4536C148.577 30.4364 148.313 28.756 148.313 27.6352V18.3812C148.313 17.0657 148.039 15.9192 147.502 14.9787C146.96 14.004 146.183 13.251 145.199 12.74C144.245 12.2333 143.132 11.9757 141.894 11.9757C140.503 11.9757 139.238 12.355 138.138 13.1036C137.418 13.5932 136.805 14.2058 136.304 14.9344V12.0701L132.726 12.7687L132.79 13.1151C132.793 13.1322 133.108 14.8456 133.108 16.1983V27.6624C133.108 28.7059 132.85 30.4364 132.847 30.4536L132.786 30.8644H136.631L136.565 30.4522C136.563 30.435 136.304 28.7846 136.304 27.6581V20.5125C136.304 19.2644 136.621 18.0792 137.218 17.0829C137.264 17.007 137.311 16.9312 137.356 16.8639C137.855 16.1353 138.458 15.5713 139.147 15.1892C139.832 14.8098 140.58 14.6166 141.37 14.6166C142.117 14.6166 142.783 14.7755 143.362 15.0918C143.921 15.3781 144.336 15.809 144.634 16.4159C144.953 17.0256 145.115 17.7914 145.115 18.6904V27.6495C145.115 28.7345 144.854 30.4379 144.851 30.455L144.854 30.4536ZM107.675 5.76196C106.473 5.76196 105.495 6.72672 105.495 7.91335C105.495 9.09999 106.473 10.0647 107.675 10.0647C108.877 10.0647 109.855 9.09999 109.855 7.91335C109.855 6.72672 108.877 5.76196 107.675 5.76196ZM103.426 12.3536L103.381 12.1188L103.144 12.0701C102.847 12.0086 102.483 11.9771 102.059 11.9771C101.114 11.9771 100.242 12.2147 99.4632 12.6856C98.7221 13.1494 98.0854 13.8136 97.5735 14.6552C97.5299 14.7254 97.4864 14.797 97.4444 14.87V12.0716L93.8809 12.7715L93.9404 13.1151C93.9433 13.1322 94.2479 14.9143 94.2479 16.1568V27.5937C94.2479 28.7746 93.9752 30.435 93.9738 30.4522L93.9056 30.8673H97.7736L97.7083 30.4536C97.7054 30.4364 97.4458 28.7803 97.4458 27.6524V20.6829C97.4458 19.4962 97.7272 18.3511 98.2609 17.372L98.274 17.3477C98.7004 16.5476 99.3153 15.9292 100.103 15.5069C101.27 14.9501 102.404 15.182 103.263 15.4482L103.761 15.6014L103.733 15.0875C103.652 13.5488 103.436 12.4037 103.426 12.355V12.3536ZM64.9571 22.2059C64.4017 24.2685 63.427 25.8202 62.0637 26.8193C60.6961 27.8213 58.9412 28.3294 56.8498 28.3294C55.2501 28.3294 53.7302 27.9286 52.3321 27.1414C50.9586 26.3541 49.8332 25.176 48.9876 23.6387C48.1392 22.0957 47.7084 20.2005 47.7084 18.0033C47.7084 15.8061 48.1058 13.8766 48.889 12.2891C49.6896 10.7103 50.7904 9.49935 52.1653 8.68917C53.5387 7.85753 55.1268 7.4367 56.8832 7.4367C58.5438 7.4367 60.0086 7.96202 61.24 9.00122C62.4466 10.0032 63.2356 11.3086 63.5851 12.8817L63.6576 13.2081L66.8672 12.7329L66.7787 12.3564C66.6294 11.7194 66.4568 11.1769 66.2682 10.759C65.7954 9.59525 65.0993 8.57037 64.1972 7.71439C63.2965 6.85841 62.2015 6.19711 60.9528 5.74908C59.7229 5.27672 58.3538 5.03767 56.8832 5.03767C54.7004 5.03767 52.6062 5.5358 50.6627 6.51917C48.7309 7.48393 47.1355 8.97402 45.9216 10.9479C44.7324 12.8961 44.129 15.3051 44.129 18.1064C44.129 20.9076 44.7077 23.288 45.8491 25.2605C47.0152 27.2344 48.5757 28.7359 50.4858 29.7265C52.4089 30.7113 54.5264 31.2094 56.7788 31.2094C58.5177 31.2094 60.1377 30.8744 61.5982 30.2131C63.0601 29.5275 64.2987 28.5327 65.282 27.2544C66.2639 25.9776 66.9194 24.4346 67.2298 22.6682L67.2907 22.3247L65.0441 21.881L64.9571 22.2059ZM91.2268 30.4508L91.295 30.8659H87.7258V28.2221C87.2617 28.8934 86.7105 29.4674 86.0782 29.9354C84.9281 30.7814 83.5314 31.2094 81.9274 31.2094C80.7657 31.2094 79.72 31.0018 78.8179 30.5925C77.9201 30.1745 77.2153 29.5762 76.7149 28.8118C76.2131 28.0202 75.9607 27.1127 75.9607 26.1093C75.9607 25.0358 76.2145 24.1039 76.7149 23.3381C77.237 22.5537 77.9854 21.9124 78.9426 21.4272C79.8679 20.9348 81.0369 20.5426 82.4103 20.262L87.7606 19.2186V18.2409C87.7606 17.3678 87.588 16.6163 87.2486 16.0094L87.2413 15.9965C86.9266 15.3752 86.4901 14.9329 85.9071 14.6452L85.8926 14.6381C85.324 14.326 84.6453 14.1671 83.8752 14.1671C83.0572 14.1671 82.319 14.3375 81.6794 14.6753C81.0659 14.9888 80.5641 15.464 80.1841 16.0895C79.8665 16.6435 79.6765 17.3219 79.6228 18.0992L79.5967 18.4828L76.3335 18.0305L76.3799 17.6784C76.5264 16.569 76.9237 15.5756 77.5619 14.7283C78.2261 13.878 79.1036 13.2067 80.1739 12.7257C81.2588 12.2262 82.5162 11.9728 83.9085 11.9728C85.3008 11.9728 86.5409 12.2276 87.5836 12.73C88.6656 13.2396 89.5039 14.0068 90.0724 15.0059C90.6554 15.965 90.9542 17.1373 90.9542 18.4785V27.6094C90.9542 28.7789 91.221 30.4293 91.2239 30.445L91.2268 30.4508ZM83.3211 22.2359C81.9854 22.5394 80.9644 23.006 80.2943 23.6244C79.6446 24.2041 79.3298 24.9484 79.3298 25.9046C79.3298 26.7678 79.6083 27.4334 80.1826 27.9386C80.7613 28.4482 81.5691 28.7073 82.5873 28.7073C83.5184 28.7073 84.3596 28.5026 85.0905 28.1004C85.8171 27.6781 86.419 27.0941 86.873 26.3698L86.8875 26.3484C87.4342 25.4824 87.7243 24.4546 87.7243 23.3753V21.3628L83.3197 22.2388L83.3211 22.2359Z" fill="#2A2114"/>
<path d="M29.0228 0C27.0485 0 25.2666 2.11652 23.9982 5.51798C22.133 10.2849 20.7595 16.6482 17.828 16.6482C14.8965 16.6482 13.8792 12.5626 12.0319 9.40419C10.7607 7.01047 8.96518 5.51798 6.97444 5.51798C3.12266 5.51798 0 11.107 0 18C0 24.893 3.12266 30.4834 6.9758 30.4834C8.96655 30.4834 10.762 28.9909 12.0332 26.5972C13.8806 23.4388 15.0016 19.3532 17.8293 19.3532C20.6571 19.3532 22.1344 25.7164 23.9995 30.4834C25.268 33.8835 27.0512 36 29.0242 36C32.876 36 36 27.9408 36 18C36 8.05917 32.876 0 29.0228 0Z" fill="#2A2114"/>
</svg>
