<svg width="36" height="36" viewBox="0 0 36 36" fill="none" xmlns="http://www.w3.org/2000/svg">
<path d="M12 2.99219V8.99219M24 2.99219V8.99219M4.5 14.3922H31.5M12 20.9922H12.015M12 26.9922H12.015M31.5 20.0547V8.99219C31.5 7.33533 30.1569 5.99219 28.5 5.99219H7.5C5.84315 5.99219 4.5 7.33533 4.5 8.99219V29.9922C4.5 31.649 5.84315 32.9922 7.5 32.9922H21.8552M23.4 26.0922L25.2 27.8922L28.8 24.2922M34.2 26.0922C34.2 30.5657 30.5735 34.1922 26.1 34.1922C21.6265 34.1922 18 30.5657 18 26.0922C18 21.6187 21.6265 17.9922 26.1 17.9922C30.5735 17.9922 34.2 21.6187 34.2 26.0922Z" stroke="#2A2114" stroke-width="2.7" stroke-linecap="round" stroke-linejoin="round"/>
</svg>
