<svg width="408" height="268" viewBox="0 0 408 268" fill="none" xmlns="http://www.w3.org/2000/svg">
<g clip-path="url(#clip0_587_7750)">
<rect width="408" height="268" rx="16" fill="#EEECE3"/>
<path d="M12 -106V374" stroke="#684B00" stroke-opacity="0.24" stroke-width="2" stroke-linecap="round" stroke-dasharray="0.08 24"/>
<path d="M36 -106V374" stroke="#684B00" stroke-opacity="0.24" stroke-width="2" stroke-linecap="round" stroke-dasharray="0.08 24"/>
<path d="M60 -106V374" stroke="#684B00" stroke-opacity="0.24" stroke-width="2" stroke-linecap="round" stroke-dasharray="0.08 24"/>
<path d="M84 -106V374" stroke="#684B00" stroke-opacity="0.24" stroke-width="2" stroke-linecap="round" stroke-dasharray="0.08 24"/>
<path d="M108 -106V374" stroke="#684B00" stroke-opacity="0.24" stroke-width="2" stroke-linecap="round" stroke-dasharray="0.08 24"/>
<path d="M132 -106V374" stroke="#684B00" stroke-opacity="0.24" stroke-width="2" stroke-linecap="round" stroke-dasharray="0.08 24"/>
<path d="M156 -106V374" stroke="#684B00" stroke-opacity="0.24" stroke-width="2" stroke-linecap="round" stroke-dasharray="0.08 24"/>
<path d="M180 -106V374" stroke="#684B00" stroke-opacity="0.24" stroke-width="2" stroke-linecap="round" stroke-dasharray="0.08 24"/>
<path d="M204 -106V374" stroke="#684B00" stroke-opacity="0.24" stroke-width="2" stroke-linecap="round" stroke-dasharray="0.08 24"/>
<path d="M228 -106V374" stroke="#684B00" stroke-opacity="0.24" stroke-width="2" stroke-linecap="round" stroke-dasharray="0.08 24"/>
<path d="M252 -106V374" stroke="#684B00" stroke-opacity="0.24" stroke-width="2" stroke-linecap="round" stroke-dasharray="0.08 24"/>
<path d="M276 -106V374" stroke="#684B00" stroke-opacity="0.24" stroke-width="2" stroke-linecap="round" stroke-dasharray="0.08 24"/>
<path d="M300 -106V374" stroke="#684B00" stroke-opacity="0.24" stroke-width="2" stroke-linecap="round" stroke-dasharray="0.08 24"/>
<path d="M324 -106V374" stroke="#684B00" stroke-opacity="0.24" stroke-width="2" stroke-linecap="round" stroke-dasharray="0.08 24"/>
<path d="M348 -106V374" stroke="#684B00" stroke-opacity="0.24" stroke-width="2" stroke-linecap="round" stroke-dasharray="0.08 24"/>
<path d="M372 -106V374" stroke="#684B00" stroke-opacity="0.24" stroke-width="2" stroke-linecap="round" stroke-dasharray="0.08 24"/>
<path d="M396 -106V374" stroke="#684B00" stroke-opacity="0.24" stroke-width="2" stroke-linecap="round" stroke-dasharray="0.08 24"/>
<path d="M60 0L60 54C60 58.4183 63.5817 62 68 62L92 62" stroke="#CEC9B8" stroke-width="2" stroke-linecap="round"/>
<path d="M60 0L60 126C60 130.418 63.5817 134 68 134L92 134" stroke="#CEC9B8" stroke-width="2" stroke-linecap="round"/>
<path d="M60 0L60 198C60 202.418 63.5817 206 68 206L92 206" stroke="#CEC9B8" stroke-width="2" stroke-linecap="round"/>
<rect x="91" y="36" width="166" height="53" rx="12" fill="#FDFCFB"/>
<rect x="99" y="45.5" width="34" height="34" rx="8" fill="#CEC9B8"/>
<path d="M110 70C110 66.134 112.686 63 116 63C119.314 63 122 66.134 122 70M119 57C119 58.6569 117.657 60 116 60C114.343 60 113 58.6569 113 57C113 55.3431 114.343 54 116 54C117.657 54 119 55.3431 119 57Z" stroke="#2A2114" stroke-width="1.5" stroke-linecap="round"/>
<path d="M147.563 55V48.114H145.132V47.19H150.94V48.114H148.509V55H147.563ZM151.291 55V49.17H152.105L152.149 50.644L152.061 50.611C152.135 50.1123 152.292 49.7493 152.534 49.522C152.784 49.2873 153.114 49.17 153.524 49.17H154.096V50.05H153.535C153.242 50.05 152.996 50.105 152.798 50.215C152.608 50.3177 152.461 50.4753 152.358 50.688C152.263 50.8933 152.215 51.1573 152.215 51.48V55H151.291ZM155.016 55V49.17H155.94V55H155.016ZM154.994 48.257V47.179H155.962V48.257H154.994ZM159.696 56.782C159.278 56.782 158.9 56.7123 158.563 56.573C158.225 56.4337 157.943 56.2357 157.716 55.979C157.488 55.7223 157.334 55.4253 157.254 55.088L158.222 55.022C158.31 55.2933 158.464 55.506 158.684 55.66C158.911 55.8213 159.248 55.902 159.696 55.902C160.224 55.902 160.627 55.7957 160.906 55.583C161.192 55.3703 161.335 55.0513 161.335 54.626V53.68C161.195 53.988 160.972 54.2337 160.664 54.417C160.356 54.6003 160.011 54.692 159.63 54.692C159.138 54.692 158.698 54.571 158.31 54.329C157.928 54.087 157.628 53.7533 157.408 53.328C157.195 52.9027 157.089 52.415 157.089 51.865C157.089 51.3077 157.195 50.82 157.408 50.402C157.62 49.9767 157.914 49.643 158.288 49.401C158.669 49.159 159.102 49.038 159.586 49.038C159.996 49.038 160.363 49.1333 160.686 49.324C161.016 49.5147 161.247 49.7713 161.379 50.094V49.17H162.259V54.604C162.259 55.0587 162.156 55.4473 161.951 55.77C161.745 56.1 161.452 56.3493 161.071 56.518C160.689 56.694 160.231 56.782 159.696 56.782ZM159.674 53.812C160.172 53.812 160.572 53.6397 160.873 53.295C161.173 52.943 161.327 52.4663 161.335 51.865C161.342 51.4617 161.276 51.117 161.137 50.831C161.005 50.5377 160.81 50.314 160.554 50.16C160.304 49.9987 160.011 49.918 159.674 49.918C159.16 49.918 158.761 50.094 158.475 50.446C158.196 50.7907 158.057 51.2637 158.057 51.865C158.057 52.4663 158.2 52.943 158.486 53.295C158.779 53.6397 159.175 53.812 159.674 53.812ZM166.009 56.782C165.591 56.782 165.214 56.7123 164.876 56.573C164.539 56.4337 164.257 56.2357 164.029 55.979C163.802 55.7223 163.648 55.4253 163.567 55.088L164.535 55.022C164.623 55.2933 164.777 55.506 164.997 55.66C165.225 55.8213 165.562 55.902 166.009 55.902C166.537 55.902 166.941 55.7957 167.219 55.583C167.505 55.3703 167.648 55.0513 167.648 54.626V53.68C167.509 53.988 167.285 54.2337 166.977 54.417C166.669 54.6003 166.325 54.692 165.943 54.692C165.452 54.692 165.012 54.571 164.623 54.329C164.242 54.087 163.941 53.7533 163.721 53.328C163.509 52.9027 163.402 52.415 163.402 51.865C163.402 51.3077 163.509 50.82 163.721 50.402C163.934 49.9767 164.227 49.643 164.601 49.401C164.983 49.159 165.415 49.038 165.899 49.038C166.31 49.038 166.677 49.1333 166.999 49.324C167.329 49.5147 167.56 49.7713 167.692 50.094V49.17H168.572V54.604C168.572 55.0587 168.47 55.4473 168.264 55.77C168.059 56.1 167.766 56.3493 167.384 56.518C167.003 56.694 166.545 56.782 166.009 56.782ZM165.987 53.812C166.486 53.812 166.886 53.6397 167.186 53.295C167.487 52.943 167.641 52.4663 167.648 51.865C167.656 51.4617 167.59 51.117 167.45 50.831C167.318 50.5377 167.124 50.314 166.867 50.16C166.618 49.9987 166.325 49.918 165.987 49.918C165.474 49.918 165.074 50.094 164.788 50.446C164.51 50.7907 164.37 51.2637 164.37 51.865C164.37 52.4663 164.513 52.943 164.799 53.295C165.093 53.6397 165.489 53.812 165.987 53.812ZM172.389 55.132C171.839 55.132 171.363 55.0073 170.959 54.758C170.563 54.5087 170.255 54.1567 170.035 53.702C169.823 53.24 169.716 52.701 169.716 52.085C169.716 51.469 169.823 50.9337 170.035 50.479C170.255 50.0243 170.56 49.6723 170.948 49.423C171.344 49.1663 171.81 49.038 172.345 49.038C172.851 49.038 173.299 49.159 173.687 49.401C174.076 49.6357 174.377 49.9803 174.589 50.435C174.809 50.8897 174.919 51.4433 174.919 52.096V52.371H170.684C170.721 52.9943 170.886 53.4637 171.179 53.779C171.48 54.0943 171.883 54.252 172.389 54.252C172.771 54.252 173.082 54.164 173.324 53.988C173.574 53.8047 173.746 53.5663 173.841 53.273L174.831 53.35C174.677 53.8707 174.384 54.2997 173.951 54.637C173.526 54.967 173.005 55.132 172.389 55.132ZM170.684 51.557H173.907C173.863 50.9923 173.698 50.578 173.412 50.314C173.134 50.05 172.778 49.918 172.345 49.918C171.898 49.918 171.528 50.0573 171.234 50.336C170.948 50.6073 170.765 51.0143 170.684 51.557ZM176.061 55V49.17H176.875L176.919 50.644L176.831 50.611C176.904 50.1123 177.062 49.7493 177.304 49.522C177.553 49.2873 177.883 49.17 178.294 49.17H178.866V50.05H178.305C178.011 50.05 177.766 50.105 177.568 50.215C177.377 50.3177 177.23 50.4753 177.128 50.688C177.032 50.8933 176.985 51.1573 176.985 51.48V55H176.061Z" fill="#4F4636"/>
<path d="M146.472 76V64.64H147.848V76H146.472ZM150.589 76V67.52H151.821L151.869 69.68L151.709 69.536C151.815 69.0347 152.002 68.624 152.269 68.304C152.535 67.9733 152.855 67.728 153.229 67.568C153.613 67.408 154.023 67.328 154.461 67.328C155.111 67.328 155.645 67.472 156.061 67.76C156.487 68.048 156.802 68.4373 157.005 68.928C157.218 69.408 157.325 69.9467 157.325 70.544V76H155.981V70.928C155.981 70.4053 155.917 69.968 155.789 69.616C155.671 69.2533 155.479 68.9813 155.213 68.8C154.946 68.608 154.599 68.512 154.173 68.512C153.522 68.512 152.983 68.72 152.557 69.136C152.141 69.5413 151.933 70.1387 151.933 70.928V76H150.589ZM162.85 76.192C162.061 76.192 161.373 76.0107 160.786 75.648C160.21 75.2853 159.762 74.7733 159.442 74.112C159.122 73.44 158.962 72.656 158.962 71.76C158.962 70.864 159.122 70.0853 159.442 69.424C159.762 68.7627 160.21 68.2507 160.786 67.888C161.373 67.5147 162.061 67.328 162.85 67.328C163.501 67.328 164.077 67.4453 164.578 67.68C165.09 67.904 165.506 68.2347 165.826 68.672C166.146 69.1093 166.354 69.6427 166.45 70.272L165.042 70.368C164.946 69.8027 164.701 69.3707 164.306 69.072C163.911 68.7627 163.426 68.608 162.85 68.608C162.071 68.608 161.463 68.8907 161.026 69.456C160.589 70.0107 160.37 70.7787 160.37 71.76C160.37 72.7413 160.589 73.5147 161.026 74.08C161.463 74.6347 162.071 74.912 162.85 74.912C163.426 74.912 163.911 74.752 164.306 74.432C164.701 74.112 164.946 73.632 165.042 72.992L166.45 73.088C166.354 73.7173 166.146 74.2667 165.826 74.736C165.506 75.1947 165.09 75.552 164.578 75.808C164.077 76.064 163.501 76.192 162.85 76.192ZM171.268 76.192C170.49 76.192 169.807 76.0107 169.22 75.648C168.634 75.2853 168.18 74.7733 167.86 74.112C167.54 73.44 167.38 72.656 167.38 71.76C167.38 70.8533 167.54 70.0693 167.86 69.408C168.18 68.7467 168.634 68.2347 169.22 67.872C169.807 67.5093 170.49 67.328 171.268 67.328C172.047 67.328 172.724 67.5093 173.3 67.872C173.887 68.2347 174.34 68.7467 174.66 69.408C174.98 70.0693 175.14 70.8533 175.14 71.76C175.14 72.656 174.98 73.44 174.66 74.112C174.34 74.7733 173.887 75.2853 173.3 75.648C172.724 76.0107 172.047 76.192 171.268 76.192ZM171.268 74.912C172.047 74.912 172.65 74.6347 173.076 74.08C173.514 73.5147 173.732 72.7413 173.732 71.76C173.732 70.7787 173.514 70.0107 173.076 69.456C172.65 68.8907 172.047 68.608 171.268 68.608C170.49 68.608 169.882 68.8907 169.444 69.456C169.007 70.0107 168.788 70.7787 168.788 71.76C168.788 72.7413 169.007 73.5147 169.444 74.08C169.882 74.6347 170.49 74.912 171.268 74.912ZM176.812 76V67.52H178.044L178.092 69.664L177.9 69.6C177.996 69.1307 178.161 68.7307 178.396 68.4C178.641 68.0587 178.94 67.7973 179.292 67.616C179.644 67.424 180.033 67.328 180.46 67.328C181.196 67.328 181.793 67.5307 182.252 67.936C182.721 68.3413 183.015 68.9067 183.132 69.632L182.876 69.616C182.961 69.1253 183.116 68.7147 183.34 68.384C183.575 68.0427 183.873 67.7813 184.236 67.6C184.599 67.4187 185.015 67.328 185.484 67.328C186.092 67.328 186.604 67.456 187.02 67.712C187.436 67.9573 187.751 68.32 187.964 68.8C188.177 69.28 188.284 69.8613 188.284 70.544V76H186.94V70.832C186.94 70.064 186.791 69.488 186.492 69.104C186.193 68.7093 185.751 68.512 185.164 68.512C184.769 68.512 184.423 68.608 184.124 68.8C183.836 68.992 183.612 69.2693 183.452 69.632C183.292 69.984 183.212 70.416 183.212 70.928V76H181.868V70.928C181.868 70.1707 181.735 69.5787 181.468 69.152C181.201 68.7253 180.753 68.512 180.124 68.512C179.729 68.512 179.383 68.608 179.084 68.8C178.796 68.992 178.567 69.2693 178.396 69.632C178.236 69.9947 178.156 70.4267 178.156 70.928V76H176.812ZM190.527 76V67.52H191.871V76H190.527ZM190.495 66.192V64.624H191.903V66.192H190.495ZM194.429 76V67.52H195.661L195.709 69.68L195.549 69.536C195.656 69.0347 195.843 68.624 196.109 68.304C196.376 67.9733 196.696 67.728 197.069 67.568C197.453 67.408 197.864 67.328 198.301 67.328C198.952 67.328 199.485 67.472 199.901 67.76C200.328 68.048 200.643 68.4373 200.845 68.928C201.059 69.408 201.165 69.9467 201.165 70.544V76H199.821V70.928C199.821 70.4053 199.757 69.968 199.629 69.616C199.512 69.2533 199.32 68.9813 199.053 68.8C198.787 68.608 198.44 68.512 198.013 68.512C197.363 68.512 196.824 68.72 196.397 69.136C195.981 69.5413 195.773 70.1387 195.773 70.928V76H194.429ZM206.595 78.592C205.987 78.592 205.437 78.4907 204.947 78.288C204.456 78.0853 204.045 77.7973 203.715 77.424C203.384 77.0507 203.16 76.6187 203.043 76.128L204.451 76.032C204.579 76.4267 204.803 76.736 205.123 76.96C205.453 77.1947 205.944 77.312 206.595 77.312C207.363 77.312 207.949 77.1573 208.355 76.848C208.771 76.5387 208.979 76.0747 208.979 75.456V74.08C208.776 74.528 208.451 74.8853 208.003 75.152C207.555 75.4187 207.053 75.552 206.499 75.552C205.784 75.552 205.144 75.376 204.579 75.024C204.024 74.672 203.587 74.1867 203.267 73.568C202.957 72.9493 202.803 72.24 202.803 71.44C202.803 70.6293 202.957 69.92 203.267 69.312C203.576 68.6933 204.003 68.208 204.547 67.856C205.101 67.504 205.731 67.328 206.435 67.328C207.032 67.328 207.565 67.4667 208.035 67.744C208.515 68.0213 208.851 68.3947 209.043 68.864V67.52H210.323V75.424C210.323 76.0853 210.173 76.6507 209.875 77.12C209.576 77.6 209.149 77.9627 208.595 78.208C208.04 78.464 207.373 78.592 206.595 78.592ZM206.563 74.272C207.288 74.272 207.869 74.0213 208.307 73.52C208.744 73.008 208.968 72.3147 208.979 71.44C208.989 70.8533 208.893 70.352 208.691 69.936C208.499 69.5093 208.216 69.184 207.843 68.96C207.48 68.7253 207.053 68.608 206.563 68.608C205.816 68.608 205.235 68.864 204.819 69.376C204.413 69.8773 204.211 70.5653 204.211 71.44C204.211 72.3147 204.419 73.008 204.835 73.52C205.261 74.0213 205.837 74.272 206.563 74.272ZM219.871 76.192C219.081 76.192 218.393 76.0107 217.807 75.648C217.231 75.2853 216.783 74.7733 216.463 74.112C216.143 73.44 215.983 72.656 215.983 71.76C215.983 70.864 216.143 70.0853 216.463 69.424C216.783 68.7627 217.231 68.2507 217.807 67.888C218.393 67.5147 219.081 67.328 219.871 67.328C220.521 67.328 221.097 67.4453 221.599 67.68C222.111 67.904 222.527 68.2347 222.847 68.672C223.167 69.1093 223.375 69.6427 223.471 70.272L222.063 70.368C221.967 69.8027 221.721 69.3707 221.327 69.072C220.932 68.7627 220.447 68.608 219.871 68.608C219.092 68.608 218.484 68.8907 218.047 69.456C217.609 70.0107 217.391 70.7787 217.391 71.76C217.391 72.7413 217.609 73.5147 218.047 74.08C218.484 74.6347 219.092 74.912 219.871 74.912C220.447 74.912 220.932 74.752 221.327 74.432C221.721 74.112 221.967 73.632 222.063 72.992L223.471 73.088C223.375 73.7173 223.167 74.2667 222.847 74.736C222.527 75.1947 222.111 75.552 221.599 75.808C221.097 76.064 220.521 76.192 219.871 76.192ZM227.484 76.192C226.609 76.192 225.91 75.9893 225.388 75.584C224.876 75.1787 224.62 74.6133 224.62 73.888C224.62 73.1627 224.833 72.592 225.26 72.176C225.686 71.76 226.364 71.4667 227.292 71.296L230.3 70.736C230.3 70.0213 230.129 69.488 229.788 69.136C229.457 68.784 228.956 68.608 228.284 68.608C227.697 68.608 227.233 68.7413 226.892 69.008C226.55 69.264 226.316 69.6373 226.188 70.128L224.764 70.016C224.924 69.216 225.308 68.5707 225.916 68.08C226.534 67.5787 227.324 67.328 228.284 67.328C229.372 67.328 230.204 67.6373 230.78 68.256C231.356 68.864 231.644 69.7067 231.644 70.784V74.288C231.644 74.48 231.676 74.6187 231.74 74.704C231.814 74.7787 231.932 74.816 232.092 74.816H232.428V76C232.385 76.0107 232.316 76.016 232.22 76.016C232.124 76.0267 232.022 76.032 231.916 76.032C231.532 76.032 231.217 75.9733 230.972 75.856C230.737 75.728 230.566 75.536 230.46 75.28C230.353 75.0133 230.3 74.6667 230.3 74.24L230.46 74.272C230.385 74.6347 230.204 74.9653 229.916 75.264C229.628 75.552 229.27 75.7813 228.844 75.952C228.417 76.112 227.964 76.192 227.484 76.192ZM227.612 75.008C228.177 75.008 228.657 74.9013 229.052 74.688C229.457 74.464 229.766 74.1653 229.98 73.792C230.193 73.408 230.3 72.9813 230.3 72.512V71.904L227.548 72.416C226.972 72.5227 226.572 72.688 226.348 72.912C226.134 73.1253 226.028 73.408 226.028 73.76C226.028 74.1547 226.166 74.464 226.444 74.688C226.732 74.9013 227.121 75.008 227.612 75.008ZM235.356 76C234.865 76 234.465 75.872 234.156 75.616C233.847 75.36 233.692 74.9547 233.692 74.4V64.64H235.036V74.288C235.036 74.4587 235.079 74.592 235.164 74.688C235.26 74.7733 235.393 74.816 235.564 74.816H236.3V76H235.356ZM239.305 76C238.815 76 238.415 75.872 238.105 75.616C237.796 75.36 237.641 74.9547 237.641 74.4V64.64H238.985V74.288C238.985 74.4587 239.028 74.592 239.113 74.688C239.209 74.7733 239.343 74.816 239.513 74.816H240.249V76H239.305Z" fill="#2A2114"/>
<rect x="91" y="108" width="221" height="53" rx="12" fill="#FDFCFB"/>
<rect x="99" y="117.5" width="34" height="34" rx="8" fill="#5BB38B"/>
<path d="M120 125.5V128.5M112 125.5V128.5M108 133L124 133M110 142H122C123.105 142 124 141.105 124 140V129C124 127.895 123.105 127 122 127H110C108.895 127 108 127.895 108 129V140C108 141.105 108.895 142 110 142Z" stroke="#2A2114" stroke-width="1.5" stroke-linecap="round"/>
<path d="M149.059 127.176C148.318 127.176 147.68 127.015 147.145 126.692C146.617 126.362 146.21 125.893 145.924 125.284C145.638 124.675 145.495 123.949 145.495 123.106C145.495 122.263 145.638 121.537 145.924 120.928C146.21 120.312 146.617 119.839 147.145 119.509C147.68 119.179 148.318 119.014 149.059 119.014C149.807 119.014 150.445 119.179 150.973 119.509C151.508 119.839 151.919 120.312 152.205 120.928C152.491 121.537 152.634 122.263 152.634 123.106C152.634 123.949 152.491 124.675 152.205 125.284C151.919 125.893 151.508 126.362 150.973 126.692C150.445 127.015 149.807 127.176 149.059 127.176ZM149.059 126.252C149.602 126.252 150.064 126.127 150.445 125.878C150.834 125.629 151.131 125.269 151.336 124.8C151.541 124.331 151.644 123.766 151.644 123.106C151.644 122.446 151.541 121.881 151.336 121.412C151.131 120.935 150.834 120.572 150.445 120.323C150.064 120.066 149.602 119.938 149.059 119.938C148.524 119.938 148.062 120.066 147.673 120.323C147.292 120.572 146.998 120.935 146.793 121.412C146.588 121.881 146.485 122.446 146.485 123.106C146.485 123.766 146.588 124.331 146.793 124.8C146.998 125.269 147.292 125.629 147.673 125.878C148.062 126.127 148.524 126.252 149.059 126.252ZM155.816 127.132C155.237 127.132 154.771 126.938 154.419 126.549C154.074 126.153 153.902 125.61 153.902 124.921V121.17H154.826V124.668C154.826 125.233 154.925 125.651 155.123 125.922C155.328 126.186 155.64 126.318 156.058 126.318C156.52 126.318 156.883 126.171 157.147 125.878C157.411 125.577 157.543 125.167 157.543 124.646V121.17H158.467V127H157.587V125.559L157.73 125.636C157.613 126.113 157.389 126.483 157.059 126.747C156.729 127.004 156.315 127.132 155.816 127.132ZM161.941 127C161.413 127 161.021 126.879 160.764 126.637C160.515 126.395 160.39 126.017 160.39 125.504V119.806H161.314V125.482C161.314 125.746 161.373 125.929 161.49 126.032C161.608 126.135 161.787 126.186 162.029 126.186H162.865V127H161.941ZM159.532 121.984V121.17H162.865V121.984H159.532ZM166.11 127.132C165.568 127.132 165.095 127.007 164.691 126.758C164.295 126.509 163.987 126.157 163.767 125.702C163.547 125.24 163.437 124.701 163.437 124.085C163.437 123.469 163.547 122.934 163.767 122.479C163.987 122.024 164.295 121.672 164.691 121.423C165.095 121.166 165.568 121.038 166.11 121.038C166.558 121.038 166.954 121.119 167.298 121.28C167.65 121.434 167.936 121.661 168.156 121.962C168.376 122.263 168.519 122.629 168.585 123.062L167.617 123.128C167.551 122.739 167.383 122.442 167.111 122.237C166.84 122.024 166.506 121.918 166.11 121.918C165.575 121.918 165.157 122.112 164.856 122.501C164.556 122.882 164.405 123.41 164.405 124.085C164.405 124.76 164.556 125.291 164.856 125.68C165.157 126.061 165.575 126.252 166.11 126.252C166.506 126.252 166.84 126.142 167.111 125.922C167.383 125.702 167.551 125.372 167.617 124.932L168.585 124.998C168.519 125.431 168.376 125.808 168.156 126.131C167.936 126.446 167.65 126.692 167.298 126.868C166.954 127.044 166.558 127.132 166.11 127.132ZM171.898 127.132C171.362 127.132 170.893 127.007 170.49 126.758C170.086 126.509 169.775 126.157 169.555 125.702C169.335 125.24 169.225 124.701 169.225 124.085C169.225 123.462 169.335 122.923 169.555 122.468C169.775 122.013 170.086 121.661 170.49 121.412C170.893 121.163 171.362 121.038 171.898 121.038C172.433 121.038 172.899 121.163 173.295 121.412C173.698 121.661 174.01 122.013 174.23 122.468C174.45 122.923 174.56 123.462 174.56 124.085C174.56 124.701 174.45 125.24 174.23 125.702C174.01 126.157 173.698 126.509 173.295 126.758C172.899 127.007 172.433 127.132 171.898 127.132ZM171.898 126.252C172.433 126.252 172.847 126.061 173.141 125.68C173.441 125.291 173.592 124.76 173.592 124.085C173.592 123.41 173.441 122.882 173.141 122.501C172.847 122.112 172.433 121.918 171.898 121.918C171.362 121.918 170.944 122.112 170.644 122.501C170.343 122.882 170.193 123.41 170.193 124.085C170.193 124.76 170.343 125.291 170.644 125.68C170.944 126.061 171.362 126.252 171.898 126.252ZM175.709 127V121.17H176.556L176.589 122.644L176.457 122.6C176.523 122.277 176.637 122.002 176.798 121.775C176.967 121.54 177.172 121.361 177.414 121.236C177.656 121.104 177.924 121.038 178.217 121.038C178.723 121.038 179.134 121.177 179.449 121.456C179.772 121.735 179.973 122.123 180.054 122.622L179.878 122.611C179.937 122.274 180.043 121.991 180.197 121.764C180.358 121.529 180.564 121.35 180.813 121.225C181.062 121.1 181.348 121.038 181.671 121.038C182.089 121.038 182.441 121.126 182.727 121.302C183.013 121.471 183.229 121.72 183.376 122.05C183.523 122.38 183.596 122.78 183.596 123.249V127H182.672V123.447C182.672 122.919 182.569 122.523 182.364 122.259C182.159 121.988 181.854 121.852 181.451 121.852C181.18 121.852 180.941 121.918 180.736 122.05C180.538 122.182 180.384 122.373 180.274 122.622C180.164 122.864 180.109 123.161 180.109 123.513V127H179.185V123.513C179.185 122.992 179.093 122.585 178.91 122.292C178.727 121.999 178.419 121.852 177.986 121.852C177.715 121.852 177.476 121.918 177.271 122.05C177.073 122.182 176.915 122.373 176.798 122.622C176.688 122.871 176.633 123.168 176.633 123.513V127H175.709ZM187.393 127.132C186.843 127.132 186.367 127.007 185.963 126.758C185.567 126.509 185.259 126.157 185.039 125.702C184.827 125.24 184.72 124.701 184.72 124.085C184.72 123.469 184.827 122.934 185.039 122.479C185.259 122.024 185.564 121.672 185.952 121.423C186.348 121.166 186.814 121.038 187.349 121.038C187.855 121.038 188.303 121.159 188.691 121.401C189.08 121.636 189.381 121.98 189.593 122.435C189.813 122.89 189.923 123.443 189.923 124.096V124.371H185.688C185.725 124.994 185.89 125.464 186.183 125.779C186.484 126.094 186.887 126.252 187.393 126.252C187.775 126.252 188.086 126.164 188.328 125.988C188.578 125.805 188.75 125.566 188.845 125.273L189.835 125.35C189.681 125.871 189.388 126.3 188.955 126.637C188.53 126.967 188.009 127.132 187.393 127.132ZM185.688 123.557H188.911C188.867 122.992 188.702 122.578 188.416 122.314C188.138 122.05 187.782 121.918 187.349 121.918C186.902 121.918 186.532 122.057 186.238 122.336C185.952 122.607 185.769 123.014 185.688 123.557Z" fill="#022B19"/>
<path d="M145.32 148L149.416 136.64H151.272L155.368 148H153.864L152.728 144.768H147.96L146.824 148H145.32ZM148.424 143.424H152.264L150.344 137.84L148.424 143.424ZM156.495 150.4V139.52H157.743L157.775 141.344L157.583 141.248C157.796 140.619 158.148 140.144 158.639 139.824C159.14 139.493 159.716 139.328 160.367 139.328C161.21 139.328 161.898 139.536 162.431 139.952C162.975 140.368 163.375 140.912 163.631 141.584C163.898 142.256 164.031 142.981 164.031 143.76C164.031 144.539 163.898 145.264 163.631 145.936C163.375 146.608 162.975 147.152 162.431 147.568C161.898 147.984 161.21 148.192 160.367 148.192C159.93 148.192 159.519 148.117 159.135 147.968C158.762 147.819 158.442 147.611 158.175 147.344C157.919 147.077 157.743 146.763 157.647 146.4L157.839 146.176V150.4H156.495ZM160.239 146.912C160.975 146.912 161.556 146.635 161.983 146.08C162.41 145.525 162.623 144.752 162.623 143.76C162.623 142.768 162.41 141.995 161.983 141.44C161.556 140.885 160.975 140.608 160.239 140.608C159.748 140.608 159.322 140.725 158.959 140.96C158.607 141.195 158.33 141.547 158.127 142.016C157.935 142.485 157.839 143.067 157.839 143.76C157.839 144.453 157.935 145.035 158.127 145.504C158.319 145.973 158.596 146.325 158.959 146.56C159.322 146.795 159.748 146.912 160.239 146.912ZM165.694 150.4V139.52H166.942L166.974 141.344L166.782 141.248C166.996 140.619 167.348 140.144 167.838 139.824C168.34 139.493 168.916 139.328 169.566 139.328C170.409 139.328 171.097 139.536 171.63 139.952C172.174 140.368 172.574 140.912 172.83 141.584C173.097 142.256 173.23 142.981 173.23 143.76C173.23 144.539 173.097 145.264 172.83 145.936C172.574 146.608 172.174 147.152 171.63 147.568C171.097 147.984 170.409 148.192 169.566 148.192C169.129 148.192 168.718 148.117 168.334 147.968C167.961 147.819 167.641 147.611 167.374 147.344C167.118 147.077 166.942 146.763 166.846 146.4L167.038 146.176V150.4H165.694ZM169.438 146.912C170.174 146.912 170.756 146.635 171.182 146.08C171.609 145.525 171.822 144.752 171.822 143.76C171.822 142.768 171.609 141.995 171.182 141.44C170.756 140.885 170.174 140.608 169.438 140.608C168.948 140.608 168.521 140.725 168.158 140.96C167.806 141.195 167.529 141.547 167.326 142.016C167.134 142.485 167.038 143.067 167.038 143.76C167.038 144.453 167.134 145.035 167.326 145.504C167.518 145.973 167.796 146.325 168.158 146.56C168.521 146.795 168.948 146.912 169.438 146.912ZM178.206 148.192C177.427 148.192 176.744 148.011 176.158 147.648C175.571 147.285 175.118 146.773 174.798 146.112C174.478 145.44 174.318 144.656 174.318 143.76C174.318 142.853 174.478 142.069 174.798 141.408C175.118 140.747 175.571 140.235 176.158 139.872C176.744 139.509 177.427 139.328 178.206 139.328C178.984 139.328 179.662 139.509 180.238 139.872C180.824 140.235 181.278 140.747 181.598 141.408C181.918 142.069 182.078 142.853 182.078 143.76C182.078 144.656 181.918 145.44 181.598 146.112C181.278 146.773 180.824 147.285 180.238 147.648C179.662 148.011 178.984 148.192 178.206 148.192ZM178.206 146.912C178.984 146.912 179.587 146.635 180.014 146.08C180.451 145.515 180.67 144.741 180.67 143.76C180.67 142.779 180.451 142.011 180.014 141.456C179.587 140.891 178.984 140.608 178.206 140.608C177.427 140.608 176.819 140.891 176.382 141.456C175.944 142.011 175.726 142.779 175.726 143.76C175.726 144.741 175.944 145.515 176.382 146.08C176.819 146.635 177.427 146.912 178.206 146.912ZM183.749 148V139.52H185.093V148H183.749ZM183.717 138.192V136.624H185.125V138.192H183.717ZM187.652 148V139.52H188.884L188.932 141.68L188.772 141.536C188.879 141.035 189.065 140.624 189.332 140.304C189.599 139.973 189.919 139.728 190.292 139.568C190.676 139.408 191.087 139.328 191.524 139.328C192.175 139.328 192.708 139.472 193.124 139.76C193.551 140.048 193.865 140.437 194.068 140.928C194.281 141.408 194.388 141.947 194.388 142.544V148H193.044V142.928C193.044 142.405 192.98 141.968 192.852 141.616C192.735 141.253 192.543 140.981 192.276 140.8C192.009 140.608 191.663 140.512 191.236 140.512C190.585 140.512 190.047 140.72 189.62 141.136C189.204 141.541 188.996 142.139 188.996 142.928V148H187.652ZM199.252 148C198.484 148 197.913 147.824 197.54 147.472C197.177 147.12 196.996 146.571 196.996 145.824V137.536H198.34V145.792C198.34 146.176 198.425 146.443 198.596 146.592C198.767 146.741 199.028 146.816 199.38 146.816H200.596V148H199.252ZM195.748 140.704V139.52H200.596V140.704H195.748ZM202.332 148V139.52H203.564L203.612 141.664L203.42 141.6C203.516 141.131 203.681 140.731 203.916 140.4C204.161 140.059 204.46 139.797 204.812 139.616C205.164 139.424 205.553 139.328 205.98 139.328C206.716 139.328 207.313 139.531 207.772 139.936C208.241 140.341 208.535 140.907 208.652 141.632L208.396 141.616C208.481 141.125 208.636 140.715 208.86 140.384C209.095 140.043 209.393 139.781 209.756 139.6C210.119 139.419 210.535 139.328 211.004 139.328C211.612 139.328 212.124 139.456 212.54 139.712C212.956 139.957 213.271 140.32 213.484 140.8C213.697 141.28 213.804 141.861 213.804 142.544V148H212.46V142.832C212.46 142.064 212.311 141.488 212.012 141.104C211.713 140.709 211.271 140.512 210.684 140.512C210.289 140.512 209.943 140.608 209.644 140.8C209.356 140.992 209.132 141.269 208.972 141.632C208.812 141.984 208.732 142.416 208.732 142.928V148H207.388V142.928C207.388 142.171 207.255 141.579 206.988 141.152C206.721 140.725 206.273 140.512 205.644 140.512C205.249 140.512 204.903 140.608 204.604 140.8C204.316 140.992 204.087 141.269 203.916 141.632C203.756 141.995 203.676 142.427 203.676 142.928V148H202.332ZM219.328 148.192C218.528 148.192 217.834 148.011 217.248 147.648C216.672 147.285 216.224 146.773 215.904 146.112C215.594 145.44 215.44 144.656 215.44 143.76C215.44 142.864 215.594 142.085 215.904 141.424C216.224 140.763 216.666 140.251 217.232 139.888C217.808 139.515 218.485 139.328 219.264 139.328C220 139.328 220.65 139.504 221.216 139.856C221.781 140.197 222.218 140.699 222.528 141.36C222.848 142.021 223.008 142.827 223.008 143.776V144.176H216.848C216.901 145.083 217.141 145.765 217.568 146.224C218.005 146.683 218.592 146.912 219.328 146.912C219.882 146.912 220.336 146.784 220.688 146.528C221.05 146.261 221.301 145.915 221.44 145.488L222.88 145.6C222.656 146.357 222.229 146.981 221.6 147.472C220.981 147.952 220.224 148.192 219.328 148.192ZM216.848 142.992H221.536C221.472 142.171 221.232 141.568 220.816 141.184C220.41 140.8 219.893 140.608 219.264 140.608C218.613 140.608 218.074 140.811 217.648 141.216C217.232 141.611 216.965 142.203 216.848 142.992ZM224.668 148V139.52H225.9L225.948 141.68L225.788 141.536C225.895 141.035 226.081 140.624 226.348 140.304C226.615 139.973 226.935 139.728 227.308 139.568C227.692 139.408 228.103 139.328 228.54 139.328C229.191 139.328 229.724 139.472 230.14 139.76C230.567 140.048 230.881 140.437 231.084 140.928C231.297 141.408 231.404 141.947 231.404 142.544V148H230.06V142.928C230.06 142.405 229.996 141.968 229.868 141.616C229.751 141.253 229.559 140.981 229.292 140.8C229.025 140.608 228.679 140.512 228.252 140.512C227.601 140.512 227.063 140.72 226.636 141.136C226.22 141.541 226.012 142.139 226.012 142.928V148H224.668ZM236.268 148C235.5 148 234.93 147.824 234.556 147.472C234.194 147.12 234.012 146.571 234.012 145.824V137.536H235.356V145.792C235.356 146.176 235.442 146.443 235.612 146.592C235.783 146.741 236.044 146.816 236.396 146.816H237.612V148H236.268ZM232.764 140.704V139.52H237.612V140.704H232.764ZM246.998 148.192C246.411 148.192 245.889 148.064 245.43 147.808C244.971 147.541 244.619 147.179 244.374 146.72L244.326 148H243.11V136.64H244.454V140.704C244.667 140.352 244.998 140.037 245.446 139.76C245.894 139.472 246.411 139.328 246.998 139.328C247.745 139.328 248.39 139.509 248.934 139.872C249.478 140.235 249.899 140.747 250.198 141.408C250.497 142.069 250.646 142.853 250.646 143.76C250.646 144.667 250.497 145.451 250.198 146.112C249.899 146.773 249.478 147.285 248.934 147.648C248.39 148.011 247.745 148.192 246.998 148.192ZM246.918 146.912C247.633 146.912 248.198 146.629 248.614 146.064C249.03 145.499 249.238 144.731 249.238 143.76C249.238 142.779 249.03 142.011 248.614 141.456C248.198 140.891 247.643 140.608 246.95 140.608C246.427 140.608 245.979 140.736 245.606 140.992C245.233 141.237 244.945 141.595 244.742 142.064C244.55 142.533 244.454 143.099 244.454 143.76C244.454 144.4 244.55 144.96 244.742 145.44C244.945 145.909 245.227 146.272 245.59 146.528C245.963 146.784 246.406 146.912 246.918 146.912ZM255.621 148.192C254.843 148.192 254.16 148.011 253.573 147.648C252.987 147.285 252.533 146.773 252.213 146.112C251.893 145.44 251.733 144.656 251.733 143.76C251.733 142.853 251.893 142.069 252.213 141.408C252.533 140.747 252.987 140.235 253.573 139.872C254.16 139.509 254.843 139.328 255.621 139.328C256.4 139.328 257.077 139.509 257.653 139.872C258.24 140.235 258.693 140.747 259.013 141.408C259.333 142.069 259.493 142.853 259.493 143.76C259.493 144.656 259.333 145.44 259.013 146.112C258.693 146.773 258.24 147.285 257.653 147.648C257.077 148.011 256.4 148.192 255.621 148.192ZM255.621 146.912C256.4 146.912 257.003 146.635 257.429 146.08C257.867 145.515 258.085 144.741 258.085 143.76C258.085 142.779 257.867 142.011 257.429 141.456C257.003 140.891 256.4 140.608 255.621 140.608C254.843 140.608 254.235 140.891 253.797 141.456C253.36 142.011 253.141 142.779 253.141 143.76C253.141 144.741 253.36 145.515 253.797 146.08C254.235 146.635 254.843 146.912 255.621 146.912ZM264.477 148.192C263.698 148.192 263.016 148.011 262.429 147.648C261.842 147.285 261.389 146.773 261.069 146.112C260.749 145.44 260.589 144.656 260.589 143.76C260.589 142.853 260.749 142.069 261.069 141.408C261.389 140.747 261.842 140.235 262.429 139.872C263.016 139.509 263.698 139.328 264.477 139.328C265.256 139.328 265.933 139.509 266.509 139.872C267.096 140.235 267.549 140.747 267.869 141.408C268.189 142.069 268.349 142.853 268.349 143.76C268.349 144.656 268.189 145.44 267.869 146.112C267.549 146.773 267.096 147.285 266.509 147.648C265.933 148.011 265.256 148.192 264.477 148.192ZM264.477 146.912C265.256 146.912 265.858 146.635 266.285 146.08C266.722 145.515 266.941 144.741 266.941 143.76C266.941 142.779 266.722 142.011 266.285 141.456C265.858 140.891 265.256 140.608 264.477 140.608C263.698 140.608 263.09 140.891 262.653 141.456C262.216 142.011 261.997 142.779 261.997 143.76C261.997 144.741 262.216 145.515 262.653 146.08C263.09 146.635 263.698 146.912 264.477 146.912ZM270.021 148V136.64H271.365V144.08L275.493 139.52H277.285L273.941 143.12L277.429 148H275.797L273.029 144.032L271.365 145.792V148H270.021ZM281.813 148.192C281.013 148.192 280.32 148.011 279.733 147.648C279.157 147.285 278.709 146.773 278.389 146.112C278.08 145.44 277.925 144.656 277.925 143.76C277.925 142.864 278.08 142.085 278.389 141.424C278.709 140.763 279.152 140.251 279.717 139.888C280.293 139.515 280.971 139.328 281.749 139.328C282.485 139.328 283.136 139.504 283.701 139.856C284.267 140.197 284.704 140.699 285.013 141.36C285.333 142.021 285.493 142.827 285.493 143.776V144.176H279.333C279.387 145.083 279.627 145.765 280.053 146.224C280.491 146.683 281.077 146.912 281.813 146.912C282.368 146.912 282.821 146.784 283.173 146.528C283.536 146.261 283.787 145.915 283.925 145.488L285.365 145.6C285.141 146.357 284.715 146.981 284.085 147.472C283.467 147.952 282.709 148.192 281.813 148.192ZM279.333 142.992H284.021C283.957 142.171 283.717 141.568 283.301 141.184C282.896 140.8 282.379 140.608 281.749 140.608C281.099 140.608 280.56 140.811 280.133 141.216C279.717 141.611 279.451 142.203 279.333 142.992ZM290.162 148.192C289.426 148.192 288.786 148.011 288.242 147.648C287.708 147.285 287.298 146.773 287.01 146.112C286.722 145.451 286.578 144.667 286.578 143.76C286.578 142.853 286.722 142.069 287.01 141.408C287.298 140.747 287.708 140.235 288.242 139.872C288.786 139.509 289.426 139.328 290.162 139.328C290.727 139.328 291.244 139.451 291.714 139.696C292.183 139.931 292.535 140.267 292.77 140.704V136.64H294.114V148H292.898L292.85 146.72C292.615 147.179 292.258 147.541 291.778 147.808C291.298 148.064 290.759 148.192 290.162 148.192ZM290.434 146.912C290.935 146.912 291.356 146.784 291.698 146.528C292.05 146.272 292.316 145.909 292.498 145.44C292.679 144.96 292.77 144.4 292.77 143.76C292.77 143.099 292.679 142.533 292.498 142.064C292.316 141.595 292.05 141.237 291.698 140.992C291.356 140.736 290.935 140.608 290.434 140.608C289.687 140.608 289.09 140.891 288.642 141.456C288.204 142.011 287.986 142.779 287.986 143.76C287.986 144.731 288.204 145.499 288.642 146.064C289.09 146.629 289.687 146.912 290.434 146.912Z" fill="#2A2114"/>
<rect x="91" y="179" width="140" height="53" rx="12" fill="#FDFCFB"/>
<rect x="99" y="188.5" width="34" height="34" rx="8" fill="#73C3D3"/>
<path d="M123 209L119.118 213L117 210.818M115 213H110C109.448 213 109 212.552 109 212V198C109 197.448 109.448 197 110 197H122C122.552 197 123 197.448 123 198V206.25M112.5 201H119.118M112.5 204.5H119.118M112.5 208H119.118" stroke="#2A2114" stroke-width="1.5" stroke-linecap="round" stroke-linejoin="round"/>
<path d="M145.22 198L148.036 190.19H149.312L152.128 198H151.094L150.313 195.778H147.035L146.254 198H145.22ZM147.354 194.854H149.994L148.674 191.015L147.354 194.854ZM155.201 198.132C154.659 198.132 154.186 198.007 153.782 197.758C153.386 197.509 153.078 197.157 152.858 196.702C152.638 196.24 152.528 195.701 152.528 195.085C152.528 194.469 152.638 193.934 152.858 193.479C153.078 193.024 153.386 192.672 153.782 192.423C154.186 192.166 154.659 192.038 155.201 192.038C155.649 192.038 156.045 192.119 156.389 192.28C156.741 192.434 157.027 192.661 157.247 192.962C157.467 193.263 157.61 193.629 157.676 194.062L156.708 194.128C156.642 193.739 156.474 193.442 156.202 193.237C155.931 193.024 155.597 192.918 155.201 192.918C154.666 192.918 154.248 193.112 153.947 193.501C153.647 193.882 153.496 194.41 153.496 195.085C153.496 195.76 153.647 196.291 153.947 196.68C154.248 197.061 154.666 197.252 155.201 197.252C155.597 197.252 155.931 197.142 156.202 196.922C156.474 196.702 156.642 196.372 156.708 195.932L157.676 195.998C157.61 196.431 157.467 196.808 157.247 197.131C157.027 197.446 156.741 197.692 156.389 197.868C156.045 198.044 155.649 198.132 155.201 198.132ZM160.62 198C160.092 198 159.7 197.879 159.443 197.637C159.194 197.395 159.069 197.017 159.069 196.504V190.806H159.993V196.482C159.993 196.746 160.052 196.929 160.169 197.032C160.287 197.135 160.466 197.186 160.708 197.186H161.544V198H160.62ZM158.211 192.984V192.17H161.544V192.984H158.211ZM162.619 198V192.17H163.543V198H162.619ZM162.597 191.257V190.179H163.565V191.257H162.597ZM167.364 198.132C166.829 198.132 166.36 198.007 165.956 197.758C165.553 197.509 165.241 197.157 165.021 196.702C164.801 196.24 164.691 195.701 164.691 195.085C164.691 194.462 164.801 193.923 165.021 193.468C165.241 193.013 165.553 192.661 165.956 192.412C166.36 192.163 166.829 192.038 167.364 192.038C167.9 192.038 168.365 192.163 168.761 192.412C169.165 192.661 169.476 193.013 169.696 193.468C169.916 193.923 170.026 194.462 170.026 195.085C170.026 195.701 169.916 196.24 169.696 196.702C169.476 197.157 169.165 197.509 168.761 197.758C168.365 198.007 167.9 198.132 167.364 198.132ZM167.364 197.252C167.9 197.252 168.314 197.061 168.607 196.68C168.908 196.291 169.058 195.76 169.058 195.085C169.058 194.41 168.908 193.882 168.607 193.501C168.314 193.112 167.9 192.918 167.364 192.918C166.829 192.918 166.411 193.112 166.11 193.501C165.81 193.882 165.659 194.41 165.659 195.085C165.659 195.76 165.81 196.291 166.11 196.68C166.411 197.061 166.829 197.252 167.364 197.252ZM171.176 198V192.17H172.023L172.056 193.655L171.946 193.556C172.019 193.211 172.147 192.929 172.331 192.709C172.514 192.482 172.734 192.313 172.991 192.203C173.255 192.093 173.537 192.038 173.838 192.038C174.285 192.038 174.652 192.137 174.938 192.335C175.231 192.533 175.447 192.801 175.587 193.138C175.733 193.468 175.807 193.838 175.807 194.249V198H174.883V194.513C174.883 194.154 174.839 193.853 174.751 193.611C174.67 193.362 174.538 193.175 174.355 193.05C174.171 192.918 173.933 192.852 173.64 192.852C173.192 192.852 172.822 192.995 172.529 193.281C172.243 193.56 172.1 193.97 172.1 194.513V198H171.176Z" fill="#072D35"/>
<path d="M146.472 219V207.64H153.608V208.984H147.848V212.648H153.416V213.96H147.848V217.656H153.736V219H146.472ZM155.796 219V207.64H157.172V213.16L156.468 212.616H163.588L162.884 213.16V207.64H164.26V219H162.884V213.416L163.588 213.96H156.468L157.172 213.416V219H155.796ZM166.73 219V207.64H171.034C171.834 207.64 172.522 207.779 173.098 208.056C173.674 208.333 174.117 208.733 174.426 209.256C174.746 209.768 174.906 210.376 174.906 211.08C174.906 211.592 174.783 212.051 174.538 212.456C174.303 212.851 173.999 213.165 173.626 213.4C173.253 213.635 172.863 213.763 172.458 213.784L172.362 213.64C173.055 213.64 173.599 213.8 173.994 214.12C174.399 214.44 174.634 214.952 174.698 215.656L175.018 219H173.626L173.338 215.8C173.295 215.331 173.125 214.984 172.826 214.76C172.538 214.536 172.063 214.424 171.402 214.424H168.106V219H166.73ZM168.106 213.08H171.21C171.903 213.08 172.453 212.904 172.858 212.552C173.263 212.2 173.466 211.699 173.466 211.048C173.466 210.387 173.258 209.88 172.842 209.528C172.426 209.165 171.823 208.984 171.034 208.984H168.106V213.08ZM181.16 219V207.64H183.112L188.728 217.624V207.64H190.104V219H188.056L182.536 209.208V219H181.16ZM195.855 219.192C195.076 219.192 194.393 219.011 193.807 218.648C193.22 218.285 192.767 217.773 192.447 217.112C192.127 216.44 191.967 215.656 191.967 214.76C191.967 213.853 192.127 213.069 192.447 212.408C192.767 211.747 193.22 211.235 193.807 210.872C194.393 210.509 195.076 210.328 195.855 210.328C196.633 210.328 197.311 210.509 197.887 210.872C198.473 211.235 198.927 211.747 199.247 212.408C199.567 213.069 199.727 213.853 199.727 214.76C199.727 215.656 199.567 216.44 199.247 217.112C198.927 217.773 198.473 218.285 197.887 218.648C197.311 219.011 196.633 219.192 195.855 219.192ZM195.855 217.912C196.633 217.912 197.236 217.635 197.663 217.08C198.1 216.515 198.319 215.741 198.319 214.76C198.319 213.779 198.1 213.011 197.663 212.456C197.236 211.891 196.633 211.608 195.855 211.608C195.076 211.608 194.468 211.891 194.031 212.456C193.593 213.011 193.375 213.779 193.375 214.76C193.375 215.741 193.593 216.515 194.031 217.08C194.468 217.635 195.076 217.912 195.855 217.912ZM204.174 219C203.406 219 202.835 218.824 202.462 218.472C202.099 218.12 201.918 217.571 201.918 216.824V208.536H203.262V216.792C203.262 217.176 203.347 217.443 203.518 217.592C203.689 217.741 203.95 217.816 204.302 217.816H205.518V219H204.174ZM200.67 211.704V210.52H205.518V211.704H200.67ZM210.238 219.192C209.438 219.192 208.744 219.011 208.158 218.648C207.582 218.285 207.134 217.773 206.814 217.112C206.504 216.44 206.35 215.656 206.35 214.76C206.35 213.864 206.504 213.085 206.814 212.424C207.134 211.763 207.576 211.251 208.142 210.888C208.718 210.515 209.395 210.328 210.174 210.328C210.91 210.328 211.56 210.504 212.126 210.856C212.691 211.197 213.128 211.699 213.438 212.36C213.758 213.021 213.918 213.827 213.918 214.776V215.176H207.758C207.811 216.083 208.051 216.765 208.478 217.224C208.915 217.683 209.502 217.912 210.238 217.912C210.792 217.912 211.246 217.784 211.598 217.528C211.96 217.261 212.211 216.915 212.35 216.488L213.79 216.6C213.566 217.357 213.139 217.981 212.51 218.472C211.891 218.952 211.134 219.192 210.238 219.192ZM207.758 213.992H212.446C212.382 213.171 212.142 212.568 211.726 212.184C211.32 211.8 210.803 211.608 210.174 211.608C209.523 211.608 208.984 211.811 208.558 212.216C208.142 212.611 207.875 213.203 207.758 213.992Z" fill="#2A2114"/>
<circle cx="60" cy="96" r="9" fill="#FDFCFB"/>
<circle cx="60" cy="171" r="9" fill="#FDFCFB"/>
<g clip-path="url(#clip1_587_7750)">
<path d="M56 96H64M60 92V100M69 96C69 100.971 64.9706 105 60 105C55.0294 105 51 100.971 51 96C51 91.0294 55.0294 87 60 87C64.9706 87 69 91.0294 69 96Z" stroke="#CEC9B8" stroke-width="1.5" stroke-linecap="round" stroke-linejoin="round"/>
</g>
<g clip-path="url(#clip2_587_7750)">
<path d="M56 171H64M60 167V175M69 171C69 175.971 64.9706 180 60 180C55.0294 180 51 175.971 51 171C51 166.029 55.0294 162 60 162C64.9706 162 69 166.029 69 171Z" stroke="#CEC9B8" stroke-width="1.5" stroke-linecap="round" stroke-linejoin="round"/>
</g>
</g>
<defs>
<clipPath id="clip0_587_7750">
<rect width="408" height="268" rx="16" fill="white"/>
</clipPath>
<clipPath id="clip1_587_7750">
<rect width="20" height="20" fill="white" transform="translate(50 86)"/>
</clipPath>
<clipPath id="clip2_587_7750">
<rect width="20" height="20" fill="white" transform="translate(50 161)"/>
</clipPath>
</defs>
</svg>
