<svg width="117" height="40" viewBox="0 0 117 40" fill="none" xmlns="http://www.w3.org/2000/svg">
<path d="M18.9145 40C8.02152 39.5482 0 31.1601 0 20.0096C0 8.54463 8.48037 0 19.843 0C25.5622 0 30.5961 2.08952 33.9729 5.51524L28.9471 8.4428C26.7729 6.25933 23.6027 5.02943 19.843 5.02943C11.6952 5.02943 6.04157 11.3568 6.04157 20.0096C6.04157 28.3297 11.2688 34.4998 18.9145 34.9619V40Z" fill="#2A2114"/>
<path d="M35.127 19.6851H17.4284V24.7145H35.127V19.6851Z" fill="#2A2114"/>
<path d="M20.8047 40.0032V34.9644C25.2704 34.6961 29.1075 32.5488 31.1486 28.6719L36.0119 31.4658C32.99 36.4198 27.7262 39.7229 20.8047 40.0032Z" fill="#2A2114"/>
<path d="M70.2521 22.0611V39.2045H75.7632V1.07812H70.2521V16.8695H55.6609V22.0611H70.2521Z" fill="#2A2114"/>
<path d="M46.8509 39.2045H41.3398V1.07812H46.8509V39.2045Z" fill="#2A2114"/>
<path d="M54.3124 22.0667V16.875H48.0977V22.0667H54.3124Z" fill="#2A2114"/>
<path d="M82.6836 14.8759H88.7496V7.30469H82.6836V14.8759Z" fill="#2A2114"/>
<path d="M82.6836 16.4927V39.4766H96.3755C108.392 39.4766 117 31.3106 117 20.0079C117 8.70514 108.276 0.539062 96.1444 0.539062H82.6836V5.67666H92.447L96.1444 5.73074C104.81 5.73074 110.703 11.4091 110.703 20.0079C110.703 28.6066 104.926 34.285 96.1444 34.285H88.7496V16.4927H82.6836Z" fill="#2A2114"/>
</svg>
