<svg width="32" height="32" viewBox="0 0 32 32" fill="none" xmlns="http://www.w3.org/2000/svg">
<g clip-path="url(#clip0_1_9)">
<path d="M23.2963 4.125C22.0006 4.125 20.8312 5.51397 19.9988 7.74618C18.7749 10.8745 17.8734 15.0504 15.9496 15.0504C14.0258 15.0504 13.3582 12.3692 12.1459 10.2965C11.3117 8.72562 10.1334 7.74618 8.82697 7.74618C6.29925 7.74618 4.25 11.4139 4.25 15.9375C4.25 20.461 6.29925 24.1297 8.82787 24.1297C10.1343 24.1297 11.3126 23.1502 12.1468 21.5794C13.3591 19.5067 14.0948 16.8256 15.9505 16.8256C17.8062 16.8256 18.7757 21.0014 19.9997 24.1297C20.8322 26.361 22.0023 27.75 23.2971 27.75C25.8249 27.75 27.875 22.4611 27.875 15.9375C27.875 9.41383 25.8249 4.125 23.2963 4.125Z" fill="#2A2114"/>
</g>
<defs>
<clipPath id="clip0_1_9">
<rect width="23.625" height="23.625" fill="white" transform="translate(4.25 4.125)"/>
</clipPath>
</defs>
</svg>
