<svg width="154" height="45" viewBox="0 0 154 45" fill="none" xmlns="http://www.w3.org/2000/svg">
<path fill-rule="evenodd" clip-rule="evenodd" d="M24.2869 12.9605C24.2869 13.4805 24.0803 13.9792 23.7126 14.3469C23.3449 14.7147 22.8461 14.9212 22.3261 14.9212C21.8061 14.9212 21.3074 14.7147 20.9396 14.3469C20.5719 13.9792 20.3653 13.4805 20.3653 12.9605C20.3653 12.4404 20.5719 11.9417 20.9396 11.574C21.3074 11.2062 21.8061 10.9997 22.3261 10.9997C22.8461 10.9997 23.3449 11.2062 23.7126 11.574C24.0803 11.9417 24.2869 12.4404 24.2869 12.9605ZM46.9907 33.9794V11.2932C46.9912 11.2359 47.0136 11.1811 47.0534 11.1407C47.0931 11.1003 47.1469 11.0776 47.203 11.0776H49.9239C49.9799 11.0776 50.0337 11.1001 50.0735 11.1403C50.1132 11.1804 50.1356 11.235 50.1366 11.292V33.9794C50.1361 34.0078 50.1305 34.0359 50.1197 34.0622C50.109 34.0884 50.0931 34.1122 50.0735 34.1322C50.0533 34.1522 50.03 34.168 50.0043 34.1788C49.9785 34.1895 49.951 34.195 49.9229 34.1949H47.203C47.0861 34.1949 46.9907 34.0987 46.9907 33.9794ZM14.0148 11.2987V19.2513C12.7102 17.737 10.8606 16.8041 8.59165 16.8041C3.91065 16.8041 0.103027 20.7677 0.103027 25.641C0.103027 30.5131 3.91065 34.4767 8.59165 34.4767C10.8617 34.4767 12.7102 33.5428 14.0148 32.0285V33.9849C14.0148 34.0134 14.0204 34.0417 14.0311 34.068C14.0418 34.0944 14.0576 34.1183 14.0774 34.1384C14.0972 34.1586 14.1208 34.1745 14.1467 34.1853C14.1726 34.1961 14.2003 34.2017 14.2283 34.2015H16.9481C17.0043 34.2015 17.0584 34.1787 17.0982 34.1381C17.138 34.0974 17.1604 34.0423 17.1604 33.9849V11.2987C17.1604 11.1793 17.0651 11.082 16.9481 11.082H14.2272C14.1102 11.082 14.0148 11.1793 14.0148 11.2987ZM8.765 31.2062C5.81769 31.2062 3.55308 28.7093 3.55308 25.641C3.55308 22.5727 5.81769 20.0747 8.76607 20.0747C11.7145 20.0747 13.7093 22.5716 13.7093 25.6399C13.7093 28.7082 11.7145 31.2062 8.765 31.2062ZM62.2712 16.8009C60.001 16.8009 58.1524 17.7348 56.8481 19.2491V17.4883C56.8481 17.369 56.7527 17.2717 56.6344 17.2717H53.915C53.7967 17.2717 53.7022 17.369 53.7022 17.4883V40.1732C53.7022 40.2307 53.7247 40.2859 53.7644 40.3266C53.8042 40.3672 53.8584 40.3901 53.915 40.3901H56.6354C56.6919 40.3901 56.7457 40.3672 56.7859 40.3266C56.8257 40.2859 56.8481 40.2307 56.8481 40.1732V32.0274C58.1524 33.5416 60.0024 34.4745 62.2712 34.4745C66.9523 34.4745 70.7597 30.5098 70.7597 25.6377C70.7597 20.7656 66.9523 16.8009 62.2712 16.8009ZM62.0968 31.204C59.1482 31.204 57.1534 28.7071 57.1534 25.6377C57.1534 22.5694 59.1482 20.0714 62.0977 20.0714C65.0449 20.0714 67.3095 22.5683 67.3095 25.6377C67.3095 28.706 65.0449 31.204 62.0968 31.204ZM40.2803 17.4883V19.2513L40.2792 19.2524C38.9735 17.7381 37.125 16.8053 34.856 16.8053C30.175 16.8053 26.3674 20.7689 26.3674 25.6421C26.3674 30.5142 30.175 34.4789 34.856 34.4789C37.1261 34.4789 38.9746 33.5449 40.2792 32.0307V33.986C40.2792 34.0145 40.2847 34.0428 40.2955 34.0691C40.3062 34.0955 40.322 34.1194 40.3418 34.1396C40.3616 34.1597 40.3852 34.1756 40.4111 34.1865C40.437 34.1973 40.4647 34.2028 40.4927 34.2026H43.2124C43.2403 34.2026 43.2679 34.197 43.2937 34.1861C43.3195 34.1752 43.3428 34.1593 43.3626 34.1392C43.3823 34.119 43.398 34.0952 43.4086 34.0689C43.4193 34.0426 43.4248 34.0144 43.4248 33.986V17.4883C43.4248 17.369 43.3305 17.2717 43.2124 17.2717H40.4916C40.3746 17.2717 40.2803 17.369 40.2803 17.4883ZM35.0305 31.2062C32.0821 31.2062 29.8174 28.7093 29.8174 25.6399L29.8185 25.641C29.8185 22.5727 32.0821 20.0747 35.0305 20.0747C37.9799 20.0747 39.9737 22.5716 39.9737 25.6399C39.9737 28.7082 37.9788 31.2062 35.0305 31.2062ZM86.3847 19.2513V17.4883C86.3847 17.4309 86.4072 17.3758 86.4469 17.3351C86.4866 17.2945 86.5409 17.2717 86.597 17.2717H89.3179C89.374 17.2717 89.4282 17.2945 89.4679 17.3351C89.5077 17.3758 89.5301 17.4309 89.5301 17.4883V33.9849C89.5301 34.0423 89.5077 34.0974 89.4679 34.1381C89.4282 34.1787 89.374 34.2015 89.3179 34.2015H86.597C86.4801 34.2015 86.3847 34.1053 86.3847 33.986V32.0296C85.0799 33.5439 83.2305 34.4778 80.9616 34.4778C76.2805 34.4778 72.4726 30.5131 72.4726 25.641C72.4726 20.7677 76.2805 16.8041 80.9616 16.8041C83.2305 16.8041 85.0799 17.737 86.3847 19.2513ZM75.9229 25.641C75.9229 28.7093 78.1865 31.2062 81.136 31.2062C84.0841 31.2062 86.079 28.7093 86.079 25.6399C86.079 22.5716 84.0841 20.0747 81.136 20.0747C78.1865 20.0747 75.9229 22.5716 75.9229 25.641ZM105.54 19.2513V11.2987C105.54 11.2412 105.562 11.1861 105.602 11.1455C105.642 11.1048 105.696 11.082 105.752 11.082H108.473C108.529 11.082 108.583 11.1048 108.623 11.1455C108.663 11.1861 108.685 11.2412 108.685 11.2987V33.9849C108.685 34.0423 108.663 34.0974 108.623 34.1381C108.583 34.1787 108.529 34.2015 108.473 34.2015H105.752C105.635 34.2015 105.54 34.1042 105.54 33.9849V32.0296C104.235 33.5439 102.386 34.4767 100.117 34.4767C95.4357 34.4767 91.6278 30.5131 91.6278 25.641C91.6278 20.7677 95.4357 16.8041 100.117 16.8041C102.386 16.8041 104.235 17.737 105.54 19.2513ZM95.078 25.641C95.078 28.7093 97.3426 31.2062 100.291 31.2062C103.239 31.2062 105.234 28.7093 105.234 25.6399C105.234 22.5716 103.239 20.0747 100.291 20.0747C97.3426 20.0747 95.078 22.5716 95.078 25.641ZM20.7264 17.4872V33.9794C20.7267 34.0366 20.7492 34.0914 20.789 34.1318C20.8288 34.1722 20.8826 34.1949 20.9388 34.1949H23.6596C23.7159 34.1949 23.77 34.1721 23.8098 34.1314C23.8496 34.0908 23.872 34.0357 23.872 33.9782V17.4872C23.872 17.3679 23.7766 17.2706 23.6596 17.2706H20.9388C20.8218 17.2706 20.7264 17.3679 20.7264 17.4872Z" fill="#60584C"/>
<path fill-rule="evenodd" clip-rule="evenodd" d="M125.1 4.5C120.708 4.5 117.148 8.06002 117.148 12.4515V32.5486C117.148 36.9399 120.708 40.5 125.1 40.5H145.197C149.588 40.5 153.148 36.9399 153.148 32.5486V12.4515C153.148 8.06002 149.588 4.5 145.197 4.5H125.1ZM144.674 17.0253C145.757 17.0253 146.635 16.1475 146.635 15.0645C146.635 13.9817 145.757 13.1038 144.674 13.1038C143.591 13.1038 142.713 13.9817 142.713 15.0645C142.713 16.1475 143.591 17.0253 144.674 17.0253ZM131.963 16.6246C131.511 16.6246 130.735 17.0544 130.331 18.3736L130.33 18.3762L126.503 30.7151C126.248 31.5361 125.376 31.9952 124.555 31.7406C123.734 31.486 123.275 30.614 123.53 29.793L127.354 17.462L127.355 17.4592C127.977 15.431 129.608 13.5118 131.963 13.5118C134.317 13.5118 135.945 15.427 136.568 17.4521L136.569 17.4539L139.515 26.9517L139.516 26.9536C139.92 28.2691 140.695 28.6976 141.146 28.6976C142.252 28.6976 143.148 27.8015 143.148 26.6957V20.193C143.148 19.3334 143.845 18.6366 144.704 18.6366C145.564 18.6366 146.261 19.3334 146.261 20.193V26.6957C146.261 29.5206 143.971 31.8105 141.146 31.8105C138.795 31.8105 137.164 29.8962 136.541 27.8706L136.54 27.8684L133.594 18.3705L133.594 18.3686C133.189 17.0525 132.415 16.6246 131.963 16.6246Z" fill="#60584C"/>
</svg>
