<svg width="240" height="45" viewBox="0 0 240 45" fill="none" xmlns="http://www.w3.org/2000/svg">
<path d="M33.984 26.581C33.984 28.1066 34.479 29.5004 35.3827 30.5127C36.2864 31.5252 37.5986 32.1562 39.233 32.1562C40.8042 32.1562 42.1167 31.5569 43.0364 30.5603C43.9563 29.5637 44.4832 28.1699 44.4832 26.581C44.4832 24.9914 43.9563 23.5973 43.0364 22.6006C42.1167 21.6038 40.8042 21.0045 39.233 21.0045C37.5986 21.0045 36.2864 21.6355 35.3827 22.648C34.479 23.6606 33.984 25.0547 33.984 26.581ZM48.0428 35.2808H44.2468V33.1919C43.6475 33.9637 42.8981 34.5996 41.9899 35.0423C41.0817 35.485 40.0144 35.7348 38.7791 35.7348C36.3454 35.7348 34.1705 34.7766 32.6039 33.1533C31.0374 31.5299 30.0791 29.2415 30.0791 26.581C30.0791 23.9198 31.0374 21.631 32.6039 20.0075C34.1705 18.3841 36.3454 17.4259 38.7791 17.4259C40.0144 17.4259 41.0817 17.6804 41.9899 18.1278C42.8981 18.5753 43.6475 19.2158 44.2468 19.9878V17.8798H48.0428V35.2808Z" fill="#60584C"/>
<path d="M63.67 21.3311H57.0047V28.9056C57.0047 30.0771 57.3133 30.89 57.8126 31.4098C58.312 31.9297 59.002 32.1567 59.7653 32.1567C60.3551 32.1567 60.9725 32.0252 61.5719 31.8117C62.1712 31.5983 62.7526 31.3031 63.2704 30.9756L64.7777 34.0091C64.0785 34.4814 63.2884 34.913 62.4008 35.2264C61.513 35.5399 60.5277 35.7352 59.4376 35.7352C57.4669 35.7352 55.9049 35.2038 54.8356 34.0934C53.7663 32.983 53.1897 31.2937 53.1897 28.9776V21.3311H49.7211V17.8803H53.1897V11.4507H57.0047V17.8803H63.67V21.3311Z" fill="#60584C"/>
<path d="M70.1069 19.9508C70.8061 18.9519 71.6917 18.3206 72.6226 17.939C73.5533 17.5574 74.5295 17.4256 75.4103 17.4256C77.481 17.4256 79.2475 18.1388 80.4963 19.3605C81.7452 20.5821 82.4763 22.3123 82.4763 24.3463V35.2805H78.6614V25.5994C78.6614 24.1377 78.2845 22.998 77.5898 22.2238C76.8951 21.4496 75.8826 21.0409 74.6111 21.0409C73.3852 21.0409 72.2591 21.4449 71.4395 22.2213C70.62 22.9977 70.1069 24.1464 70.1069 25.636V35.2805H66.2932V11.4388H70.1069V19.9508Z" fill="#60584C"/>
<path d="M89.0106 25.0917H98.0379C97.8294 23.738 97.3299 22.6664 96.5805 21.9331C95.8313 21.1999 94.8325 20.805 93.6248 20.805C92.2717 20.805 91.2181 21.241 90.4527 21.9948C89.6875 22.7486 89.2104 23.8202 89.0106 25.0917ZM101.925 26.5623C101.925 26.8077 101.916 27.0527 101.902 27.2909C101.889 27.529 101.871 27.7604 101.853 27.9786H88.9929C89.247 29.5408 89.9235 30.6489 90.8454 31.3663C91.7672 32.0837 92.9343 32.4107 94.1699 32.4107C95.041 32.4107 95.9401 32.2381 96.8008 31.9224C97.6614 31.6068 98.4837 31.1481 99.2012 30.5758L101.089 33.2833C100.027 34.1912 98.8966 34.8042 97.7024 35.19C96.5082 35.576 95.2503 35.7351 93.9333 35.7351C91.3266 35.7351 89.1017 34.8269 87.5284 33.2283C85.9552 31.6299 85.0336 29.3411 85.0336 26.58C85.0336 23.8556 85.9189 21.5672 87.4443 19.9598C88.9698 18.3525 91.1356 17.4262 93.6968 17.4262C96.1305 17.4262 98.183 18.3525 99.6295 19.9576C101.076 21.5628 101.916 23.8468 101.925 26.5623Z" fill="#60584C"/>
<path d="M120.803 24.3465V35.2807H116.99V25.5996C116.99 24.1372 116.613 22.9972 115.918 22.2229C115.223 21.4485 114.21 21.0398 112.938 21.0398C111.712 21.0398 110.586 21.4441 109.767 22.2208C108.947 22.9975 108.434 24.1467 108.434 25.6363V35.2807H104.62V17.881H108.399V20.0054C109.097 18.9792 109.987 18.3343 110.924 17.946C111.862 17.5576 112.847 17.4258 113.737 17.4258C115.808 17.4258 117.575 18.139 118.823 19.3607C120.072 20.5823 120.803 22.3125 120.803 24.3465Z" fill="#60584C"/>
<path d="M127.197 26.581C127.197 28.1066 127.692 29.5004 128.595 30.5127C129.499 31.5252 130.811 32.1562 132.446 32.1562C134.017 32.1562 135.329 31.5569 136.249 30.5603C137.169 29.5637 137.696 28.1699 137.696 26.581C137.696 24.9914 137.169 23.5973 136.249 22.6006C135.329 21.6038 134.017 21.0045 132.446 21.0045C130.811 21.0045 129.499 21.6355 128.595 22.648C127.692 23.6606 127.197 25.0547 127.197 26.581ZM141.255 35.2808H137.459V33.1919C136.86 33.9637 136.111 34.5996 135.203 35.0423C134.294 35.485 133.227 35.7348 131.992 35.7348C129.558 35.7348 127.383 34.7766 125.817 33.1533C124.25 31.5299 123.292 29.2415 123.292 26.581C123.292 23.9198 124.25 21.631 125.817 20.0075C127.383 18.3841 129.558 17.4259 131.992 17.4259C133.227 17.4259 134.294 17.6804 135.203 18.1278C136.111 18.5753 136.86 19.2158 137.459 19.9878V17.8798H141.255V35.2808Z" fill="#60584C"/>
<path d="M147.233 21.1496C147.905 20.0235 148.841 19.2152 149.901 18.6884C150.961 18.1616 152.146 17.9163 153.318 17.9163C155.462 17.9163 157.259 18.5792 158.523 19.7711C159.785 20.9631 160.511 22.6841 160.511 24.8003V35.2805H158.441V25.4363C158.441 23.7109 157.94 22.3215 157.005 21.3635C156.07 20.4054 154.699 19.8788 152.954 19.8788C151.347 19.8788 149.917 20.4554 148.888 21.452C147.86 22.4486 147.233 23.8651 147.233 25.5451V35.2805H145.163V11.4388H147.233V21.1496Z" fill="#60584C"/>
<path d="M165.561 25.7093H177.784C177.63 23.9377 176.949 22.4481 175.905 21.4014C174.861 20.3547 173.452 19.7509 171.845 19.7509C170.111 19.7509 168.639 20.3731 167.552 21.4289C166.464 22.4848 165.761 23.9744 165.561 25.7093ZM179.892 26.6349C179.892 26.7892 179.888 26.939 179.88 27.082C179.874 27.2252 179.865 27.3614 179.855 27.4885H165.525C165.679 29.4776 166.455 31.0443 167.631 32.1137C168.807 33.1832 170.383 33.7554 172.136 33.7554C173.325 33.7554 174.393 33.5192 175.351 33.0968C176.309 32.6745 177.158 32.066 177.912 31.3213L178.465 32.03L179.021 32.7388C177.939 33.8369 176.804 34.5407 175.63 34.9699C174.457 35.399 173.245 35.5535 172.009 35.5535C169.512 35.5535 167.363 34.6542 165.841 33.1032C164.317 31.5523 163.418 29.3499 163.418 26.7437C163.418 24.1647 164.331 21.9578 165.845 20.3957C167.359 18.8335 169.475 17.9161 171.883 17.9161C174.162 17.9161 176.15 18.8199 177.576 20.3617C179.001 21.9034 179.865 24.0832 179.892 26.6349Z" fill="#60584C"/>
<path d="M183.864 26.744C183.864 28.6692 184.559 30.3855 185.739 31.6204C186.921 32.8555 188.587 33.609 190.532 33.609C192.465 33.609 194.127 32.8735 195.306 31.6475C196.483 30.4215 197.179 28.7054 197.179 26.744C197.179 24.7827 196.483 23.0618 195.306 21.8311C194.127 20.6004 192.465 19.8601 190.532 19.8601C188.569 19.8601 186.903 20.614 185.726 21.8515C184.55 23.089 183.864 24.81 183.864 26.744ZM199.122 35.2808H197.07V31.9931C196.379 33.0648 195.462 33.955 194.328 34.5772C193.196 35.1996 191.847 35.554 190.294 35.554C187.897 35.554 185.762 34.6229 184.228 33.0561C182.693 31.4895 181.758 29.2871 181.758 26.744C181.758 24.2011 182.693 21.9942 184.228 20.4231C185.762 18.8519 187.897 17.9165 190.294 17.9165C191.847 17.9165 193.196 18.275 194.328 18.8993C195.462 19.5237 196.379 20.4139 197.07 21.4774V18.1883H199.122V35.2808Z" fill="#60584C"/>
<path d="M205.427 35.2808H203.356V11.4389H205.427V35.2808Z" fill="#60584C"/>
<path d="M221.31 20.0779H213.426V29.3962C213.426 30.8396 213.808 31.8929 214.473 32.5854C215.139 33.2778 216.088 33.6095 217.224 33.6095C217.96 33.6095 218.663 33.4824 219.308 33.2554C219.953 33.0284 220.538 32.7016 221.038 32.302L222.018 33.8459C221.41 34.3543 220.684 34.781 219.853 35.0808C219.021 35.3804 218.085 35.553 217.059 35.553C215.28 35.553 213.853 35.0579 212.872 34.0453C211.892 33.0325 211.356 31.5022 211.356 29.4316V20.0779H207.432V18.1887H211.356V11.4507H213.426V18.1887H221.31V20.0779Z" fill="#60584C"/>
<path d="M226.061 21.1496C226.733 20.0235 227.668 19.2152 228.729 18.6884C229.788 18.1616 230.975 17.9163 232.146 17.9163C234.289 17.9163 236.088 18.5792 237.35 19.7711C238.612 20.9631 239.338 22.6841 239.338 24.8003V35.2805H237.267V25.4363C237.267 23.7109 236.767 22.3215 235.832 21.3635C234.898 20.4054 233.526 19.8788 231.783 19.8788C230.176 19.8788 228.744 20.4554 227.717 21.452C226.688 22.4486 226.061 23.8651 226.061 25.5451V35.2805H223.99V11.4388H226.061V21.1496Z" fill="#60584C"/>
<path d="M14.7677 17.296C14.7677 17.7621 14.9567 18.184 15.2622 18.4894C15.5676 18.7947 15.9894 18.9835 16.4552 18.9835C16.9208 18.9835 17.343 18.7947 17.6487 18.4894C17.9545 18.184 18.1436 17.7621 18.1436 17.296C18.1436 16.8303 17.9545 16.4081 17.6487 16.1024C17.343 15.7967 16.9208 15.6074 16.4552 15.6074C15.9894 15.6074 15.5676 15.7967 15.2622 16.1024C14.9567 16.4081 14.7677 16.8303 14.7677 17.296Z" fill="#60584C"/>
<path d="M8.16703 15.6074C8.16703 16.8421 8.41406 18.0189 8.8612 19.0915C9.30833 20.164 9.95555 21.1324 10.756 21.9502C11.5564 21.1324 12.2036 20.164 12.6507 19.0915C13.0979 18.0189 13.3449 16.8421 13.3449 15.6074C13.3449 14.3727 13.0979 13.1959 12.6507 12.1234C12.2036 11.0508 11.5564 10.0825 10.756 9.26465C9.95555 10.0825 9.30833 11.0508 8.8612 12.1234C8.41406 13.1959 8.16703 14.3727 8.16703 15.6074Z" fill="#60584C"/>
<path d="M14.3457 24.0541C13.0877 25.7675 12.2316 27.6523 11.7594 29.5965C11.2873 31.5405 11.1991 33.5438 11.477 35.4944C13.4213 35.175 15.3064 34.4907 17.0199 33.458C18.7335 32.4252 20.2754 31.0438 21.5335 29.3303C22.7915 27.6169 23.6476 25.7321 24.1198 23.7879C24.5919 21.8439 24.68 19.8405 24.4022 17.89C22.4579 18.2093 20.5728 18.8936 18.8592 19.9264C17.1457 20.9592 15.6037 22.3406 14.3457 24.0541Z" fill="#60584C"/>
<path d="M7.92459 21.1899C6.97955 19.8777 5.82135 18.8124 4.53435 18.0081C3.24733 17.2039 1.83151 16.6606 0.371211 16.3922C0.1628 17.8623 0.229252 19.3773 0.584068 20.8529C0.938882 22.3285 1.58206 23.7646 2.52708 25.077C3.3739 26.2529 4.39202 27.2297 5.52061 27.9981C6.64921 28.7666 7.88827 29.3266 9.17697 29.6689V35.0039C9.17697 35.1391 9.23199 35.2617 9.32095 35.3505C9.40993 35.4395 9.53283 35.4944 9.66858 35.4944C9.80383 35.4944 9.92649 35.4395 10.0153 35.3505C10.1042 35.2617 10.1592 35.1391 10.1592 35.0039V29.2996C10.1597 29.2769 10.1597 29.2519 10.1596 29.2254C10.1594 29.1988 10.1592 29.1706 10.1592 29.1416C10.2667 27.7815 10.1409 26.3956 9.77226 25.0487C9.40366 23.7016 8.79147 22.3937 7.92459 21.1899Z" fill="#60584C"/>
</svg>
