<svg width="218" height="45" viewBox="0 0 218 45" fill="none" xmlns="http://www.w3.org/2000/svg">
<path fill-rule="evenodd" clip-rule="evenodd" d="M62.5856 12C56.7536 12 52.0088 16.7802 52.0088 22.6557C52.0088 28.5312 56.7005 33.2598 62.4889 33.3129H62.5856C68.4191 33.3129 73.1639 28.5328 73.1639 22.6557C73.1639 16.7786 68.4191 12 62.5856 12ZM62.5856 29.0256C59.2468 29.0256 56.7013 26.1684 56.7013 22.6573C56.7013 19.1462 59.2484 16.289 62.5856 16.289C65.9227 16.289 68.4697 19.1462 68.4697 22.6573C68.4697 26.1684 65.9243 29.0256 62.5856 29.0256Z" fill="#60584C"/>
<path fill-rule="evenodd" clip-rule="evenodd" d="M173.906 17.3665C169.521 17.3665 165.955 20.9468 165.955 25.347C165.955 29.7471 169.521 33.3275 173.906 33.3275C178.289 33.3275 181.856 29.7471 181.856 25.347C181.856 20.9468 178.289 17.3665 173.906 17.3665ZM173.906 29.9137C171.513 29.9137 169.907 27.9577 169.907 25.3454C169.907 22.733 171.514 20.777 173.906 20.777C176.298 20.777 177.903 22.733 177.903 25.3454C177.903 27.9577 176.298 29.9137 173.906 29.9137Z" fill="#60584C"/>
<path fill-rule="evenodd" clip-rule="evenodd" d="M84.5345 17.4576C88.7044 17.4576 91.8912 20.8998 91.8912 25.3808C91.8912 29.8914 88.7044 33.3337 84.2069 33.3337C82.1982 33.3337 80.1896 32.5303 78.9053 31.0463V37.3101H74.4972V17.9324H78.6671V21.35C79.8835 18.6327 81.9621 17.4576 84.5345 17.4576ZM78.9053 25.3808C78.8756 28.0515 80.7817 30.0695 83.2836 30.0695C85.6663 30.0695 87.4236 28.0813 87.4236 25.3808C87.4236 22.6803 85.7855 20.7218 83.2836 20.7218C80.7817 20.7218 78.8756 22.71 78.9053 25.3808Z" fill="#60584C"/>
<path d="M120.37 17.3138C124.272 17.3138 126.655 20.0736 126.655 24.5544V32.9228H122.276V24.8512C122.276 22.1211 120.966 20.6077 118.642 20.6077C116.528 20.6077 114.532 22.4773 114.532 24.8512V32.9228H110.124V17.8776H114.115V21.378C115.716 18.5418 117.992 17.3138 120.37 17.3138Z" fill="#60584C"/>
<path d="M164.455 24.5397C164.455 20.1181 162.042 17.3583 158.11 17.299C156.128 17.274 153.998 18.2806 152.272 20.638V12.4323H147.895V32.908H152.272V24.8364C152.272 22.4624 154.297 20.5929 156.412 20.5929C158.765 20.5929 160.076 22.1063 160.076 24.8364V32.908H164.455V24.5397Z" fill="#60584C"/>
<path d="M193.601 17.3138C197.503 17.3138 199.886 20.0736 199.886 24.5544V32.9228H195.507V24.8512C195.507 22.1211 194.197 20.6077 191.873 20.6077C189.76 20.6077 187.763 22.4773 187.763 24.8512V32.9228H183.356V17.8776H187.347V21.378C188.947 18.5418 191.223 17.3138 193.601 17.3138Z" fill="#60584C"/>
<path fill-rule="evenodd" clip-rule="evenodd" d="M128.822 12.4471H139.812C143.654 12.4471 146.393 15.3255 146.393 19.3613C146.393 23.3971 143.654 26.246 139.812 26.246H133.438V32.9228H128.822V12.4471ZM138.59 22.7443C140.407 22.7443 141.569 21.4386 141.569 19.3613C141.569 17.3138 140.407 16.0081 138.59 16.0081H133.438V22.7443H138.59Z" fill="#60584C"/>
<path fill-rule="evenodd" clip-rule="evenodd" d="M92.8913 25.347C92.8913 20.9472 96.4583 17.3669 100.842 17.3665C105.226 17.3669 108.791 20.9472 108.791 25.347C108.791 25.806 108.752 26.2666 108.673 26.7175H105.847V26.7197H97.0233L97.0918 26.9286C97.5388 28.8162 99.01 30.0854 100.843 30.0854C102.174 30.0854 103.303 29.5635 103.95 28.652H108.078C106.784 31.4994 103.971 33.3275 100.843 33.3275C96.4588 33.3275 92.8913 29.7471 92.8913 25.347ZM97.065 23.8484L97.0853 23.7847C97.5241 21.8842 98.8303 20.6086 100.843 20.6086C102.855 20.6086 104.16 21.8858 104.598 23.7847L104.619 23.8484H97.065Z" fill="#60584C"/>
<path fill-rule="evenodd" clip-rule="evenodd" d="M209.17 17.3665C204.786 17.3669 201.22 20.9472 201.22 25.347C201.22 29.7471 204.786 33.3275 209.171 33.3275C212.299 33.3275 215.112 31.4994 216.405 28.652H212.277C211.631 29.5635 210.501 30.0854 209.171 30.0854C207.171 30.0854 205.866 28.8162 205.42 26.9286L205.352 26.7197H214.175V26.7175H217.001C217.08 26.2666 217.118 25.806 217.118 25.347C217.118 20.9472 213.553 17.3669 209.17 17.3665ZM205.413 23.7847L205.393 23.8484H212.947L212.927 23.7847C212.488 21.8858 211.183 20.6086 209.171 20.6086C207.158 20.6086 205.852 21.8842 205.413 23.7847Z" fill="#60584C"/>
<path d="M26.45 7.5C33.2697 7.50128 39.231 12.1016 40.9597 18.6985C42.6884 25.2954 39.7491 32.2281 33.8058 35.5723C27.8624 38.9166 20.4112 37.8303 15.6698 32.9287C19.9197 31.2098 22.7014 27.0841 22.7014 22.4998C22.7014 17.9155 19.9197 13.7898 15.6698 12.0709C18.4618 9.17784 22.2994 7.53189 26.316 7.50045L26.45 7.5ZM2.50327 15.6744C5.57891 11.6439 10.9704 10.1683 15.6698 12.0709C10.0445 17.8856 10.0445 27.114 15.6698 32.9287C10.9704 34.8313 5.57891 33.3557 2.50327 29.3252C-0.572378 25.2946 -0.572378 19.7049 2.50327 15.6744Z" fill="#60584C"/>
</svg>
