<svg width="131" height="45" viewBox="0 0 131 45" fill="none" xmlns="http://www.w3.org/2000/svg">
<path d="M126.197 15.072H130.083V19.7145H126.542C125.894 19.7145 125.398 19.6714 125.052 19.5634C124.707 19.4554 124.383 19.2827 124.081 19.0452C123.67 18.7213 123.39 18.311 123.174 17.7928C122.979 17.2745 122.871 16.6699 122.871 15.9573C122.871 14.5754 123.174 13.5605 123.778 12.8911C124.383 12.2433 125.311 11.8979 126.564 11.8979H130.105V13.2366H126.564C125.916 13.2366 125.441 13.4526 125.16 13.8628C124.858 14.2731 124.707 14.9425 124.707 15.871C124.707 16.7347 124.858 17.3393 125.139 17.728C125.441 18.1167 125.894 18.311 126.542 18.311H128.399V16.4756H126.197V15.072ZM116.955 11.8763L120.151 17.4905L120.064 11.8763H121.749V19.693H119.848L116.48 13.7764L116.545 19.693H114.86V11.8763H116.955ZM113.241 19.7145H111.513V11.8763H113.241V19.7145ZM109.937 13.2798L105.532 18.311H109.937V19.693H103.33V18.311L107.799 13.2798H103.33V11.8763H109.937V13.2798ZM101.905 19.7145H100.177V11.8763H101.905V19.7145ZM93.7639 11.8763L96.9597 17.4905L96.8733 11.8763H98.5576V19.693H96.6574L93.2889 13.7764L93.3536 19.693H91.6694V11.8763H93.7639ZM87.5667 11.8763C88.5168 11.8763 89.2078 12.0706 89.6396 12.4377C90.0715 12.8264 90.2874 13.4094 90.2874 14.2299C90.2874 14.8345 90.1579 15.3096 89.8772 15.6982C89.5964 16.0869 89.2078 16.3244 88.7111 16.4324L90.6545 19.693H88.7975L87.0701 16.6267H85.1267V19.693H83.4856V11.8763H87.5667ZM87.178 13.2798H85.1699V15.2448H87.178C87.7178 15.2448 88.1065 15.18 88.3225 15.0288C88.5384 14.8777 88.6463 14.6186 88.6463 14.2731C88.6463 13.906 88.5384 13.6685 88.344 13.5173C88.1281 13.3446 87.7394 13.2798 87.178 13.2798ZM79.3829 13.2366C78.7783 13.2366 78.3464 13.3878 78.0441 13.6901C77.7418 13.9924 77.5691 14.4458 77.5475 15.0504H82.1036V16.4108H77.5475C77.5475 17.0802 77.6987 17.5768 77.9794 17.8791C78.2601 18.1814 78.7351 18.3326 79.4045 18.3326H82.1036V19.693H79.3181C78.7135 19.693 78.2169 19.6498 77.8714 19.5418C77.5259 19.4338 77.1804 19.2611 76.8781 19.002C76.4678 18.6781 76.1871 18.2678 75.9712 17.7496C75.7769 17.2313 75.6689 16.6267 75.6689 15.9142C75.6689 14.5322 75.9712 13.5173 76.5758 12.8479C77.1804 12.2002 78.1089 11.8547 79.3613 11.8547H82.082V13.215H79.3829V13.2366ZM67.7658 11.8763H71.3503C72.6027 11.8763 73.5312 12.2002 74.1358 12.8695C74.7404 13.5173 75.0427 14.5538 75.0427 15.9358C75.0427 16.6483 74.9347 17.2529 74.7404 17.7712C74.5461 18.2894 74.2438 18.6997 73.8335 19.0236C73.5312 19.2827 73.1857 19.4554 72.8402 19.5634C72.4947 19.6714 71.9981 19.7145 71.3935 19.7145H67.7658V11.8763ZM71.3071 13.2366H69.4069V18.3326H71.3071C72.0413 18.3326 72.5379 18.1598 72.8186 17.7928C73.0993 17.4257 73.2289 16.7563 73.2289 15.7846C73.2289 14.8129 73.0993 14.1651 72.8186 13.798C72.5379 13.431 72.0413 13.2366 71.3071 13.2366ZM62.7346 13.0639C62.0221 13.0639 61.5038 13.2798 61.1583 13.7333C60.8128 14.1651 60.6401 14.8345 60.6401 15.7198C60.6401 16.6915 60.8129 17.3825 61.1368 17.836C61.4822 18.2894 62.0005 18.5053 62.7346 18.5053C63.4472 18.5053 63.987 18.2894 64.3325 17.836C64.678 17.3825 64.8508 16.7131 64.8508 15.7846C64.8508 14.8561 64.678 14.1651 64.3325 13.7333C63.987 13.3014 63.4688 13.0639 62.7346 13.0639ZM58.8479 15.7198C58.8479 14.3811 59.1718 13.3662 59.8196 12.7184C60.4674 12.0706 61.4391 11.7251 62.7562 11.7251C64.0734 11.7251 65.0667 12.049 65.6929 12.7184C66.3407 13.3878 66.643 14.4026 66.643 15.7846C66.643 17.1666 66.3191 18.203 65.6929 18.8508C65.0667 19.5202 64.0734 19.8441 62.7562 19.8441C61.4175 19.8441 60.4242 19.4986 59.798 18.8292C59.1502 18.203 58.8479 17.145 58.8479 15.7198ZM48.9151 11.8763H51.3335L53.32 17.8791L55.3066 11.8763H57.7034V19.693H56.1272L56.2567 13.6037L54.2485 19.693H52.4995L50.4266 13.5389L50.5993 19.693H48.9151V11.8763Z" fill="#60584C"/>
<path d="M100.652 23.7956C100.069 23.7956 99.6156 23.9467 99.3133 24.2491C99.011 24.5514 98.8383 25.0048 98.8167 25.6094H103.373V26.9698H98.8167C98.8167 27.6608 98.9678 28.1358 99.2486 28.4381C99.5293 28.7404 100.004 28.8916 100.674 28.8916H103.373V30.2519H100.587C99.9827 30.2519 99.4861 30.2087 99.1406 30.1008C98.7951 29.9928 98.4496 29.8201 98.1473 29.561C97.737 29.2371 97.4563 28.8268 97.2404 28.3086C97.0461 27.7903 96.9381 27.1857 96.9381 26.4731C96.9381 25.0912 97.2404 24.0763 97.845 23.4069C98.4496 22.7591 99.3781 22.4136 100.631 22.4136H103.351V23.774H100.652V23.7956ZM88.9486 22.4352H91.0216L94.2174 28.0494L94.131 22.4352H95.8153V30.2519H93.9151L90.5465 24.3354L90.6113 30.2519H88.9486V22.4352ZM87.3292 30.2519H85.6017V22.4352H87.3292V30.2519ZM81.6934 23.774C81.024 23.774 80.5273 23.9899 80.225 24.4218C79.9227 24.8537 79.7716 25.5662 79.7716 26.5595C79.7716 27.4232 79.9227 28.0278 80.2035 28.3733C80.4842 28.7188 80.9808 28.8916 81.6934 28.8916H84.3925V30.2519H81.607C81.0024 30.2519 80.5058 30.2087 80.1603 30.1008C79.8148 29.9928 79.4693 29.8201 79.167 29.561C78.7567 29.2371 78.4544 28.8268 78.2601 28.3086C78.0657 27.7903 77.9578 27.1857 77.9578 26.4731C77.9578 25.0912 78.2601 24.0763 78.8647 23.4069C79.4693 22.7591 80.3978 22.4136 81.6502 22.4136H84.3925V23.7524H81.6934V23.774ZM76.8349 30.2519H75.1075V22.4352H76.8349V30.2519ZM66.7078 22.4352H70.2922C71.5446 22.4352 72.4731 22.7591 73.0777 23.4285C73.6823 24.0979 73.9846 25.1128 73.9846 26.4947C73.9846 27.2073 73.8767 27.8119 73.6823 28.3302C73.488 28.8484 73.1857 29.2587 72.7754 29.5825C72.4731 29.8201 72.1276 30.0144 71.7821 30.1224C71.4367 30.2303 70.94 30.2735 70.3354 30.2735H66.7078V22.4352ZM70.249 23.7956H68.3488V28.8916H70.249C70.9832 28.8916 71.4798 28.6972 71.7606 28.3517C72.0413 27.9847 72.1708 27.3153 72.1708 26.3436C72.1708 25.3719 72.0413 24.7241 71.7606 24.357C71.4798 23.9683 70.9832 23.7956 70.249 23.7956ZM62.5619 23.7956C61.9789 23.7956 61.5254 23.9467 61.2231 24.2491C60.9208 24.5514 60.7481 25.0048 60.7265 25.6094H65.2826V26.9698H60.7265C60.7265 27.6608 60.8776 28.1358 61.1583 28.4381C61.439 28.7404 61.9141 28.8916 62.5835 28.8916H65.2826V30.2519H62.4971C61.8925 30.2519 61.3959 30.2087 61.0504 30.1008C60.7049 29.9928 60.381 29.8201 60.0571 29.561C59.6468 29.2371 59.3661 28.8268 59.1502 28.3086C58.9558 27.7903 58.8479 27.1857 58.8479 26.4731C58.8479 25.0912 59.1502 24.0763 59.7548 23.4069C60.3594 22.7591 61.2879 22.4136 62.5403 22.4136H65.261V23.774H62.5619V23.7956ZM48.9151 22.4352H51.3335L53.32 28.4381L55.3066 22.4352H57.7034V30.2519H56.1272L56.2567 24.1627L54.2485 30.2519H52.4995L50.4266 24.0979L50.5993 30.2519H48.9151V22.4352Z" fill="#60584C"/>
<path fill-rule="evenodd" clip-rule="evenodd" d="M0.524902 22.5C0.524902 34.916 10.6089 45 23.0249 45C35.4193 45 45.5249 34.916 45.5249 22.5C45.5249 10.084 35.4409 0 23.0249 0C10.6089 0 0.524902 10.084 0.524902 22.5ZM2.25235 22.5C2.25235 11.0557 11.559 1.72745 23.0249 1.72745C34.4692 1.72745 43.7975 11.0557 43.7975 22.5C43.7975 23.7596 43.6847 24.9936 43.4688 26.1923H35.0307C35.0199 26.1059 35.0037 26.0195 34.9875 25.9331C34.9713 25.8468 34.9551 25.7604 34.9443 25.674C34.7499 24.3784 34.4261 22.3919 33.8214 19.2825C33.6055 18.246 33.4112 17.2311 33.2384 16.281C32.7202 13.5603 32.2667 11.2067 31.8565 9.5224C31.403 7.60061 30.8632 5.39812 28.8766 5.35493C27.9913 5.33334 26.8469 5.7652 26.3286 7.88132C26.1761 8.49152 25.8589 9.83516 25.4299 11.6523C25.1302 12.9217 24.776 14.4222 24.3853 16.0651C24.0692 17.403 23.7256 18.861 23.3723 20.3598C22.6879 23.2639 21.9673 26.3214 21.3406 28.9562C20.519 25.8088 19.6531 22.1214 18.9766 19.2408C18.4974 17.2004 18.1133 15.5648 17.9073 14.8127C17.5618 13.5387 16.6549 12.9557 15.7696 12.9557C14.0422 12.9773 13.5671 14.6616 13.2864 15.6764C13.0705 16.4322 12.833 17.4687 12.5307 18.8722C11.9908 21.3554 11.3862 24.5512 10.9112 27.1208C10.8394 27.4436 10.7809 27.7864 10.7247 28.1159C10.6793 28.3815 10.6355 28.6386 10.5873 28.8698C9.79942 28.9212 8.50891 28.9182 7.01747 28.9148C6.62859 28.9139 6.22605 28.913 5.81521 28.913C5.37736 28.913 4.96833 28.9178 4.53603 28.9229C4.14688 28.9274 3.73888 28.9322 3.27403 28.9339C2.61104 26.9069 2.25235 24.7441 2.25235 22.5ZM5.06974 32.9293H5.79361C8.19045 32.9509 9.78834 32.9509 10.9328 32.8645C11.7749 32.7998 14.0206 32.627 14.4093 30.5973C14.4957 30.1525 14.5893 29.6583 14.6899 29.1267C14.7651 28.7291 14.8443 28.3107 14.9275 27.8765C15.1434 26.6889 15.4241 25.1774 15.7264 23.6443C16.0071 24.8319 16.3095 26.0411 16.6118 27.2503C17.3459 30.1006 17.9505 32.4111 18.4472 34.0737C19.3109 37.0104 19.7428 38.4787 21.4702 38.5435H21.5566C22.5067 38.5435 23.3272 37.9173 23.6295 36.9456C23.9318 35.866 25.9616 27.2719 28.38 16.9936C28.4479 16.7123 28.5114 16.431 28.5745 16.1516C28.6519 15.8091 28.7286 15.4696 28.8118 15.1366C28.8712 15.4331 28.9259 15.7296 28.9803 16.0241C29.0448 16.3729 29.1087 16.7188 29.1789 17.0584C29.3517 18.0301 29.546 19.045 29.7619 20.0814C30.3666 23.126 30.6689 25.0478 30.8632 26.3218C31.2087 28.5459 31.4894 30.295 33.843 30.295H42.2798C39.1926 37.8942 31.7312 43.2726 23.0249 43.2726C15.3778 43.2726 8.67549 39.1076 5.06974 32.9293Z" fill="#60584C"/>
</svg>
