<svg width="163" height="45" viewBox="0 0 163 45" fill="none" xmlns="http://www.w3.org/2000/svg">
<path d="M26.6436 29.5001C26.6733 29.3648 26.7031 29.2315 26.7328 29.1004C27.1998 27.0275 27.6592 24.1342 27.6647 24.1054L27.6989 23.8837L27.9291 23.9061C31.5696 24.2588 33.4445 24.1214 34.8477 23.3988C36.2621 22.672 36.5969 21.6883 36.4383 21.0105C36.24 20.159 35.5527 19.996 33.7175 19.9651C31.8913 19.9342 29.7983 19.7828 27.9743 19.5484C26.5918 19.3704 25.5784 19.6581 24.7887 20.4553C24.1278 21.1214 23.6563 22.1349 23.2102 23.8454C22.7718 25.527 22.2343 27.7747 22.2287 27.7971L21.9523 28.9512L21.7507 27.7822C21.6527 27.2184 21.5447 26.2123 21.4313 25.1466C21.3564 24.4538 21.2803 23.7388 21.201 23.1036C21.0963 22.25 20.9917 20.985 20.8716 19.5217C20.7637 18.2194 20.6426 16.7445 20.4983 15.2919C20.2515 12.8141 20.0731 11.7804 19.1753 10.7232C18.2633 9.65212 16.6968 9.09582 15.1845 9.31002C13.4816 9.54981 12.3415 10.4365 11.7026 12.0212C11.3072 13.0006 11.1353 13.9438 10.9381 15.0372C10.796 15.8194 10.6495 16.6262 10.4039 17.5555C9.79367 19.8564 9.38941 21.0084 8.33416 21.6287C7.31855 22.2255 6.06392 22.1775 4.14067 21.4699C3.12506 21.0958 2.4223 21.0628 1.71513 21.3537C0.919827 21.6798 0.11792 22.5366 0.11792 23.7132C0.11792 24.5466 0.366863 25.7359 2.52695 26.4553C3.96113 26.9328 6.51995 27.2674 9.0182 26.6429C11.8766 25.9278 13.0233 23.9828 13.7668 22.1764C14.4101 20.6152 15.1174 17.3221 15.1239 17.2891L15.4411 15.8034L15.6065 17.3125C15.6097 17.3391 15.8928 19.9491 16.0591 21.8727C16.2806 24.4347 16.5173 26.5289 16.8071 28.4652C16.8468 28.7359 16.8853 28.9949 16.9205 29.2454C17.1793 31.0495 17.3666 32.353 18.2193 33.8833C18.7061 34.7584 19.5554 35.3764 20.6095 35.6225C21.7583 35.8901 23.0053 35.6748 23.946 35.046C25.6754 33.8908 26.2163 31.4578 26.6502 29.5022H26.6469L26.6436 29.5001Z" fill="#60584C"/>
<path d="M57.0977 19.8443H47.3698V10.564L43.3862 11.1757V32.78H47.3698V23.6489H57.0977V32.78H61.1112V10.564L57.0977 11.1757V19.8443Z" fill="#60584C"/>
<path d="M75.0466 28.9306C74.3453 29.3782 73.4651 29.602 72.4207 29.602C71.4807 29.602 70.6601 29.3931 69.9439 28.9604C69.2278 28.5427 68.6608 27.9309 68.2729 27.1402C68.0341 26.6478 67.8551 26.1107 67.7656 25.5288H80.0896C80.194 25.0364 80.2388 24.4844 80.2388 23.8578C80.2388 22.3956 79.8956 21.0677 79.1944 19.8741C78.4931 18.6805 77.5382 17.7405 76.3148 17.0542C75.1063 16.3828 73.7336 16.0396 72.2416 16.0396C70.7496 16.0396 69.3322 16.4126 68.064 17.1437C66.7958 17.8897 65.7961 18.9043 65.065 20.2173C64.334 21.5302 63.9759 22.9924 63.9759 24.6187C63.9759 26.245 64.334 27.7221 65.065 29.0201C65.7961 30.3032 66.8107 31.3178 68.1237 32.034C69.4366 32.7501 70.9137 33.1082 72.5848 33.1082C74.6736 33.1082 76.3745 32.6158 77.7173 31.6162C79.0452 30.6166 79.9255 29.2588 80.3432 27.5132L76.3297 27.1103C76.1805 27.8862 75.7628 28.4979 75.0615 28.9306H75.0466ZM68.1983 21.754C68.5564 21.008 69.0636 20.4261 69.75 20.0233C70.4214 19.6205 71.242 19.4116 72.1969 19.4116C72.9279 19.4116 73.5844 19.5459 74.1514 19.7846C74.7333 20.0382 75.1958 20.3963 75.5539 20.8439C75.9119 21.3064 76.091 21.8286 76.1208 22.4404H67.9297C68.0043 22.2016 68.0938 21.9629 68.1983 21.7391V21.754Z" fill="#60584C"/>
<path d="M96.8597 22.8581C96.8597 21.575 96.5315 20.4261 95.89 19.3817C95.2335 18.3373 94.3383 17.5167 93.2043 16.9348C92.0555 16.353 90.7724 16.0546 89.3549 16.0546C88.0569 16.0546 86.8931 16.2933 85.8637 16.7707C84.8342 17.2482 83.9986 17.9046 83.3869 18.77C82.7603 19.6205 82.4022 20.6052 82.2828 21.7242L86.1471 22.1867C86.1621 21.3512 86.4754 20.6947 87.0573 20.1874C87.6391 19.6951 88.415 19.4414 89.3699 19.4414C90.0114 19.4414 90.6082 19.5906 91.1155 19.889C91.6377 20.1874 92.0257 20.5753 92.3091 21.0379C92.518 21.381 92.6374 21.754 92.6971 22.127C92.3539 22.2165 91.9809 22.321 91.578 22.4105C91.0708 22.5299 90.6082 22.6045 90.1756 22.6642L89.6235 22.7537C88.1613 23.0372 86.9528 23.3505 85.983 23.6936C85.0132 24.0368 84.2225 24.5739 83.5809 25.305C82.9393 26.0361 82.626 27.0357 82.626 28.289C82.626 29.7363 83.1333 30.9 84.1329 31.7803C85.1326 32.6755 86.4903 33.1231 88.1912 33.1231C89.4445 33.1231 90.5486 32.8397 91.4885 32.2876C92.145 31.8997 92.6971 31.3626 93.1447 30.7061V32.7949H97.3372C97.188 32.4368 97.0835 31.9444 97.0239 31.3178C96.9493 30.7061 96.8896 29.9899 96.8597 29.1693V22.8581ZM92.2345 27.4833C91.9063 28.2144 91.4438 28.7814 90.8619 29.1991C90.28 29.6169 89.6235 29.8258 88.9074 29.8258C88.1912 29.8258 87.6541 29.6766 87.2661 29.3484C86.8782 29.035 86.6843 28.5874 86.6843 28.0205C86.6843 27.6325 86.8036 27.3043 87.0274 27.0357C87.2661 26.7672 87.5944 26.5434 88.0121 26.3793C88.4299 26.2151 88.9819 26.0809 89.6235 25.9913L90.086 25.9018C90.8768 25.7824 91.4885 25.6482 91.9361 25.484C92.2495 25.3796 92.518 25.2304 92.7269 25.0514C92.7269 25.9615 92.5479 26.7672 92.2345 27.4684V27.4833Z" fill="#60584C"/>
<path d="M104.29 10.564L100.485 11.1757V32.78H104.708C104.544 32.3622 104.439 31.7356 104.379 30.9448C104.32 30.1391 104.29 29.2439 104.29 28.2293V10.564Z" fill="#60584C"/>
<path d="M115.704 29.602C114.958 29.602 114.361 29.3782 113.913 28.9306C113.466 28.483 113.242 27.7519 113.242 26.7075V20.2322H117.226V17.0094H113.242V11.7874L109.408 12.3991V17.0244H106.394V20.2471H109.408V27.0656C109.408 28.3189 109.631 29.3931 110.079 30.2883C110.527 31.1835 111.168 31.8549 112.004 32.3324C112.839 32.7949 113.839 33.0336 115.003 33.0336C115.972 33.0336 116.808 32.8546 117.494 32.4816L117.256 29.2887C116.808 29.5125 116.286 29.6169 115.704 29.6169V29.602Z" fill="#60584C"/>
<path d="M132.578 16.9796C131.609 16.3679 130.46 16.0695 129.147 16.0695C127.834 16.0695 126.73 16.3977 125.775 17.0393C125.044 17.5466 124.432 18.218 123.955 19.0535V10.564L120.15 11.1757V32.78H123.955V24.5739C123.999 23.0073 124.372 21.8137 125.074 20.9782C125.79 20.1427 126.73 19.7249 127.938 19.7249C128.684 19.7249 129.356 19.9039 129.953 20.262C130.534 20.6201 130.997 21.1125 131.325 21.754C131.653 22.3956 131.818 23.1118 131.818 23.9324V32.78H135.652V23.5892C135.652 22.0524 135.383 20.7096 134.861 19.5906C134.339 18.4716 133.578 17.5913 132.608 16.9945L132.578 16.9796Z" fill="#60584C"/>
<path d="M158.166 27.1103C158.017 27.8862 157.599 28.483 156.898 28.9306C156.197 29.3782 155.317 29.602 154.272 29.602C153.332 29.602 152.512 29.3931 151.796 28.9604C151.079 28.5427 150.512 27.9309 150.124 27.1402C149.886 26.6478 149.707 26.1107 149.617 25.5288H161.941C162.046 25.0364 162.09 24.4844 162.09 23.8578C162.09 22.3956 161.747 21.0677 161.046 19.8741C160.345 18.6805 159.39 17.7405 158.166 17.0542C156.943 16.3828 155.585 16.0396 154.093 16.0396C152.601 16.0396 151.184 16.4126 149.916 17.1437C148.647 17.8897 147.648 18.9043 146.917 20.2173C146.186 21.5302 145.827 22.9924 145.827 24.6187C145.827 26.245 146.186 27.7221 146.917 29.0201C147.648 30.3032 148.662 31.3178 149.975 32.034C151.288 32.7501 152.765 33.1082 154.436 33.1082C156.525 33.1082 158.226 32.6158 159.569 31.6162C160.897 30.6166 161.777 29.2588 162.195 27.5132L158.181 27.1103H158.166ZM150.05 21.754C150.408 21.008 150.915 20.4261 151.602 20.0233C152.273 19.6205 153.094 19.4116 154.048 19.4116C154.78 19.4116 155.436 19.5459 156.003 19.7846C156.585 20.0382 157.047 20.3963 157.405 20.8439C157.764 21.3064 157.943 21.8286 157.972 22.4404H149.781C149.856 22.2016 149.945 21.9629 150.05 21.7391V21.754Z" fill="#60584C"/>
<path d="M143.037 30.9299C143.097 31.7356 143.202 32.3473 143.366 32.765H139.143V17.6212L142.948 17.0094V28.1995C142.948 29.2141 142.978 30.1242 143.037 30.9299ZM141.053 15.4279C142.396 15.4279 143.485 14.3387 143.485 12.9959C143.485 11.6531 142.396 10.564 141.053 10.564C139.71 10.564 138.621 11.6531 138.621 12.9959C138.621 14.3387 139.71 15.4279 141.053 15.4279Z" fill="#60584C"/>
</svg>
