<svg width="149" height="45" viewBox="0 0 149 45" fill="none" xmlns="http://www.w3.org/2000/svg">
<path fill-rule="evenodd" clip-rule="evenodd" d="M2.45749 22.6144C3.71749 22.6144 4.73749 23.6356 4.73749 24.8944C4.73749 26.1544 3.71749 27.1756 2.45749 27.1756C1.19869 27.1756 0.177486 26.1544 0.177486 24.8944C0.177486 23.6356 1.19869 22.6144 2.45749 22.6144Z" fill="#60584C"/>
<path fill-rule="evenodd" clip-rule="evenodd" d="M2.45749 28.967C3.71749 28.967 4.73749 29.9882 4.73749 31.2482C4.73749 32.507 3.71749 33.5282 2.45749 33.5282C1.19869 33.5282 0.177486 32.507 0.177486 31.2482C0.177486 29.9882 1.19869 28.967 2.45749 28.967Z" fill="#60584C"/>
<path fill-rule="evenodd" clip-rule="evenodd" d="M79.6952 28.7808C78.7928 29.6832 77.6468 30.1344 76.2596 30.1344C74.87 30.1344 73.7252 29.6832 72.7892 28.7808C71.8868 27.8436 71.4356 26.664 71.4356 25.2408C71.4356 23.8188 71.8868 22.638 72.7892 21.7356C73.7252 20.7996 74.87 20.3484 76.2596 20.3484C77.6468 20.3484 78.7928 20.7996 79.6952 21.7356C80.5976 22.638 81.0488 23.8188 81.0488 25.2408C81.0488 26.664 80.5976 27.8436 79.6952 28.7808ZM81.0488 18.612C79.73 16.9116 77.8556 16.0788 75.4256 16.0788C73.1012 16.0788 71.0876 16.9812 69.422 18.7512C67.7912 20.5212 66.9584 22.6728 66.9584 25.2408C66.9584 27.8088 67.7912 29.9964 69.422 31.7652C71.0876 33.5352 73.1012 34.404 75.4256 34.404C77.8556 34.404 79.73 33.57 81.0488 31.8696V33.918H85.5248V10.5H81.0488V18.612ZM92.9468 23.706C93.4676 21.4848 95.0984 20.2008 97.4936 20.2008C99.5408 20.2008 101.276 21.3468 101.796 23.706H92.9468ZM97.4936 16.1748C94.82 16.1748 92.5988 17.0424 90.8984 18.8124C89.198 20.5476 88.3304 22.734 88.3304 25.3368C88.3304 27.9756 89.198 30.1608 90.9332 31.8972C92.6696 33.6312 94.9592 34.5 97.8404 34.5C101.172 34.5 103.705 33.2508 105.405 30.786L101.796 28.704C100.928 29.8488 99.6104 30.4392 97.91 30.4392C95.2376 30.4392 93.6056 29.3628 93.0164 27.1764H106.1C106.206 26.5692 106.264 25.9548 106.273 25.3368C106.273 22.734 105.44 20.5824 103.774 18.8124C102.144 17.0424 100.026 16.1748 97.4936 16.1748ZM116.788 23.4984C115.018 23.0472 113.63 22.5264 113.63 21.5892C113.63 20.7216 114.496 20.166 115.642 20.166C116.926 20.166 117.864 20.7564 118.419 21.936L122.236 19.854C120.883 17.4936 118.454 16.1748 115.642 16.1748C113.769 16.1748 112.207 16.6608 110.923 17.6676C109.672 18.6396 109.048 19.9932 109.048 21.6936C109.048 25.3032 112.276 26.3784 114.844 27.0384C116.614 27.4896 118.003 28.0092 118.003 28.9464C118.003 29.9532 117.204 30.4392 115.608 30.4392C113.838 30.4392 112.728 29.676 112.207 28.1832L108.32 30.3696C109.604 33.1116 112.033 34.5 115.608 34.5C117.586 34.5 119.252 34.014 120.571 33.0768C121.924 32.1048 122.583 30.7164 122.583 28.9464C122.618 25.2336 119.32 24.018 116.788 23.4984ZM141.255 16.6608H135.91L129.942 24.2964V10.5636H125.464V34.014H129.942V26.136L136.258 34.014H141.464L134.28 25.2336L141.255 16.6608ZM145.904 20.4708C144.84 20.4708 143.976 19.6068 143.976 18.5424C143.976 17.4768 144.84 16.614 145.904 16.614C146.968 16.6152 147.831 17.478 147.832 18.5424C147.832 19.6068 146.97 20.4708 145.904 20.4708ZM145.904 16.2612C144.645 16.2612 143.623 17.2824 143.623 18.5424C143.623 19.8012 144.645 20.8224 145.904 20.8224C147.163 20.8212 148.183 19.8012 148.184 18.5424C148.184 17.2824 147.164 16.2612 145.904 16.2612ZM146.224 18.3324C146.136 18.3936 146.029 18.426 145.921 18.4248H145.512V17.7552H145.874C146 17.7432 146.127 17.772 146.238 17.8356C146.313 17.904 146.35 18.0048 146.341 18.1056C146.342 18.1956 146.299 18.2808 146.224 18.3324ZM146.697 19.1184C146.72 18.8892 146.588 18.672 146.374 18.5844C146.576 18.504 146.709 18.3084 146.71 18.0912C146.721 17.8992 146.64 17.712 146.488 17.592C146.306 17.4672 146.086 17.406 145.866 17.4204H145.142V19.6464H145.512V18.7596H145.974C146.174 18.7668 146.289 18.8544 146.317 19.0224C146.324 19.1172 146.326 19.2132 146.324 19.3092C146.319 19.4232 146.331 19.536 146.361 19.6464H146.742V19.6044C146.706 19.5 146.691 19.3896 146.697 19.2792V19.1184ZM2.45725 16.2612C1.19845 16.2612 0.177246 17.2824 0.177246 18.5424C0.177246 19.8012 1.19845 20.8224 2.45725 20.8224C3.71725 20.8224 4.73845 19.8012 4.73845 18.5424C4.73845 17.2824 3.71725 16.2612 2.45725 16.2612ZM66.7148 16.6608H61.37L55.4012 24.2964V10.5636H50.924V34.014H55.4012V26.136L61.718 34.014H66.9224L59.7392 25.2336L66.7148 16.6608ZM42.344 34.014H46.82V10.5636H42.344V34.014ZM32.426 28.878C31.5236 29.7804 30.3788 30.2304 28.9904 30.2304C27.602 30.2304 26.4572 29.7804 25.5548 28.878C24.6524 27.9408 24.2012 26.76 24.2012 25.3368C24.2012 23.9148 24.6524 22.734 25.5548 21.8316C26.4572 20.8956 27.602 20.4444 28.9904 20.4444C30.3788 20.4444 31.5236 20.8956 32.426 21.8316C33.3632 22.734 33.8144 23.9148 33.8144 25.3368C33.8144 26.76 33.3632 27.9408 32.426 28.878ZM33.8144 18.708C32.4608 17.0076 30.5864 16.1748 28.1576 16.1748C25.832 16.1748 23.8532 17.0772 22.1876 18.8472C20.5568 20.6172 19.724 22.7688 19.724 25.3368C19.724 27.906 20.5568 30.0924 22.1876 31.8612C23.8532 33.6312 25.832 34.5 28.1576 34.5C30.5864 34.5 32.4608 33.666 33.8144 31.9656V34.014H38.2916V16.6608H33.8144V18.708ZM13.7456 10.5H9.26965V28.428C9.26965 33.1824 11.5244 34.9524 17.6684 34.2576V30.198C15.0992 30.336 13.7456 30.3024 13.7456 28.428V20.868H17.6684V16.5636H13.7456V10.5Z" fill="#60584C"/>
</svg>
