<svg width="86" height="45" viewBox="0 0 86 45" fill="none" xmlns="http://www.w3.org/2000/svg">
<path d="M4.65558 24.5278H14.9972C15.1916 23.1001 15.5629 21.7026 16.1022 20.3682H0.242676V44.4046H4.65558V34.5686H14.2346V30.4089H4.65558V24.5278Z" fill="#60584C"/>
<path d="M21.3462 24.5277C21.6811 22.9707 22.3467 21.5055 23.297 20.2327C24.2473 18.9599 25.4598 17.91 26.851 17.1551C28.2423 16.4002 29.7792 15.9583 31.356 15.8598C32.9328 15.7613 34.5121 16.0086 35.9851 16.5846C36.3998 13.1927 38.0308 10.071 40.5706 7.80831C43.1105 5.5456 46.3835 4.29824 49.7724 4.30147C53.1614 4.30469 56.4321 5.55827 58.9676 7.8258C61.5032 10.0933 63.1285 13.218 63.5368 16.6107C65.4431 15.7937 67.5204 15.4657 69.5832 15.656C71.6459 15.8464 73.6298 16.5491 75.3574 17.7015C77.0851 18.8538 78.5026 20.4198 79.4835 22.2597C80.4643 24.0994 80.9779 26.1556 80.9782 28.2445C80.9782 31.9684 79.6773 34.7376 77.6727 37.3305H82.5248C84.3139 34.6452 85.2605 31.4794 85.2424 28.2445C85.2486 25.8578 84.7535 23.4968 83.7899 21.317C82.8261 19.1371 81.4156 17.1876 79.6512 15.597C77.8867 14.0063 75.8083 12.8105 73.5525 12.0881C71.2968 11.3657 68.9149 11.1332 66.5638 11.4058C65.1988 8.02153 62.8606 5.12669 59.8502 3.094C56.8398 1.0613 53.295 -0.016207 49.672 0.000184267C46.0492 0.0165755 42.5141 1.12612 39.5219 3.18598C36.5297 5.24583 34.2173 8.1617 32.8826 11.5582C32.6063 11.5439 32.3325 11.5344 32.0538 11.5344C28.4228 11.5403 24.9128 12.8519 22.1547 15.2334C19.3967 17.6151 17.5712 20.9105 17.0065 24.5277H21.3462Z" fill="#60584C"/>
<path d="M21.2566 26.3777H16.9713V44.4117H21.2566V26.3777Z" fill="#60584C"/>
<path d="M23.0935 26.3777H27.733L32.0515 38.3377H32.146L36.207 26.3777H40.9103L33.6618 44.4045H30.309L23.0935 26.3777Z" fill="#60584C"/>
<path d="M63.1118 44.4046L68.3959 36.2805C68.0154 36.364 67.6257 36.3969 67.2366 36.3781C63.8532 36.3448 60.1793 33.3566 60.1793 28.5469C60.1793 23.4444 64.0775 19.9037 68.429 19.9037C72.7144 19.9037 76.7094 23.2491 76.7094 28.5135C76.6988 29.5348 76.5135 30.5465 76.1616 31.5041C75.7975 32.4512 75.3328 33.3557 74.7756 34.2018L68.1385 44.4046H63.1118ZM68.4621 23.9967C65.8507 23.9967 64.4647 26.2707 64.4647 28.1564C64.4647 30.5946 66.1175 32.3803 68.4621 32.3803C71.038 32.3803 72.424 30.1065 72.424 28.3207C72.424 25.9563 70.7169 24.0063 68.4621 24.0063V23.9967Z" fill="#60584C"/>
<path d="M53.705 39.183C52.8692 40.3736 51.5612 41.0355 49.8659 41.0355C46.7965 41.0355 45.1296 38.4997 44.9359 37.3306H58.8239C58.9891 36.6161 59.0754 35.8855 59.0813 35.1519C59.0813 30.6042 55.5042 25.6635 49.8329 25.6635C44.3244 25.6635 40.4263 30.3422 40.4263 35.4448C40.4162 36.6998 40.6535 37.9443 41.1241 39.1061C41.5948 40.268 42.2896 41.3239 43.1682 42.2128C44.0468 43.1017 45.0917 43.8058 46.2422 44.2842C47.3928 44.7626 48.6261 45.0059 49.8706 44.9999C53.8585 44.9999 57.1452 42.2616 58.3257 39.183H53.705ZM49.8659 29.6279C51.9909 29.6279 54.215 30.9613 54.6991 33.8542H44.8061C45.6136 30.5041 48.2864 29.6279 49.8659 29.6279Z" fill="#60584C"/>
<path d="M74.3435 42.926C74.3331 42.6494 74.3791 42.3734 74.4787 42.1154C74.5783 41.8574 74.7294 41.6228 74.9227 41.4261C75.116 41.2294 75.3473 41.0749 75.6022 40.972C75.8571 40.8693 76.1303 40.8203 76.4048 40.8284C77.7034 40.8284 78.5298 41.7402 78.5298 42.8974C78.5156 43.4447 78.2909 43.965 77.9033 44.3484C77.5158 44.7318 76.9956 44.9482 76.4527 44.9519C75.9098 44.9556 75.3868 44.7463 74.9941 44.3682C74.6014 43.9902 74.3698 43.4731 74.3482 42.926H74.3435ZM78.1614 42.8974C78.1614 41.9165 77.5027 41.1712 76.4072 41.176C75.9494 41.1807 75.5122 41.3686 75.1919 41.6984C74.8716 42.0282 74.6942 42.4728 74.6988 42.9344C74.7036 43.3959 74.8899 43.8368 75.2169 44.1599C75.5439 44.4829 75.9848 44.6617 76.4425 44.657C77.5287 44.6427 78.1591 43.8928 78.1591 42.8974H78.1614ZM75.7177 41.8141H76.5417C76.6374 41.8063 76.7337 41.8182 76.8247 41.8491C76.9157 41.88 76.9995 41.9292 77.0711 41.9939C77.1427 42.0584 77.2005 42.137 77.2409 42.2248C77.2815 42.3126 77.3038 42.4078 77.3067 42.5046C77.3142 42.6374 77.2817 42.7695 77.2135 42.8834C77.1452 42.9973 77.0443 43.0877 76.9242 43.1427L77.3964 44.0213H76.9785L76.5889 43.2141H76.1002V44.0117H75.7248L75.7177 41.8141ZM76.5157 42.8951C76.6153 42.8951 76.7108 42.8552 76.7812 42.7842C76.8516 42.7132 76.8912 42.6169 76.8912 42.5165C76.8912 42.4161 76.8516 42.3198 76.7812 42.2488C76.7108 42.1778 76.6153 42.1379 76.5157 42.1379H76.1002V42.8951H76.5157Z" fill="#60584C"/>
</svg>
