<svg width="163" height="45" viewBox="0 0 163 45" fill="none" xmlns="http://www.w3.org/2000/svg">
<path fill-rule="evenodd" clip-rule="evenodd" d="M47.7411 36.3928V12.3377C47.7411 12.0345 47.9869 11.7887 48.29 11.7887H61.633C61.9361 11.7887 62.1821 12.0345 62.1821 12.3377V14.2656C62.1821 14.5689 61.9361 14.8146 61.633 14.8146H50.8449V22.736H60.461C60.7644 22.736 61.0101 22.9818 61.0101 23.285V25.1336C61.0101 25.4368 60.7644 25.6826 60.461 25.6826H50.8449V33.9171H61.6344C61.9375 33.9171 62.1833 34.1629 62.1833 34.4662V36.3941C62.1833 36.6972 61.9375 36.9432 61.6342 36.9429L48.29 36.9417C47.9869 36.9417 47.7411 36.6959 47.7411 36.3928Z" fill="#60584C"/>
<path d="M161.173 14.2083L160.436 12V14.2083H160.029V11.5909H160.712L161.382 13.7177L162.065 11.5909H162.725V14.2083H162.317V12L161.58 14.2083H161.173Z" fill="#60584C"/>
<path d="M158.475 11.9185H157.657V11.5909H159.702V11.9185H158.884V14.2069H158.475V11.9185Z" fill="#60584C"/>
<path fill-rule="evenodd" clip-rule="evenodd" d="M150.336 34.2289H150.341C151.862 34.2289 152.97 33.8675 153.697 33.2119C154.418 32.5612 154.809 31.578 154.809 30.2293V30.2259C154.819 29.3311 154.512 28.4617 153.942 27.7721C153.372 27.0824 152.576 26.6171 151.695 26.4587L151.683 26.4566L147.529 25.3603C146.014 24.9883 144.677 24.0975 143.75 22.8426C142.825 21.5893 142.367 20.0519 142.455 18.4966C142.457 16.433 143.189 14.6923 144.485 13.468C145.781 12.2434 147.619 11.5576 149.792 11.5576C152.223 11.5576 154.011 12.3797 155.261 13.6437C156.504 14.9015 157.193 16.5752 157.474 18.2518C157.53 18.5895 157.266 18.884 156.935 18.884H155.021C154.735 18.884 154.51 18.6686 154.471 18.403C154.318 17.351 153.794 16.3854 152.99 15.6829C152.133 14.9341 151.022 14.5408 149.885 14.5834L149.879 14.5836H149.873C148.523 14.5836 147.448 14.9765 146.714 15.6479C145.982 16.3167 145.56 17.2877 145.56 18.5053V18.5123L145.56 18.5194C145.518 19.417 145.793 20.3008 146.336 21.0165C146.88 21.7321 147.657 22.234 148.533 22.4346L148.539 22.436L152.842 23.6099C154.347 23.982 155.679 24.8585 156.615 26.0934C157.552 27.3281 158.037 28.8464 157.99 30.3953C157.989 32.5367 157.259 34.3009 155.929 35.5285C154.601 36.753 152.706 37.4151 150.424 37.4163C149.349 37.461 148.277 37.285 147.273 36.899C146.266 36.5125 145.35 35.9234 144.581 35.1683C143.812 34.4134 143.206 33.5083 142.801 32.5096C142.425 31.5838 142.23 30.5955 142.223 29.5978C142.222 29.3046 142.451 29.0727 142.732 29.054L144.586 28.9308C144.907 28.9095 145.164 29.1632 145.178 29.4651C145.205 30.0508 145.336 30.6278 145.564 31.1695C145.824 31.7883 146.206 32.3485 146.688 32.8164C147.169 33.2844 147.74 33.6505 148.366 33.8933C148.992 34.1361 149.66 34.2503 150.331 34.2292L150.336 34.2289Z" fill="#60584C"/>
<path fill-rule="evenodd" clip-rule="evenodd" d="M130.092 26.5576V36.3928C130.092 36.6959 130.338 36.9417 130.641 36.942L132.652 36.9429C132.955 36.9432 133.201 36.6972 133.201 36.3941V26.5569L141.154 12.6097C141.363 12.2437 141.099 11.7887 140.678 11.7887H138.514C138.317 11.7887 138.135 11.8946 138.037 12.066L131.645 23.2891L125.253 12.066C125.156 11.8946 124.974 11.7887 124.776 11.7887H122.534C122.112 11.7887 121.848 12.2457 122.059 12.6117L130.092 26.5576Z" fill="#60584C"/>
<path fill-rule="evenodd" clip-rule="evenodd" d="M113.4 34.2289H113.404C114.925 34.2289 116.034 33.8675 116.76 33.2119C117.481 32.5612 117.873 31.578 117.873 30.2293V30.2259C117.883 29.3311 117.575 28.4617 117.005 27.7721C116.435 27.0824 115.639 26.6171 114.758 26.4587L114.746 26.4566L110.593 25.3603C109.078 24.9883 107.741 24.0975 106.814 22.8426C105.888 21.5893 105.43 20.0519 105.519 18.4966C105.521 16.433 106.252 14.6923 107.548 13.468C108.845 12.2434 110.682 11.5576 112.856 11.5576C115.286 11.5576 117.075 12.3797 118.324 13.6437C119.568 14.9015 120.257 16.5752 120.537 18.2518C120.594 18.5895 120.329 18.884 119.999 18.884H118.085C117.799 18.884 117.573 18.6685 117.534 18.403C117.381 17.351 116.857 16.3854 116.053 15.6829C115.196 14.9341 114.085 14.5408 112.948 14.5834L112.942 14.5836H112.937C111.586 14.5836 110.511 14.9765 109.777 15.6479C109.046 16.3167 108.624 17.2877 108.624 18.5053V18.5123L108.624 18.5194C108.582 19.417 108.856 20.3008 109.4 21.0165C109.943 21.7321 110.721 22.234 111.597 22.4346L111.603 22.436L115.906 23.6099C117.41 23.982 118.742 24.8585 119.679 26.0934C120.615 27.3281 121.1 28.8464 121.054 30.3953C121.052 32.5367 120.322 34.3009 118.992 35.5285C117.664 36.7528 115.77 37.4151 113.487 37.4163C112.413 37.4618 111.34 37.2865 110.336 36.9012C109.329 36.5155 108.413 35.9269 107.643 35.1725C106.873 34.4178 106.267 33.5135 105.861 32.5151C105.485 31.5892 105.288 30.601 105.282 29.6031C105.28 29.3103 105.509 29.0784 105.79 29.0591L107.648 28.9315C107.97 28.9094 108.227 29.1633 108.241 29.4657C108.269 30.0512 108.399 30.628 108.627 31.1695C108.887 31.7883 109.27 32.3485 109.751 32.8164C110.233 33.2844 110.803 33.6505 111.429 33.8933C112.055 34.1361 112.724 34.2503 113.395 34.2292L113.4 34.2289Z" fill="#60584C"/>
<path fill-rule="evenodd" clip-rule="evenodd" d="M88.3224 36.3928V12.3377C88.3224 12.0345 88.5682 11.7887 88.8713 11.7887H102.214C102.518 11.7887 102.763 12.0345 102.763 12.3377V14.2657C102.763 14.5689 102.518 14.8147 102.214 14.8147H91.4262V22.736H101.043C101.346 22.736 101.591 22.9818 101.591 23.285V25.1337C101.591 25.4369 101.346 25.6827 101.043 25.6827H91.4262V33.9171H102.216C102.519 33.9171 102.765 34.1629 102.765 34.4662V36.3941C102.765 36.6974 102.519 36.9432 102.215 36.9432L88.8713 36.9417C88.5682 36.9417 88.3224 36.6959 88.3224 36.3928Z" fill="#60584C"/>
<path fill-rule="evenodd" clip-rule="evenodd" d="M83.9193 12.3377V36.3928C83.9193 36.6959 83.6736 36.9417 83.3707 36.942L81.3342 36.9429C81.142 36.9432 80.9638 36.8427 80.8642 36.6783L69.3759 17.7027V36.3928C69.3759 36.6959 69.1299 36.9417 68.8267 36.9417H66.821C66.5176 36.9417 66.2718 36.6959 66.2718 36.3928V12.3377C66.2718 12.0345 66.5176 11.7887 66.821 11.7887H68.935C69.1271 11.7887 69.3054 11.8891 69.4047 12.0534L80.8933 31.0291V12.3377C80.8933 12.0345 81.139 11.7887 81.4424 11.7887H83.3702C83.6736 11.7887 83.9193 12.0345 83.9193 12.3377Z" fill="#60584C"/>
<path fill-rule="evenodd" clip-rule="evenodd" d="M35.1456 14.5011H35.1391C33.7892 14.5011 32.4015 14.9137 31.3547 15.8779C30.3133 16.837 29.575 18.373 29.575 20.69V28.041C29.575 30.358 30.3133 31.8941 31.3547 32.8532C32.4015 33.8173 33.7892 34.2299 35.1391 34.2299C36.4891 34.2299 37.8765 33.8173 38.9236 32.8532C39.9649 31.8941 40.703 30.358 40.703 28.041V26.3865H35.3874C35.084 26.3865 34.8383 26.1407 34.8383 25.8375V23.9122C34.8383 23.609 35.084 23.3633 35.3874 23.3633H43.1787C43.4818 23.3633 43.7275 23.609 43.7275 23.9122V28.0397C43.7275 30.7602 42.887 33.0662 41.3804 34.6951C39.8718 36.3263 37.7171 37.2545 35.1391 37.2545C32.5999 37.2545 30.4459 36.3253 28.9281 34.6954C27.4121 33.0672 26.5505 30.7615 26.5505 28.0397V20.69C26.5505 17.9695 27.3908 15.6635 28.8981 14.0347C30.4064 12.4047 32.5611 11.4771 35.1409 11.4765C37.2817 11.4045 39.3669 12.168 40.9549 13.6058C42.4764 14.9831 43.4272 16.8756 43.628 18.9114C43.6603 19.2377 43.3999 19.5058 43.0853 19.5058H41.1503C40.8656 19.5058 40.6389 19.2916 40.6009 19.0247C40.4222 17.7673 39.7946 16.614 38.8305 15.7801C37.8124 14.8998 36.4965 14.4422 35.1523 14.5009L35.1456 14.5011Z" fill="#60584C"/>
<path d="M13.3787 28.3451H10.3308C9.09043 28.3451 7.90081 28.8273 7.02372 29.6858C6.14663 30.5442 5.65387 31.7085 5.65387 32.9224C5.65387 34.1366 6.14663 35.3008 7.02372 36.1592C7.90081 37.0177 9.09043 37.5 10.3308 37.5H13.3787C14.6191 37.5 15.8087 37.0177 16.6858 36.1592C17.5629 35.3008 18.0557 34.1366 18.0557 32.9224C18.0557 31.7085 17.5629 30.5442 16.6858 29.6858C15.8087 28.8273 14.6191 28.3451 13.3787 28.3451Z" fill="#60584C"/>
<path d="M13.082 16.5141H5.33007C3.99649 16.5141 2.71752 17.0334 1.77452 17.9579C0.831527 18.8824 0.301758 20.1362 0.301758 21.4437C0.301758 22.751 0.831527 24.0049 1.77452 24.9294C2.71752 25.8539 3.99649 26.3732 5.33007 26.3732H13.082C13.7423 26.3732 14.3962 26.2457 15.0063 25.998C15.6163 25.7503 16.1707 25.3871 16.6376 24.9294C17.1045 24.4716 17.4749 23.9282 17.7276 23.3301C17.9803 22.732 18.1103 22.091 18.1103 21.4437C18.1103 20.7963 17.9803 20.1553 17.7276 19.5572C17.4749 18.9591 17.1045 18.4157 16.6376 17.9579C16.1707 17.5002 15.6163 17.1371 15.0063 16.8893C14.3962 16.6416 13.7423 16.5141 13.082 16.5141Z" fill="#60584C"/>
<path d="M11.006 11.0211C11.006 9.07646 12.5824 7.5 14.5271 7.5C16.4718 7.5 18.0483 9.07646 18.0483 11.0211C18.0483 12.9658 16.4718 14.5422 14.5271 14.5422C12.5824 14.5422 11.006 12.9658 11.006 11.0211Z" fill="#60584C"/>
</svg>
