<svg width="192" height="45" viewBox="0 0 192 45" fill="none" xmlns="http://www.w3.org/2000/svg">
<path d="M12.2524 28.4024L15.0426 28.7244C14.6134 30.1187 13.6476 31.4066 12.2524 32.587C10.8574 33.8752 9.14044 34.4112 7.10165 34.4112C5.9208 34.4112 4.74048 34.1962 3.77455 33.5531C2.70169 33.0166 1.95014 32.158 1.41352 31.0847C0.877287 30.0113 0.555176 28.7242 0.555176 27.3284C0.555176 25.5039 0.984212 23.7871 1.84268 22.07C2.70169 20.3535 3.77455 19.066 5.16979 18.2072C6.45743 17.3486 7.96012 16.9194 9.46242 16.9194C11.5015 16.9194 13.0039 17.5631 14.2917 18.8504C15.472 20.0314 16.0086 21.7479 16.0086 23.8946C16.0086 24.7534 15.9014 25.5039 15.794 26.3626H3.45284V27.3286C3.45284 28.8303 3.77455 30.0113 4.5257 30.8698C5.27725 31.7287 6.13558 32.158 7.10165 32.158C8.17437 32.158 9.03298 31.8361 9.99878 31.1922C10.9646 30.5481 11.7159 29.5818 12.2524 28.4024ZM3.9892 24.2159H13.3256V23.5732C13.3256 22.1777 13.0039 21.1044 12.2524 20.2463C11.6088 19.4951 10.6429 19.173 9.56961 19.173C8.28197 19.173 7.20858 19.6023 6.24304 20.4611C5.16979 21.2117 4.41864 22.4992 3.9892 24.2159Z" fill="#60584C"/>
<path d="M33.8226 25.9329L36.9345 26.2567C35.9687 28.939 34.5735 30.9773 32.6421 32.373C30.818 33.7681 28.7787 34.4113 26.5252 34.4113C23.7352 34.4113 21.4814 33.5532 19.8717 31.8361C18.2622 30.226 17.4035 27.7584 17.4035 24.5385C17.4035 20.3536 18.584 16.9196 21.1593 14.2366C23.3057 11.7681 26.0961 10.5879 29.4229 10.5879C31.891 10.5879 33.8227 11.2316 35.3251 12.5192C36.8273 13.9143 37.686 15.6314 38.0082 17.8851L35.1105 18.1C34.7885 16.4899 34.1444 15.202 33.1786 14.3438C32.2132 13.5926 31.0326 13.1633 29.5303 13.1633C26.7401 13.1633 24.3791 14.4511 22.6622 16.9196C21.1593 19.0661 20.4085 21.6419 20.4085 24.6461C20.4085 27.007 20.9452 28.7244 22.1253 30.0115C23.3056 31.2988 24.8083 31.8361 26.74 31.8361C28.242 31.8361 29.7445 31.4066 31.0325 30.3334C32.32 29.2607 33.2861 27.8649 33.8226 25.9329Z" fill="#60584C"/>
<path d="M37.2565 34.0902L42.0853 11.0175H44.8758L40.0469 34.0902H37.2565ZM43.2663 34.0902L46.7003 17.3482H49.5977L46.0565 34.0902H43.2663ZM47.3442 14.2367L47.988 11.0175H50.8856L50.2416 14.2367H47.3442ZM49.1688 34.0902L52.71 17.3482H55.2856L54.7487 20.2463C55.8222 19.173 56.8951 18.3141 57.8609 17.7778C58.8267 17.2413 59.9001 16.9196 60.8655 16.9196C62.2608 16.9196 63.3337 17.3482 64.0848 18.1002C64.8365 18.8506 65.2657 19.8167 65.2657 21.1045C65.2657 21.7482 65.0508 22.7141 64.8365 24.0024L62.5831 34.0904H59.6854L62.0461 23.4657C62.2608 22.3928 62.3684 21.6421 62.3684 21.2119C62.3684 20.6755 62.1537 20.1391 61.8314 19.8168C61.4025 19.4954 60.8656 19.2803 60.1145 19.2803C58.6123 19.2803 57.3241 19.8168 56.1441 20.8902C54.9638 21.9628 54.1051 23.7874 53.5688 26.2568L52.0661 34.0902H49.1688ZM65.6951 34.0902L69.129 17.3482H72.0264L68.4847 34.0902H65.6951ZM69.7729 14.2367L70.4167 11.0175H73.3142L72.6704 14.2367H69.7729Z" fill="#60584C"/>
<path d="M83.0799 27.9733L85.8699 28.2948C85.1184 30.3334 84.1525 31.9432 82.865 32.9093C81.4699 33.9817 79.9676 34.4112 78.2509 34.4112C76.533 34.4112 75.0313 33.8751 73.8506 32.6945C72.7778 31.5136 72.1332 29.904 72.1332 27.7583C72.1332 25.9328 72.5628 24.1095 73.3141 22.3924C73.9579 20.5679 75.0312 19.2801 76.4263 18.314C77.714 17.4555 79.3236 16.9194 81.0403 16.9194C82.865 16.9194 84.26 17.4555 85.3335 18.5289C86.2994 19.495 86.8353 20.7824 86.8353 22.4989L84.0457 22.8213C84.0457 21.6416 83.7236 20.8898 83.1871 20.246C82.5436 19.6022 81.7921 19.2799 80.7186 19.2799C79.5386 19.2799 78.5726 19.7091 77.714 20.3535C76.8556 21.1042 76.2116 22.1775 75.7826 23.68C75.2455 25.1818 75.0311 26.5776 75.0311 27.9731C75.0311 29.368 75.3529 30.4412 75.9972 31.192C76.6405 31.9429 77.3923 32.2648 78.3576 32.2648C79.3236 32.2648 80.1824 31.9429 81.0403 31.192C81.8989 30.5481 82.5434 29.3683 83.0799 27.9733Z" fill="#60584C"/>
<path d="M97.5669 31.9432C96.6012 32.8021 95.6355 33.4452 94.6697 33.8752C93.8114 34.3052 92.8455 34.4113 91.7721 34.4113C90.2697 34.4113 88.9819 33.9818 88.016 33.1243C87.158 32.1581 86.6209 30.9774 86.6209 29.5818C86.6209 28.7244 86.8351 27.8649 87.2647 27.1141C87.6937 26.3628 88.3382 25.8263 88.9818 25.3965C89.7332 24.9684 90.5917 24.6461 91.5577 24.4311C92.201 24.3244 93.3816 24.2157 95.2063 24.1096C97.0304 24.1096 98.3186 23.8947 99.0699 23.5731C99.2843 22.8214 99.3914 22.1776 99.3914 21.6418C99.3914 20.9968 99.1765 20.4611 98.64 20.1387C97.9958 19.6023 97.0304 19.2801 95.7422 19.2801C94.5619 19.2801 93.5958 19.6023 92.8452 20.1387C91.9868 20.675 91.4496 21.4271 91.128 22.3924L88.2306 22.07C88.8746 20.4609 89.8404 19.1729 91.0207 18.314C92.3083 17.3486 93.9188 16.9194 95.8496 16.9194C97.9958 16.9194 99.6064 17.4555 100.787 18.4215C101.752 19.1729 102.182 20.1386 102.182 21.3195C102.182 22.1775 102.074 23.2502 101.752 24.4309L100.893 28.6158C100.572 29.904 100.357 30.9771 100.357 31.836C100.357 32.3729 100.572 33.1242 100.787 34.09H97.8887C97.7818 33.5532 97.5669 32.8021 97.5669 31.9432ZM98.6402 25.6115C98.2107 25.719 97.7818 25.9329 97.3525 25.9329C96.9231 26.0416 96.0649 26.1479 95.0988 26.2567C93.3817 26.3628 92.201 26.5777 91.5577 26.7922C90.8065 27.007 90.2696 27.436 89.9472 27.8649C89.6256 28.4024 89.4113 28.939 89.4113 29.4755C89.4113 30.3334 89.7331 30.9773 90.2694 31.5138C90.8063 32.0508 91.6649 32.265 92.6306 32.265C93.5959 32.265 94.4545 32.0507 95.3131 31.5138C96.279 30.9773 96.923 30.3334 97.4593 29.4755C97.9959 28.5098 98.3187 27.2211 98.6402 25.6115Z" fill="#60584C"/>
<path d="M102.718 34.0902L107.547 11.0175H110.337L105.508 34.0902H102.718ZM113.235 34.0902L111.733 11.0175H114.844L115.382 22.3925C115.488 22.929 115.488 24.4312 115.596 26.8993V29.7967C116.884 27.221 117.85 25.3964 118.386 24.3245L125.469 11.0175H128.581L129.332 24.5386C129.439 26.0417 129.439 27.8651 129.547 30.1187C129.761 29.5818 130.083 28.7244 130.513 27.651C131.371 26.0417 131.907 24.7536 132.23 24.0023L138.776 11.0175H141.995L130.19 34.0902H126.864L126.22 20.1388C126.113 18.9581 126.005 17.4557 125.899 15.6315C125.254 17.1342 124.718 18.2075 124.288 19.0662L116.347 34.0902H113.235Z" fill="#60584C"/>
<path d="M136.844 27.7586C136.844 24.4312 137.81 21.7482 139.741 19.6025C141.244 17.8852 143.391 16.9197 145.966 16.9197C147.898 16.9197 149.614 17.5634 150.795 18.8506C151.976 20.1388 152.618 21.8556 152.618 24.0023C152.618 25.9329 152.297 27.651 151.439 29.3682C150.688 30.9773 149.614 32.265 148.219 33.1243C146.717 33.9818 145.214 34.4113 143.604 34.4113C142.317 34.4113 141.136 34.1964 140.063 33.6607C138.991 33.0169 138.238 32.2652 137.702 31.2988C137.059 30.2261 136.844 29.0458 136.844 27.7586ZM139.634 27.4362C139.634 29.0459 139.956 30.2261 140.707 31.085C141.566 31.8363 142.532 32.2652 143.604 32.2652C144.248 32.2652 144.893 32.1581 145.429 31.9433C146.073 31.6217 146.61 31.299 147.146 30.7625C147.682 30.2261 148.113 29.6906 148.434 29.0459C148.863 28.4025 149.184 27.651 149.4 26.8993C149.722 25.9331 149.829 24.861 149.829 23.8948C149.829 22.3927 149.507 21.2118 148.648 20.3537C147.898 19.6025 146.931 19.1732 145.858 19.1732C144.893 19.1732 144.141 19.3878 143.391 19.8167C142.639 20.2463 141.996 20.7828 141.351 21.6419C140.707 22.4992 140.279 23.4655 140.063 24.5386C139.741 25.6115 139.634 26.5778 139.634 27.4362Z" fill="#60584C"/>
<path d="M152.833 34.0902L156.267 17.3489H158.843L158.092 20.7826C158.95 19.4951 159.809 18.5292 160.667 17.8852C161.418 17.2414 162.277 16.9196 163.136 16.9196C163.779 16.9196 164.424 17.1341 165.282 17.6705L164.102 20.2461C163.565 19.9239 163.029 19.7092 162.492 19.7092C161.527 19.7092 160.453 20.2461 159.38 21.3195C158.307 22.4989 157.555 24.4309 156.912 27.3284L155.517 34.09L152.833 34.0902Z" fill="#60584C"/>
<path d="M162.492 34.0902L167.213 11.0175H170.111L167.107 25.2905L175.477 17.3489H179.233L172.15 23.5732L176.443 34.0902H173.33L170.004 25.504L166.462 28.5098L165.282 34.0902H162.492Z" fill="#60584C"/>
<path d="M176.658 28.4024L179.555 28.1875C179.555 29.0459 179.662 29.6906 179.877 30.3336C180.092 30.8701 180.628 31.299 181.272 31.7288C182.023 32.0508 182.774 32.2652 183.632 32.2652C184.921 32.2652 185.887 32.0508 186.529 31.5139C187.174 30.9774 187.496 30.4416 187.496 29.6906C187.496 29.2607 187.282 28.7244 186.959 28.2949C186.529 27.8651 185.564 27.3287 184.061 26.6849C182.559 26.0417 181.594 25.6116 181.163 25.3966C180.413 24.9685 179.876 24.4312 179.555 23.7874C179.233 23.2505 179.018 22.6076 179.018 21.8556C179.018 20.4612 179.555 19.3878 180.628 18.4217C181.594 17.4557 183.095 16.9197 185.027 16.9197C187.066 16.9197 188.676 17.4558 189.857 18.4217C190.93 19.3878 191.466 20.6752 191.466 22.2852L188.784 22.4993C188.784 21.5334 188.354 20.6753 187.71 20.0318C187.066 19.4954 186.101 19.1733 184.813 19.1733C183.847 19.1733 183.095 19.3879 182.559 19.8168C181.916 20.3539 181.701 20.7829 181.701 21.3199C181.701 21.8558 181.916 22.3927 182.344 22.8217C182.667 23.0366 183.525 23.4655 184.813 24.0024C187.066 24.9686 188.462 25.7191 188.998 26.2568C189.857 27.1142 190.393 28.1875 190.393 29.3683C190.393 30.2261 190.072 31.085 189.535 31.8363C189.106 32.5871 188.247 33.2307 187.282 33.7683C186.208 34.1964 185.028 34.4114 183.525 34.4114C181.594 34.4114 179.984 33.982 178.589 33.0168C177.301 32.0508 176.658 30.5481 176.658 28.4024Z" fill="#60584C"/>
</svg>
