<svg width="234" height="40" viewBox="0 0 234 40" fill="none" xmlns="http://www.w3.org/2000/svg">
<path d="M61.8625 10.1727V30.6991H58.3241L49.8947 17.7799H49.7528V30.6991H45.6562V10.1727H49.2513L57.6146 23.0819H57.7849V10.1727H61.8625ZM65.1714 30.6991V15.3043H69.2017V30.6991H65.1714ZM67.196 13.3198C66.5968 13.3198 66.0828 13.1093 65.6539 12.6884C65.2313 12.2607 65.02 11.7496 65.02 11.1549C65.02 10.5669 65.2313 10.0624 65.6539 9.64146C66.0828 9.21383 66.5968 9 67.196 9C67.7952 9 68.306 9.21383 68.7285 9.64146C69.1575 10.0624 69.372 10.5669 69.372 11.1549C69.372 11.7496 69.1575 12.2607 68.7285 12.6884C68.306 13.1093 67.7952 13.3198 67.196 13.3198ZM72.4301 30.6991V15.3043H76.2711V18.0205H76.4414C76.7442 17.1184 77.2488 16.4067 77.9551 15.8856C78.6616 15.3644 79.5068 15.1038 80.4906 15.1038C81.4871 15.1038 82.3355 15.3678 83.0356 15.8956C83.7357 16.4169 84.2024 17.125 84.4357 18.0205H84.5872C84.8835 17.1384 85.4197 16.4336 86.1954 15.9057C86.9776 15.3712 87.9016 15.1038 88.9675 15.1038C90.3235 15.1038 91.4241 15.5615 92.2693 16.4769C93.1207 17.3856 93.5464 18.6752 93.5464 20.3457V30.6991H89.5257V21.1876C89.5257 20.3323 89.3111 19.6908 88.8823 19.2633C88.4534 18.8357 87.9173 18.6218 87.2739 18.6218C86.5424 18.6218 85.9716 18.8691 85.5615 19.3634C85.1516 19.8513 84.9466 20.496 84.9466 21.2978V30.6991H81.0393V21.0974C81.0393 20.3424 80.8344 19.741 80.4244 19.2934C80.0207 18.8456 79.4878 18.6218 78.8256 18.6218C78.3777 18.6218 77.9741 18.742 77.6145 18.9827C77.2613 19.2164 76.9807 19.5472 76.7726 19.9749C76.5644 20.3958 76.4604 20.8903 76.4604 21.4582V30.6991H72.4301ZM96.8056 30.6991V10.1727H100.836V17.8901H100.959C101.136 17.4759 101.391 17.055 101.725 16.6273C102.066 16.1929 102.507 15.8321 103.05 15.5448C103.598 15.2508 104.28 15.1038 105.093 15.1038C106.153 15.1038 107.13 15.3978 108.026 15.9858C108.922 16.5671 109.638 17.4458 110.174 18.6218C110.71 19.7911 110.978 21.2578 110.978 23.0218C110.978 24.739 110.716 26.1889 110.193 27.3717C109.675 28.5476 108.969 29.4396 108.073 30.0477C107.184 30.649 106.187 30.9497 105.084 30.9497C104.302 30.9497 103.636 30.8127 103.088 30.5388C102.545 30.2649 102.1 29.9208 101.754 29.5064C101.407 29.0855 101.142 28.6612 100.959 28.2336H100.779V30.6991H96.8056ZM100.751 23.0017C100.751 23.9171 100.871 24.7156 101.11 25.3971C101.35 26.0787 101.697 26.6099 102.151 26.9908C102.605 27.3649 103.157 27.5521 103.807 27.5521C104.462 27.5521 105.018 27.3616 105.472 26.9806C105.926 26.5931 106.269 26.0586 106.503 25.3771C106.742 24.6889 106.862 23.8971 106.862 23.0017C106.862 22.113 106.746 21.3313 106.512 20.6564C106.279 19.9816 105.935 19.4537 105.481 19.0728C105.027 18.6919 104.469 18.5015 103.807 18.5015C103.151 18.5015 102.596 18.6853 102.142 19.0527C101.694 19.4203 101.35 19.9414 101.11 20.6163C100.871 21.2911 100.751 22.0863 100.751 23.0017ZM122.986 24.1443V15.3043H127.015V30.6991H123.147V27.9028H122.995C122.667 28.8049 122.122 29.5299 121.358 30.0777C120.602 30.6257 119.678 30.8996 118.587 30.8996C117.615 30.8996 116.761 30.6657 116.023 30.198C115.285 29.7302 114.708 29.0654 114.291 28.2035C113.881 27.3415 113.673 26.3093 113.667 25.1065V15.3043H117.697V24.3448C117.704 25.2535 117.934 25.9717 118.388 26.4996C118.842 27.0275 119.451 27.2914 120.214 27.2914C120.7 27.2914 121.154 27.1745 121.576 26.9406C121.998 26.7001 122.339 26.3459 122.598 25.8782C122.863 25.4106 122.993 24.8325 122.986 24.1443ZM142.331 19.6942L138.641 19.9347C138.578 19.6007 138.443 19.3 138.234 19.0328C138.026 18.7587 137.752 18.5417 137.411 18.3812C137.077 18.2142 136.676 18.1307 136.21 18.1307C135.585 18.1307 135.059 18.271 134.63 18.5516C134.201 18.8255 133.986 19.1931 133.986 19.6542C133.986 20.0216 134.125 20.3323 134.402 20.5863C134.68 20.8401 135.156 21.044 135.831 21.1976L138.461 21.7589C139.874 22.0662 140.927 22.5607 141.621 23.2422C142.314 23.9237 142.661 24.8192 142.661 25.9284C142.661 26.9373 142.382 27.8226 141.82 28.5843C141.265 29.3461 140.502 29.9407 139.53 30.3683C138.565 30.7894 137.452 30.9999 136.19 30.9999C134.267 30.9999 132.735 30.5756 131.593 29.7269C130.457 28.8717 129.792 27.709 129.596 26.2391L133.56 26.0185C133.68 26.6399 133.971 27.1143 134.432 27.4417C134.892 27.7625 135.481 27.9229 136.201 27.9229C136.906 27.9229 137.474 27.7792 137.904 27.4918C138.339 27.1978 138.559 26.8203 138.565 26.3592C138.559 25.9717 138.405 25.6544 138.102 25.4072C137.799 25.1532 137.333 24.9595 136.702 24.8258L134.185 24.2947C132.765 23.9939 131.71 23.4728 131.015 22.731C130.329 21.9894 129.984 21.044 129.984 19.8947C129.984 18.9057 130.237 18.0538 130.741 17.3389C131.252 16.6239 131.968 16.0727 132.889 15.6851C133.816 15.2976 134.901 15.1038 136.143 15.1038C137.979 15.1038 139.423 15.5148 140.476 16.3367C141.536 17.1584 142.154 18.2777 142.331 19.6942ZM151.441 30.6991V10.1727H155.537V18.6419H163.854V10.1727H167.94V30.6991H163.854V22.22H155.537V30.6991H151.441ZM177.866 30.9999C176.37 30.9999 175.084 30.6791 174.006 30.0376C172.933 29.3895 172.107 28.4741 171.527 27.2914C170.946 26.102 170.656 24.6955 170.656 23.0719C170.656 21.4882 170.946 20.0984 171.527 18.9025C172.107 17.7064 172.923 16.7743 173.976 16.1061C175.036 15.4379 176.278 15.1038 177.704 15.1038C178.663 15.1038 179.556 15.2675 180.381 15.595C181.214 15.9156 181.939 16.4001 182.557 17.0482C183.182 17.6963 183.668 18.5115 184.015 19.4937C184.361 20.4693 184.535 21.6119 184.535 22.9216V24.0942H172.264V21.4482H180.741C180.741 20.8334 180.615 20.2889 180.362 19.8145C180.11 19.3401 179.761 18.9692 179.313 18.702C178.872 18.4281 178.357 18.291 177.77 18.291C177.158 18.291 176.617 18.4414 176.144 18.742C175.677 19.036 175.31 19.4336 175.046 19.9347C174.781 20.4292 174.645 20.9804 174.639 21.5885V24.1041C174.639 24.866 174.771 25.5241 175.036 26.0787C175.308 26.6333 175.689 27.061 176.18 27.3616C176.673 27.6623 177.256 27.8127 177.932 27.8127C178.379 27.8127 178.789 27.7458 179.162 27.6122C179.533 27.4785 179.852 27.278 180.117 27.0108C180.381 26.7435 180.583 26.4161 180.722 26.0286L184.45 26.2892C184.26 27.238 183.872 28.0665 183.286 28.7748C182.706 29.4764 181.956 30.0242 181.035 30.4185C180.119 30.806 179.064 30.9999 177.866 30.9999ZM191.309 30.9898C190.382 30.9898 189.555 30.8194 188.83 30.4787C188.105 30.1312 187.53 29.62 187.108 28.9451C186.692 28.2636 186.483 27.415 186.483 26.3994C186.483 25.5441 186.632 24.8258 186.929 24.2445C187.225 23.6632 187.628 23.1955 188.139 22.8414C188.651 22.4872 189.231 22.22 189.88 22.0396C190.535 21.8592 191.224 21.7321 191.942 21.6587C192.788 21.5652 193.468 21.4783 193.986 21.3981C194.504 21.3112 194.879 21.1843 195.112 21.0172C195.346 20.8501 195.463 20.603 195.463 20.2756V20.2154C195.463 19.5806 195.273 19.0895 194.894 18.742C194.523 18.3947 193.992 18.2208 193.306 18.2208C192.579 18.2208 192.002 18.3913 191.573 18.732C191.145 19.0662 190.861 19.4871 190.722 19.9949L186.995 19.6741C187.184 18.7388 187.556 17.9302 188.111 17.2487C188.666 16.5605 189.382 16.0326 190.258 15.6652C191.142 15.2909 192.163 15.1038 193.323 15.1038C194.131 15.1038 194.904 15.2041 195.642 15.4046C196.386 15.6049 197.045 15.9156 197.62 16.3367C198.2 16.7576 198.656 17.2988 198.991 17.9603C199.325 18.6151 199.492 19.4002 199.492 20.3156V30.6991H195.67V28.5644H195.557C195.323 29.0454 195.011 29.4697 194.621 29.8372C194.229 30.198 193.76 30.4819 193.21 30.6892C192.662 30.8895 192.027 30.9898 191.309 30.9898ZM192.462 28.0431C193.056 28.0431 193.579 27.9195 194.033 27.6723C194.487 27.4184 194.844 27.0777 195.103 26.65C195.361 26.2224 195.491 25.7378 195.491 25.1967V23.563C195.365 23.6498 195.19 23.73 194.97 23.8035C194.755 23.8704 194.512 23.9338 194.242 23.9939C193.971 24.0474 193.699 24.0975 193.428 24.1443C193.157 24.1845 192.911 24.2211 192.69 24.2545C192.217 24.3281 191.803 24.445 191.451 24.6054C191.098 24.7657 190.823 24.9829 190.627 25.2568C190.432 25.5241 190.335 25.8582 190.335 26.2591C190.335 26.8404 190.533 27.2848 190.93 27.5921C191.334 27.8928 191.844 28.0431 192.462 28.0431ZM206.65 10.1727V30.6991H202.619V10.1727H206.65ZM217.608 15.3043V18.5115H208.856V15.3043H217.608ZM210.843 11.6159H214.873V25.9684C214.873 26.3626 214.93 26.6699 215.044 26.8905C215.157 27.1043 215.314 27.2547 215.517 27.3415C215.724 27.4284 215.964 27.4718 216.235 27.4718C216.425 27.4718 216.614 27.4551 216.802 27.4216C216.992 27.3816 217.137 27.3516 217.239 27.3315L217.872 30.5087C217.67 30.5756 217.386 30.6524 217.02 30.7393C216.655 30.8328 216.21 30.8895 215.687 30.9096C214.715 30.9497 213.863 30.8127 213.132 30.4986C212.407 30.1847 211.842 29.6968 211.439 29.0354C211.035 28.3738 210.836 27.5386 210.843 26.5297V11.6159ZM224.575 21.7989V30.6991H220.544V10.1727H224.461V18.0205H224.632C224.96 17.1117 225.489 16.4001 226.222 15.8856C226.953 15.3644 227.87 15.1038 228.974 15.1038C229.984 15.1038 230.864 15.3377 231.614 15.8054C232.371 16.2665 232.957 16.9313 233.373 17.7999C233.797 18.6618 234.004 19.6942 233.998 20.897V30.6991H229.967V21.6587C229.974 20.7098 229.747 19.9715 229.287 19.4436C228.833 18.9158 228.195 18.6519 227.375 18.6519C226.827 18.6519 226.341 18.7754 225.919 19.0227C225.502 19.2699 225.174 19.6307 224.935 20.1051C224.701 20.5728 224.581 21.1375 224.575 21.7989Z" fill="#2A2114"/>
<path d="M13.6349 32.6626H14.9017C15.2008 32.6626 15.7884 32.4938 15.7462 31.8186C15.7318 31.5883 15.7096 31.3497 15.687 31.1073C15.6267 30.4611 15.5639 29.7879 15.6407 29.1742C15.6603 29.0168 15.6837 28.7871 15.7114 28.5145C15.8323 27.3252 16.0361 25.3205 16.3796 24.9543C16.8019 24.5042 17.013 25.3482 17.2241 26.1922C17.2867 26.4422 17.3585 26.8008 17.4368 27.1921C17.6229 28.1214 17.8458 29.2346 18.0687 29.5118C18.3854 29.9056 18.8604 30.2995 19.7049 30.2995C20.5495 30.2995 23.822 29.5118 25.775 24.2229C27.7246 18.9432 28.0962 11.8133 28.15 10.7811L28.1502 10.7758C28.1646 10.4996 28.2065 10.0685 28.2577 9.54205C28.3941 8.13794 28.5965 6.05457 28.5197 4.41789C28.4142 2.16732 27.5168 0.873242 25.9861 0.254333C24.4554 -0.364573 23.347 0.19807 22.0274 1.37962C21.7169 1.65766 21.3362 1.9949 20.9301 2.35467C19.6104 3.52379 18.0221 4.9309 17.6992 5.31812C17.6195 5.41368 17.5342 5.49521 17.4489 5.57671C17.0822 5.92708 16.7162 6.2768 16.8019 7.73748C16.9074 9.53794 16.7491 19.0466 16.6963 20.0594C16.6963 21.4887 15.6092 22.6474 14.2683 22.6474C12.9274 22.6474 11.8403 21.4887 11.8403 20.0594C11.7875 19.0466 11.6291 9.53794 11.7347 7.73748C11.8204 6.2768 11.4544 5.92708 11.0877 5.57671C11.0024 5.49521 10.9171 5.41368 10.8374 5.31812C10.5145 4.9309 8.92616 3.52379 7.60648 2.35467C7.20042 1.99494 6.81967 1.65763 6.50918 1.37962C5.18961 0.19807 4.08116 -0.364573 2.55046 0.254333C1.01975 0.873242 0.122437 2.16732 0.016871 4.41789C-0.0598999 6.05457 0.14248 8.1376 0.278899 9.54171C0.330067 10.0684 0.371955 10.4995 0.386352 10.7758L0.386628 10.781C0.440414 11.8131 0.811984 18.9432 2.76159 24.2229C4.71456 29.5118 7.98711 30.2995 8.83164 30.2995C9.67617 30.2995 10.1512 29.9056 10.4679 29.5118C10.6908 29.2346 10.9137 28.1215 11.0997 27.1921C11.1781 26.8009 11.2499 26.4422 11.3124 26.1922C11.5236 25.3482 11.7347 24.5042 12.157 24.9543C12.5005 25.3205 12.7043 27.3252 12.8252 28.5145C12.8529 28.7871 12.8763 29.0168 12.8959 29.1742C12.9727 29.7879 12.9099 30.4611 12.8496 31.1073C12.827 31.3497 12.8048 31.5883 12.7904 31.8186C12.7481 32.4938 13.3358 32.6626 13.6349 32.6626Z" fill="#2A2114"/>
<path d="M16.6941 32.3252V24.6732L16.5407 20.967C16.6399 20.6846 16.6941 20.3788 16.6941 20.0595C16.6941 18.6301 15.6071 17.4714 14.2661 17.4714C12.9251 17.4714 11.8381 18.6301 11.8381 20.0595C11.8381 20.3788 11.8923 20.6845 11.9915 20.9669L11.8381 24.6732V32.3251C11.8381 33.2253 11.4158 34.6319 9.99068 35.5884C8.56554 36.5449 6.03195 38.9643 5.76804 39.2456C5.50412 39.5269 3.65671 40.6522 1.86209 39.4707C0.0674657 38.2891 -0.0381004 35.7572 0.0674657 33.5066C0.173032 31.2561 0.648078 24.7294 0.964776 23.3228C1.28147 21.9162 2.86497 15.3333 3.34001 14.8269C3.72005 14.4218 8.95261 14.6581 11.5214 14.8269C11.5214 14.9769 11.6164 15.2658 11.9964 15.2207C12.4715 15.1645 13.0521 11.9012 12.9465 10.157C12.9283 9.85535 12.9053 9.57393 12.8841 9.31473C12.7828 8.07505 12.7231 7.34375 13.4216 7.34375L15.1106 7.3438C15.8091 7.3438 15.7493 8.07505 15.648 9.31474C15.6269 9.57393 15.6039 9.8554 15.5856 10.157C15.4801 11.9012 16.0607 15.1645 16.5357 15.2208C16.9158 15.2658 17.0108 14.977 17.0108 14.8269C19.5795 14.6582 24.8121 14.4218 25.1921 14.8269C25.6672 15.3333 27.2507 21.9162 27.5674 23.3229C27.8841 24.7295 28.3591 31.2561 28.4647 33.5067C28.5703 35.7573 28.4647 38.2892 26.6701 39.4707C24.8754 40.6523 23.028 39.527 22.7641 39.2457C22.5002 38.9643 19.9666 36.545 18.5415 35.5885C17.1163 34.632 16.6941 33.2254 16.6941 32.3252Z" fill="#BEB7A3"/>
</svg>
