<svg width="36" height="36" viewBox="0 0 36 36" fill="none" xmlns="http://www.w3.org/2000/svg">
<path d="M32.4016 14.8016H22.1616C21.2655 14.8016 20.8174 14.8016 20.4752 14.6272C20.1741 14.4738 19.9293 14.229 19.776 13.9279C19.6016 13.5857 19.6016 13.1376 19.6016 12.2416V6.80156M14.8016 6.80156H27.2816C29.0737 6.80156 29.9698 6.80156 30.6543 7.15034C31.2565 7.45714 31.746 7.94667 32.0528 8.54879C32.4016 9.23331 32.4016 10.1294 32.4016 11.9216V27.2816C32.4016 29.0737 32.4016 29.9698 32.0528 30.6543C31.746 31.2565 31.2565 31.746 30.6543 32.0528C29.9698 32.4016 29.0737 32.4016 27.2816 32.4016H8.72156C6.92939 32.4016 6.03331 32.4016 5.34879 32.0528C4.74667 31.746 4.25714 31.2565 3.95034 30.6543C3.60156 29.9698 3.60156 29.0737 3.60156 27.2816V11.9216C3.60156 10.1294 3.60156 9.23331 3.95034 8.54879C4.25714 7.94667 4.74667 7.45714 5.34879 7.15034C5.9913 6.82297 6.8202 6.80288 8.40156 6.80164M14.8016 6.80156V6.16156C14.8016 5.26548 14.8016 4.81744 14.6272 4.47518C14.4738 4.17412 14.229 3.92935 13.9279 3.77595C13.5857 3.60156 13.1376 3.60156 12.2416 3.60156H10.9616C10.0655 3.60156 9.61744 3.60156 9.27518 3.77595C8.97412 3.92935 8.72935 4.17412 8.57595 4.47518C8.40156 4.81744 8.40156 5.26548 8.40156 6.16156V6.80164M14.8016 6.80156V23.4416C14.8016 24.3376 14.8016 24.7857 14.6272 25.1279C14.4738 25.429 14.229 25.6738 13.9279 25.8272C13.5857 26.0016 13.1376 26.0016 12.2416 26.0016H10.9616C10.0655 26.0016 9.61744 26.0016 9.27518 25.8272C8.97412 25.6738 8.72935 25.429 8.57595 25.1279C8.40156 24.7857 8.40156 24.3376 8.40156 23.4416V6.80164M21.2016 21.2016H21.2176V21.1856H21.2016V21.2016ZM21.2016 26.0016H21.2176V26.0176H21.2016V26.0016ZM26.0016 26.0016H26.0176V26.0176H26.0016V26.0016ZM26.0016 21.2016H26.0176V21.2176H26.0016V21.2016Z" stroke="#2A2114" stroke-width="2.7" stroke-linecap="round" stroke-linejoin="round"/>
</svg>
