<svg width="36" height="36" viewBox="0 0 36 36" fill="none" xmlns="http://www.w3.org/2000/svg">
<path d="M18 17.8768H16.65C16.65 18.2289 16.7876 18.5671 17.0334 18.8192L18 17.8768ZM19.35 10.4922C19.35 9.7466 18.7456 9.14219 18 9.14219C17.2544 9.14219 16.65 9.7466 16.65 10.4922H19.35ZM21.5334 23.4346C22.0539 23.9685 22.9086 23.9793 23.4424 23.4588C23.9763 22.9383 23.9871 22.0836 23.4666 21.5498L21.5334 23.4346ZM18 34.3422C18.7456 34.3422 19.35 33.7378 19.35 32.9922C19.35 32.2466 18.7456 31.6422 18 31.6422V34.3422ZM29.25 8.07035L30.2621 7.17701L30.2621 7.17701L29.25 8.07035ZM28.6567 9.46157C29.1231 10.0433 29.9727 10.1369 30.5545 9.67052C31.1362 9.20418 31.2297 8.35454 30.7634 7.7728L28.6567 9.46157ZM29.7114 8.62451V9.97451C30.457 9.97451 31.0614 9.3701 31.0614 8.62451H29.7114ZM31.0614 2.99951C31.0614 2.25393 30.457 1.64951 29.7114 1.64951C28.9658 1.64951 28.3614 2.25393 28.3614 2.99951H31.0614ZM24.0864 7.27451C23.3408 7.27451 22.7364 7.87893 22.7364 8.62451C22.7364 9.3701 23.3408 9.97451 24.0864 9.97451V7.27451ZM33.3209 12.272C33.0609 11.5732 32.2836 11.2175 31.5849 11.4775C30.8861 11.7375 30.5303 12.5147 30.7903 13.2135L33.3209 12.272ZM30.8036 13.2491C31.0636 13.9479 31.8408 14.3036 32.5396 14.0437C33.2384 13.7837 33.5941 13.0064 33.3341 12.3077L30.8036 13.2491ZM34.3473 17.6985C34.3346 16.953 33.72 16.359 32.9745 16.3717C32.229 16.3844 31.635 16.9991 31.6477 17.7446L34.3473 17.6985ZM31.6483 17.7753C31.661 18.5208 32.2756 19.1148 33.0211 19.1021C33.7666 19.0894 34.3606 18.4747 34.3479 17.7292L31.6483 17.7753ZM33.6344 22.7907C33.8539 22.0782 33.4541 21.3226 32.7416 21.1032C32.029 20.8837 31.2735 21.2835 31.054 21.996L33.6344 22.7907ZM31.0429 22.032C30.8235 22.7446 31.2232 23.5001 31.9358 23.7196C32.6483 23.939 33.4039 23.5393 33.6233 22.8267L31.0429 22.032ZM31.3847 27.3846C31.8142 26.7751 31.6682 25.9329 31.0587 25.5034C30.4493 25.074 29.607 25.2199 29.1776 25.8294L31.3847 27.3846ZM29.155 25.8614C28.7256 26.4709 28.8715 27.3131 29.481 27.7425C30.0905 28.172 30.9327 28.026 31.3622 27.4166L29.155 25.8614ZM27.8092 31.0748C28.4059 30.6277 28.5272 29.7816 28.0801 29.1849C27.633 28.5882 26.7869 28.4669 26.1902 28.914L27.8092 31.0748ZM26.1603 28.9364C25.5637 29.3834 25.4424 30.2296 25.8894 30.8262C26.3365 31.4229 27.1826 31.5442 27.7793 31.0971L26.1603 28.9364ZM23.3101 33.4607C24.0156 33.2195 24.3919 32.4521 24.1507 31.7466C23.9094 31.0411 23.142 30.6647 22.4365 30.906L23.3101 33.4607ZM22.4059 30.9164C21.7004 31.1577 21.3241 31.9251 21.5653 32.6306C21.8065 33.3361 22.574 33.7124 23.2795 33.4712L22.4059 30.9164ZM19.35 17.8768V10.4922H16.65V17.8768H19.35ZM17.0334 18.8192L21.5334 23.4346L23.4666 21.5498L18.9666 16.9344L17.0334 18.8192ZM1.65 17.9922C1.65 27.022 8.97015 34.3422 18 34.3422V31.6422C10.4613 31.6422 4.35 25.5309 4.35 17.9922H1.65ZM18 1.64219C8.97015 1.64219 1.65 8.96233 1.65 17.9922H4.35C4.35 10.4535 10.4613 4.34219 18 4.34219V1.64219ZM30.2621 7.17701C27.2682 3.7849 22.8835 1.64219 18 1.64219V4.34219C22.0767 4.34219 25.7347 6.12764 28.2379 8.96369L30.2621 7.17701ZM30.7634 7.7728C30.601 7.57019 30.4338 7.37154 30.2621 7.17701L28.2378 8.96368C28.3813 9.12626 28.521 9.29227 28.6567 9.46157L30.7634 7.7728ZM31.0614 8.62451V2.99951H28.3614V8.62451H31.0614ZM29.7114 7.27451H24.0864V9.97451H29.7114V7.27451ZM30.7903 13.2135L30.8036 13.2491L33.3341 12.3077L33.3209 12.272L30.7903 13.2135ZM31.6477 17.7446L31.6483 17.7753L34.3479 17.7292L34.3473 17.6985L31.6477 17.7446ZM31.054 21.996L31.0429 22.032L33.6233 22.8267L33.6344 22.7907L31.054 21.996ZM29.1776 25.8294L29.155 25.8614L31.3622 27.4166L31.3847 27.3846L29.1776 25.8294ZM26.1902 28.914L26.1603 28.9364L27.7793 31.0971L27.8092 31.0748L26.1902 28.914ZM22.4365 30.906L22.4059 30.9164L23.2795 33.4712L23.3101 33.4607L22.4365 30.906Z" fill="#2A2114"/>
</svg>
