<svg width="256" height="256" viewBox="0 0 256 256" fill="none" xmlns="http://www.w3.org/2000/svg">
<g clip-path="url(#clip0_1_6)">
<path d="M186.37 33C176.005 33 166.65 44.1117 159.991 61.9694C150.199 86.9959 142.987 120.403 127.597 120.403C112.206 120.403 106.866 98.9535 97.1673 82.372C90.4936 69.8049 81.0672 61.9694 70.6158 61.9694C50.394 61.9694 34 91.3116 34 127.5C34 163.688 50.394 193.038 70.623 193.038C81.0744 193.038 90.5007 185.202 97.1744 172.635C106.873 156.054 112.758 134.604 127.604 134.604C142.45 134.604 150.205 168.011 159.997 193.038C166.657 210.888 176.019 222 186.377 222C206.599 222 223 179.689 223 127.5C223 75.3107 206.599 33 186.37 33Z" fill="#2A2114"/>
</g>
<defs>
<clipPath id="clip0_1_6">
<rect width="189" height="189" fill="white" transform="translate(34 33)"/>
</clipPath>
</defs>
</svg>
